<svg width="127" height="127" viewBox="0 0 127 127" fill="none" xmlns="http://www.w3.org/2000/svg">
<path d="M112.086 50.1121C112.575 51.8252 113.043 54.1062 113.281 55.8656C113.357 56.4153 113.29 56.1412 113.338 56.5205C113.429 57.2596 113.523 57.9565 113.58 58.693C113.598 58.9372 113.529 58.6376 113.548 58.8935C113.655 60.2944 113.73 61.6243 113.731 63.0514C113.726 70.0698 112.297 76.9645 109.446 83.4607C108.512 85.6064 107.152 88.108 105.872 90.1554C105.724 90.3948 105.845 90.2724 105.818 90.3194C105.404 91.0535 105.492 90.7774 105.181 91.2305C103.945 93.0263 102.464 94.9463 101.088 96.5284C100.501 97.2001 101.152 96.5815 100.519 97.2224C100.475 97.2667 100.599 97.0728 100.431 97.251C100.051 97.6573 99.3311 98.4212 99.024 98.7233C98.434 99.3062 98.3361 99.4012 97.7678 99.9398C96.9877 100.675 96.0205 101.502 95.1348 102.236C94.9456 102.393 95.2236 102.219 94.9232 102.471C94.6244 102.725 93.805 103.357 93.5174 103.557C93.2315 103.759 93.3319 103.644 93.278 103.676C92.834 103.934 91.9078 104.689 91.7786 104.776C89.4762 106.39 87.3424 107.546 84.9671 108.682C83.1723 109.538 81.2115 110.341 79.4072 110.945C79.3922 110.95 79.3773 110.955 79.3623 110.96C77.1996 111.679 75.3405 112.15 73.1754 112.594C72.9472 112.64 73.2239 112.633 72.9451 112.689C69.9795 113.274 66.9787 113.579 63.9707 113.584C63.6687 113.584 64.0573 113.539 63.7558 113.536C61.9111 113.539 59.0109 113.262 57.9045 113.304C56.663 113.164 55.1623 112.927 54.0708 112.68C53.3679 112.52 54.0626 112.613 53.1924 112.456C52.9964 112.419 53.2421 112.511 52.9487 112.453C51.7125 112.205 50.3812 111.854 49.1788 111.519C48.9343 111.451 48.9906 111.504 48.9199 111.489C48.3245 111.367 47.3944 110.971 47.1897 110.893C45.6263 110.306 44.4864 109.875 43.0635 109.248C42.7339 109.102 43.1042 109.319 42.7865 109.178C41.1393 108.447 39.4794 107.584 37.9687 106.674C37.6329 106.471 37.9644 106.619 37.8052 106.52C37.1056 106.081 36.9095 106.05 36.2494 105.611C36.1106 105.517 36.2086 105.539 36.185 105.519C35.8168 105.212 35.4264 105.052 35.3233 104.985C34.0238 104.135 33.2747 103.474 32.0938 102.557C31.9527 102.446 32.2411 102.733 31.8465 102.42C29.219 100.327 26.6891 97.8032 24.6102 95.2111C24.2868 94.8074 24.5461 95.0724 24.5286 95.0447C24.2423 94.5932 23.9667 94.3786 23.86 94.2477C23.0223 93.2154 22.3632 92.1624 21.7748 91.4707C19.2667 87.7072 17.2406 83.6548 15.8364 79.385C15.4886 78.3274 15.1854 77.2794 14.9172 76.2031C14.9 76.1342 14.9731 76.2464 14.9387 76.1091C14.5392 74.453 14.5636 74.7916 14.241 73.7016C14.1601 73.4266 14.0887 72.5603 14.0834 72.4845C14.0584 72.2069 14.172 72.4786 14.1601 72.3863C14.0638 71.6259 13.8771 71.7803 13.7172 70.7501C13.7127 70.7179 13.7706 70.8475 13.7613 70.7605C13.7326 70.4903 13.6799 70.2262 13.6576 69.9618C13.6094 69.3577 13.6786 69.1285 13.527 68.2126C13.5095 68.0966 13.4042 68.2865 13.3313 67.3605C13.2967 66.9936 13.2003 65.3493 13.2013 64.8915C13.1957 64.433 13.2424 64.7467 13.2431 64.7139C13.2663 63.4756 13.2986 63.944 13.3686 63.3253C13.4442 62.7082 13.2694 62.8782 13.2526 62.6257C13.2345 62.3735 13.3019 61.4671 13.3279 61.2454C13.3518 61.0237 13.3635 61.302 13.3804 61.1048C13.5007 59.7992 13.3239 60.5255 13.3216 60.0922C13.324 59.0699 13.5301 58.2863 13.6535 57.3648C13.6876 57.115 13.6329 57.3158 13.6581 57.0921C13.7624 56.206 13.88 55.6829 14.0169 54.6792C14.0386 54.5149 14.111 53.6929 14.2771 53.1853C14.3007 53.1136 14.2882 53.3288 14.3738 52.9592C14.5001 52.4079 14.7413 51.4137 14.886 50.8225C14.9925 50.3856 14.8087 50.8702 14.9709 50.3274C15.044 50.0866 14.9515 50.5444 15.087 50.0918C15.2193 49.64 15.5624 48.488 15.7051 48.0538C15.8448 47.6195 15.7295 47.8444 15.7382 47.8085C15.7907 47.5906 16.0571 46.754 16.0847 46.6815C17.3912 42.9925 19.0481 39.7642 21.0575 36.5362C21.2162 36.2833 21.0735 36.4282 21.0974 36.3894C21.6367 35.5199 21.2932 36.2579 21.7164 35.6826C21.5878 35.7212 21.8303 35.376 22.2325 34.7788C22.4268 34.4915 22.2915 34.6273 22.3067 34.5994C22.5602 34.1481 22.8257 33.8966 22.8907 33.83C23.1311 33.5837 23.3061 33.2517 23.4729 33.0867C23.6393 32.9223 23.3549 33.3749 23.773 32.8271C23.8665 32.655 23.4892 33.0112 23.7993 32.5884C24.9486 30.9695 27.4947 28.2806 28.6692 27.2065C29.8227 26.1174 30.2136 25.7809 30.9208 25.1872C32.2157 24.131 31.7097 24.4769 32.5043 23.8104C33.3118 23.152 33.0016 23.5802 33.1392 23.5141C33.2752 23.4509 33.3834 23.3286 33.5404 23.2337C33.697 23.1395 33.3934 23.391 33.7412 23.1421C34.0883 22.8896 35.0082 22.175 35.1177 22.0637C35.3445 21.8261 34.8612 22.0562 35.823 21.449C35.8785 21.4145 35.7224 21.5633 35.934 21.4294C37.6059 20.3717 39.4032 19.3499 41.1879 18.5016C41.4335 18.3852 41.2344 18.531 41.3775 18.4639C42.8762 17.7778 42.3177 17.967 43.1061 17.5226C42.9662 17.7053 43.4405 17.5526 44.6005 17.0811C45.3018 16.8008 45.16 16.8081 45.6021 16.603C45.7343 16.5414 46.2443 16.3875 46.3278 16.3345C46.604 16.1606 46.0987 16.2451 47.3355 15.854C47.336 15.8538 47.3365 15.8537 47.337 15.8535C47.3562 15.8476 47.3489 15.8557 47.3395 15.8659C47.3271 15.8794 47.3113 15.8967 47.3479 15.8909C47.3624 15.8887 47.3852 15.8828 47.4196 15.8717C48.6324 15.4896 48.7503 15.372 50.0658 14.9909C51.1018 14.6899 52.9696 14.2983 54.1727 14.0883C54.1691 14.21 55.2962 13.979 55.7481 13.8285C56.5328 13.7101 57.3777 13.5959 58.1437 13.5271C58.4065 13.5037 58.2377 13.5566 58.2712 13.5569C58.7839 13.5641 59.1184 13.4549 59.2885 13.4375C61.1359 13.2584 62.6489 13.2784 64.4166 13.2517C64.4792 13.2513 64.5827 13.1675 65.0552 13.2445C65.0855 13.25 64.4996 13.2676 65.3323 13.3003C66.1653 13.3317 67.7261 13.4826 68.8776 13.5771C69.1556 13.5978 69.8677 13.6147 70.423 13.7494C70.4969 13.7674 70.4115 13.7794 70.5176 13.8084C70.8602 13.9019 71.0638 13.8468 71.4609 13.9851C71.8567 14.1242 72.6966 14.3203 73.8416 14.516C73.8782 14.5224 74.1608 14.5139 74.5181 14.5971C75.088 14.7288 75.889 14.944 76.4766 15.1051C76.7581 15.1821 76.5891 15.0923 76.6382 15.105C78.5375 15.6141 79.8573 16.0892 81.8091 16.873C82.167 17.0159 83.2139 17.3878 83.8757 17.7386C84.5993 18.1274 83.7577 17.9452 85.4678 18.7189C86.1521 19.0372 87.1338 19.2448 88.253 20.0418C90.5644 21.3351 92.5535 22.774 94.6548 24.3924C94.7493 24.4651 95.089 24.6461 95.305 24.8265C95.6257 25.0945 95.7775 25.2685 96.0018 25.4639C96.9399 26.2851 97.7975 27.0402 98.6485 27.891C98.9705 28.2153 98.8339 28.1265 99.2132 28.5168C99.5897 28.9081 99.8742 29.1384 100.356 29.6984C100.719 30.1233 101.016 30.6006 101.484 31.1705C101.572 31.1321 101.903 31.518 102.485 32.2083C102.597 32.3408 102.506 32.1752 102.561 32.2369C102.781 32.4878 102.949 32.7483 103.156 32.9895C103.207 33.0482 103.234 33.0318 103.277 33.0789C103.641 33.4778 104.102 34.2395 104.178 34.3701C104.474 34.8718 104.662 35.0728 104.896 35.454C105.128 35.8354 104.739 35.2934 105.018 35.7334C105.595 36.642 106.324 37.8234 106.856 38.7757C107.069 39.156 106.961 38.8759 106.992 38.9298C107.442 39.7122 107.822 40.5489 108.12 40.9568C108.198 41.6159 108.387 41.4303 108.89 42.6276C108.928 42.7211 108.888 42.882 108.712 42.533C108.536 42.1834 108.313 41.6336 108.051 41.1604C107.99 41.0468 107.574 40.4406 107.521 40.3547C107.117 39.6809 107.196 39.5129 107.185 39.4715C107.042 39.0117 106.508 38.2867 106.38 38.0874C105.803 37.1695 105.334 36.3894 104.812 35.6485C104.47 35.1662 104.353 35.177 104.092 34.7962C103.214 33.5402 102.995 33.0209 101.993 31.9686C101.774 31.7452 101.891 32.0494 101.241 31.1428C101.201 31.0852 100.723 30.4083 100.364 30.087C100.319 30.0466 100.296 30.0697 100.241 30.0128C99.8717 29.6322 99.6502 29.3558 99.2426 28.9481C98.8357 28.5416 98.3321 28.0609 97.8659 27.5971C97.5853 27.3168 97.255 26.9261 97.1243 26.7861C96.7576 26.3897 96.2799 26.0598 96.0625 25.8032C95.8421 25.5445 96.3926 25.9134 95.7443 25.3138C95.665 25.3567 95.5521 25.374 95.4576 25.405C93.9869 24.1602 92.4848 22.9999 90.8712 21.9336C90.671 21.8019 90.8506 21.9745 90.6352 21.8348C89.7255 21.2482 88.935 20.7254 87.9527 20.1796C87.1921 19.7578 86.3287 19.3502 85.5108 18.9561C85.0589 18.6193 83.8245 18.0687 82.9257 17.6785C82.6111 17.5409 82.6421 17.5266 82.4198 17.4247C81.5785 17.0459 81.9459 17.2897 81.7069 17.2074C80.6778 16.8662 80.6609 16.6505 79.4493 16.233C79.3853 16.2095 78.5666 16.0459 78.4563 16.0192C77.7538 15.841 78.3531 15.9482 77.9225 15.8065C77.135 15.552 76.5866 15.3689 75.639 15.1554C75.3624 15.0931 74.6883 14.9928 74.1622 14.8255C74.0931 14.8034 74.1394 14.779 74.083 14.7645C73.0599 14.5083 73.0095 14.6131 72.4122 14.5353C71.8137 14.458 70.9107 14.2394 70.7256 14.1917C70.2437 14.0641 71.1046 14.2249 71.1315 14.2254C71.4528 14.2123 70.7812 14.1134 70.2673 14.0367C70.2077 13.9214 69.4844 13.8328 69.734 13.9593C69.7625 13.9728 70.1647 14.0169 70.2673 14.0367C69.8006 14.0741 69.0128 13.9841 68.1454 13.8041C67.7388 13.7228 68.1327 13.6964 66.8794 13.6192C66.3115 13.5892 66.5261 13.6751 66.0246 13.666C64.8772 13.6458 63.3939 13.5546 62.2083 13.5959C61.7807 13.6107 62.1982 13.639 61.9063 13.6511C61.132 13.6852 60.4449 13.6914 59.666 13.7646C59.5958 13.7714 59.7706 13.7993 59.5296 13.8183C57.7007 13.9695 56.1056 14.1505 54.2176 14.5016C53.3057 14.6667 51.691 15.0529 50.7627 15.299C49.7161 15.5683 48.5421 15.8911 47.4656 16.2399C46.8718 16.4316 46.3177 16.6266 45.8457 16.8095C44.9829 17.1474 45.1911 17.1153 44.8298 17.2882C44.1331 17.6205 42.8577 18.0772 42.6861 18.1427C42.681 18.143 43.4033 17.8098 43.0068 17.9635C42.7632 18.0242 42.6945 18.1388 42.6861 18.1427C42.5687 18.1787 41.1217 18.8582 40.8475 19.0138C40.6963 19.0953 40.7997 19.0867 40.7207 19.1286C38.8335 20.1311 37.0063 21.2275 35.2119 22.4379C35.1801 22.4588 35.2026 22.3903 35.1281 22.44C34.0893 23.1357 33.4746 23.6629 32.6833 24.3218C31.8934 24.9832 31.2618 25.5054 30.7524 25.8489C30.1703 26.3641 29.3238 27.0997 28.8492 27.533C28.3734 27.9658 28.3708 28.0931 28.3317 28.1335C27.1263 29.4226 26.4002 30.1402 25.216 31.5361C24.6499 32.199 23.6008 33.57 23.0641 34.3451C22.6369 34.9545 22.3664 35.313 21.9967 35.8914C21.9468 35.9698 22.0302 35.9125 22.0157 35.9369C21.6335 36.601 21.7585 36.2437 21.6581 36.367C21.2981 36.8169 21.0775 37.0986 20.5981 37.9568C20.487 38.1549 20.2711 38.7914 20.0783 39.1547C19.8273 39.6276 19.8823 39.4273 19.6261 39.9265C19.6044 39.9693 19.6343 39.974 19.4718 40.2794C18.7184 41.6973 17.963 43.2803 17.3428 44.8303C17.2581 45.0421 17.41 44.7881 17.2891 45.0944C16.7224 46.5313 16.1732 48.1335 15.7343 49.5734C15.6263 49.928 15.6592 49.6958 15.6276 49.7704C15.4337 50.2304 15.3381 50.93 15.3117 51.0423C14.6774 53.7235 14.2297 55.7946 13.9816 58.5951C13.9659 58.7477 13.9574 59.9281 13.8523 60.4458C13.8448 60.4811 13.7344 60.996 13.7722 61.4584C13.7748 61.4871 13.8275 61.1648 13.8031 61.7299C13.7791 62.2963 13.7925 63.2009 13.7584 63.9798C13.7473 64.2264 13.6759 64.8102 13.7725 65.5405C13.7763 65.5885 13.9822 66.7114 13.9176 67.1205C13.9076 67.1868 13.7911 67.1269 13.9245 67.9943C13.951 68.1598 13.9447 67.8554 14.0026 68.2925C14.0922 68.9629 14.1719 69.8545 14.3425 70.6671C14.3717 70.8091 14.5368 71.4063 14.5702 71.9027C14.5753 71.98 14.5148 71.842 14.5568 72.0986C14.7572 73.3192 15.0603 74.5891 15.3543 75.812C15.46 76.2466 15.3456 76.0401 15.4538 76.4953C15.5616 76.9525 15.8116 77.8513 15.9861 78.3102C16.1599 78.7679 16.0813 78.2323 16.3156 78.9258C16.3461 79.0147 16.3767 79.1036 16.4075 79.1924C17.4153 82.0986 18.6068 84.9167 20.1002 87.6046C20.3295 88.0136 20.1649 87.6607 20.5091 88.2583C21.7524 90.4927 24.36 94.0456 25.7898 95.7398C26.917 97.1095 25.4099 95.4613 26.2923 96.4934C26.7221 96.9913 27.2859 97.4345 27.3972 97.5458C28.4884 98.637 29.23 99.412 30.2748 100.331C30.4911 100.52 30.3092 100.301 30.4931 100.461C31.1217 101.008 31.7809 101.585 32.4061 102.079C32.6869 102.3 32.6555 102.233 32.9127 102.437C33.5295 102.924 34.0811 103.349 34.689 103.817C34.7445 103.86 34.3358 103.621 34.8108 103.958C35.5803 104.502 36.5422 105.174 37.4856 105.712C37.7662 105.871 37.8135 105.816 38.384 106.209C38.5044 106.291 38.2975 106.28 39.0373 106.61C39.1607 106.668 40.3965 107.225 40.9601 107.579C41.108 107.674 41.4758 107.94 41.8302 108.098C41.8783 108.119 41.7061 107.992 41.997 108.127C43.0224 108.602 44.1065 109.08 45.1913 109.494C45.4811 109.603 45.0664 109.397 45.4979 109.561C46.6834 110.012 48.1809 110.532 49.3685 110.893C49.8064 111.026 49.4932 110.97 49.524 110.983C50.0223 111.192 50.3511 111.195 50.5234 111.236C51.5974 111.494 52.4104 111.724 53.4092 111.921C53.6852 111.974 53.4977 111.896 53.5532 111.904C54.1287 111.984 53.6911 111.969 54.0504 112.047C55.0592 112.264 56.1911 112.441 57.2275 112.564C57.607 112.609 57.1864 112.512 57.5266 112.552C59.5412 112.786 61.6547 112.907 63.6331 112.919C64.0066 112.921 63.772 112.958 63.8499 112.965C64.3894 113.017 65.1718 112.915 65.3518 112.899C66.1705 112.831 66.4937 112.841 67.2164 112.78C70.7521 112.5 75.0665 111.652 78.2577 110.63C78.5769 110.531 78.8904 110.43 79.1989 110.327C82.8965 109.079 85.8165 107.751 89.111 105.767C89.337 105.629 89.0848 105.729 89.279 105.609C91.7813 104.063 94.1269 102.344 96.3196 100.373C96.4995 100.211 96.2103 100.411 96.4972 100.149C97.0859 99.6108 97.8152 98.921 98.3941 98.3587C98.6758 98.0848 98.3314 98.4856 98.6142 98.2088C99.2715 97.5635 99.9474 96.8436 100.567 96.1277C100.829 95.8229 100.396 96.2503 100.739 95.856C103.069 93.1615 105.07 90.2745 106.85 87.1432C106.971 86.9284 107.157 86.7815 107.385 86.307C107.38 86.2602 107.353 86.2483 107.337 86.2204C109.715 81.6102 111.401 76.6953 112.273 71.5611C112.309 71.345 112.2 71.7105 112.269 71.2921C112.664 68.8646 112.862 66.4867 112.944 63.9723C112.95 63.7231 113.038 63.8522 113.024 63.1154C113.024 62.9855 112.993 61.8748 112.96 61.5909C112.956 61.5522 112.924 61.7553 112.909 61.3992C112.822 59.323 112.605 57.1643 112.28 55.1149C112.227 54.7835 112.33 55.1286 112.292 54.8923C112.027 53.2256 111.583 51.4398 111.176 49.8697C110.902 48.827 111.082 49.1897 110.984 48.6173C110.971 48.5362 110.767 47.8938 110.795 47.8476C110.868 47.7291 111.079 48.0054 111.145 47.8425C111.161 47.8077 110.846 46.9506 111.073 47.4444C111.09 47.4788 111.314 48.1012 111.38 48.2504C111.427 48.3543 111.407 48.1467 111.493 48.362C111.578 48.5775 111.619 48.8303 111.746 49.1906C111.873 49.5524 111.875 49.3713 112.086 50.1121ZM26.7568 29.5444C26.3225 29.9579 26.3748 30.1234 26.7837 29.6228C26.8035 29.5986 26.7792 29.5231 26.7568 29.5444ZM92.5382 22.9449C91.942 22.4347 91.444 22.2154 91.8678 22.5699C92.2891 22.9258 92.7189 23.1007 92.5382 22.9449ZM98.7313 28.1592C98.1187 27.4771 97.8681 27.5301 98.5926 28.1862C98.6344 28.2246 98.7669 28.1993 98.7313 28.1592ZM111.728 51.1876C111.728 51.1791 111.609 50.7101 111.604 50.6994C111.494 50.4623 111.732 51.3991 111.728 51.1876ZM103.967 34.2629C103.827 34.0144 103.309 33.3702 103.492 33.6776C103.641 33.924 104.145 34.5721 103.967 34.2629ZM13.729 57.3486C13.7253 57.3577 13.6827 57.702 13.6963 57.6965C13.7387 57.6776 13.7849 57.1975 13.729 57.3486ZM110.316 46.3415C109.627 44.449 109.295 43.2428 110.102 45.304C110.244 45.6767 109.738 44.5242 109.908 45.0026C110.218 45.875 110.534 46.4184 110.786 47.3424C110.833 47.508 110.357 46.4479 110.314 46.3382C110.315 46.3393 110.315 46.3404 110.316 46.3415ZM26.3914 29.6775C26.3814 29.6846 26.058 30.0411 26.0522 30.0514C25.9135 30.2766 26.5641 29.5589 26.3914 29.6775ZM15.3043 77.4342C15.3047 77.461 15.6281 78.5306 15.6459 78.564C15.8907 79.0968 15.2359 76.938 15.3043 77.4342ZM54.1921 14.0879C54.6971 13.9441 55.3222 13.8331 55.7457 13.8288C55.2285 13.9057 54.7064 13.9946 54.1921 14.0879Z" fill="black"/>
<path d="M74.4 17.3675C84.3445 19.7827 93.2431 25.3449 99.771 33.2261C106.299 41.1073 110.107 50.886 110.628 61.1062C111.149 71.3265 108.356 81.4419 102.664 89.9463C96.9717 98.4508 88.6851 104.889 79.038 108.304" stroke="black"/>
<path d="M49.2928 108.948C39.507 105.954 30.9497 99.8796 24.8951 91.6293C18.8404 83.379 15.6121 73.3939 15.6908 63.1607C15.7696 52.9274 19.1511 42.9932 25.332 34.837C31.5128 26.6809 40.1625 20.7389 49.9932 17.8959" stroke="black"/>
<path d="M106.326 49.991C103.506 40.9245 97.8898 32.9825 90.2819 27.3014C82.6739 21.6203 73.464 18.4913 63.9698 18.362C54.4757 18.2328 45.1839 21.11 37.4242 26.5819C29.6644 32.0538 23.8343 39.8399 20.7682 48.8263" stroke="black"/>
<path d="M20.5507 77.2333C23.4785 86.2656 29.1883 94.1404 36.8631 99.7309C44.5379 105.321 53.7843 108.341 63.2793 108.357C72.7743 108.374 82.0313 105.387 89.7256 99.8233C97.4199 94.2597 103.157 86.4049 106.117 77.3828" stroke="black"/>
<path d="M121.905 63.0883C121.709 62.9605 121.438 62.8199 121.227 62.7204C121.161 62.6892 121.18 62.7306 121.134 62.71C121.044 62.6699 120.971 62.6129 120.881 62.575C120.851 62.5625 120.865 62.6189 120.834 62.605C120.664 62.5287 120.518 62.432 120.352 62.3462C119.531 61.9233 118.739 61.4838 117.921 61.0337C117.651 60.8853 117.308 60.7313 117.041 60.5579C117.01 60.5376 117.048 60.5168 117.043 60.5106C116.97 60.415 116.965 60.4978 116.897 60.4702C116.629 60.3606 116.351 60.204 116.119 60.0536C116.021 59.9895 116.159 59.985 116.036 59.9615C116.028 59.9598 116.034 60.0086 116.004 59.9961C115.936 59.9677 115.82 59.8923 115.769 59.8667C115.671 59.8174 115.656 59.8081 115.566 59.7569C115.444 59.6871 115.289 59.62 115.162 59.5367C115.135 59.5188 115.192 59.5054 115.151 59.4737C115.11 59.442 114.99 59.3768 114.945 59.3619C114.901 59.3471 114.902 59.3842 114.891 59.3864C114.803 59.4057 114.708 59.2537 114.692 59.2417C114.389 59.0257 114.09 58.9086 113.789 58.7347C113.56 58.6026 113.324 58.4477 113.105 58.3241C112.845 58.1769 112.614 58.0689 112.365 57.9204C112.338 57.9047 112.393 57.8819 112.361 57.8627C112.019 57.6589 111.674 57.4658 111.315 57.2952C111.279 57.2782 111.302 57.3396 111.265 57.3247C111.038 57.2326 110.664 57.1111 110.629 56.8828C110.483 56.8066 110.306 56.7129 110.16 56.6707C110.08 56.6474 110.11 56.7064 110.063 56.677L109.878 56.5647L109.873 56.7866C109.873 56.796 109.872 56.8085 109.869 56.8253C109.865 56.8516 109.825 56.8174 109.822 56.8569C109.807 57.023 109.82 57.2045 109.8 57.3689C109.795 57.4023 109.76 57.3932 109.753 57.4027C109.702 57.4823 109.787 57.6148 109.793 57.6437C109.84 57.8637 109.821 58.0244 109.823 58.2293C109.823 58.2769 109.775 58.2207 109.774 58.2664C109.767 58.5038 109.771 58.7497 109.792 58.9821C109.797 59.0338 109.838 58.9862 109.842 59.0109C109.861 59.1199 109.784 59.144 109.801 59.2485C109.804 59.2705 109.839 59.2581 109.843 59.2621C109.902 59.325 109.818 59.3796 109.816 59.3958C109.79 59.6004 109.879 59.7311 109.866 59.9288C109.865 59.9524 109.821 59.8991 109.819 59.9655C109.807 60.4083 109.819 60.8766 109.854 61.3149C109.859 61.383 109.892 61.3344 109.896 61.3386C109.96 61.4085 109.875 61.4537 109.872 61.476C109.849 61.6512 109.92 61.815 109.819 61.9341C109.854 62.6764 109.797 63.4154 109.888 64.1516C109.889 64.1609 109.931 64.1442 109.932 64.1628C109.956 64.3877 109.891 64.3445 109.811 64.4933C109.791 64.5308 109.887 64.6448 109.894 64.6549C109.92 64.6917 109.983 64.6535 109.988 64.6658C110.027 64.7677 109.821 64.7511 109.821 64.8885C109.821 64.8928 109.859 64.8747 109.863 64.8863C109.875 64.9221 109.86 64.9576 109.873 64.9927C109.903 65.0729 110.003 65.1015 109.945 65.224C109.937 65.2395 109.821 65.2159 109.826 65.3385C109.828 65.3874 109.826 65.6039 109.834 65.6645C109.842 65.7251 109.879 65.6835 109.881 65.6879C109.931 65.8511 109.951 65.7892 110.025 65.871C110.099 65.9528 109.923 65.9301 109.904 65.9635C109.884 65.9969 109.925 66.1166 109.94 66.146C109.954 66.1754 109.978 66.1387 109.986 66.1648C110.039 66.3382 109.899 66.2409 109.871 66.2981C109.805 66.4327 109.935 66.5376 109.948 66.6609C109.951 66.6942 109.922 66.667 109.919 66.6967C109.908 66.8143 109.949 66.8851 109.912 67.0189C109.906 67.0408 109.828 67.149 109.885 67.2191C109.893 67.229 109.926 67.2008 109.933 67.2509C109.944 67.3258 109.951 67.4608 109.94 67.5413C109.932 67.6007 109.879 67.5326 109.895 67.6074C109.903 67.6406 109.934 67.579 109.945 67.6415C109.956 67.7036 109.955 67.8625 109.954 67.923C109.953 67.9833 109.912 67.9503 109.91 67.9552C109.894 67.9847 109.875 68.1005 109.875 68.1107C109.87 68.6269 109.938 69.103 109.915 69.6056C109.914 69.645 109.871 69.6188 109.87 69.6248C109.852 69.7598 109.966 69.6533 110.004 69.7477C109.917 69.734 109.933 69.7897 109.923 69.8848C109.919 69.9307 109.885 69.9057 109.882 69.9099C109.831 69.9779 109.897 70.0252 109.91 70.0374C109.96 70.0824 109.901 70.1314 109.934 70.162C109.967 70.1926 110.016 70.1222 110.015 70.2134C109.984 70.239 109.903 70.1713 109.89 70.2405C109.869 70.3481 109.868 70.4939 109.874 70.643L109.87 70.8581L110.063 70.7519C110.243 70.6378 110.422 70.5075 110.527 70.4423C110.705 70.3317 110.767 70.3028 110.867 70.232C111.048 70.1041 111.008 70.1966 111.14 70.1519C111.273 70.107 111.141 70.0123 111.143 69.9749C111.143 69.9377 111.178 69.9554 111.19 69.9282C111.202 69.9011 111.147 69.9084 111.192 69.8744C111.238 69.8405 111.4 69.8121 111.434 69.8308C111.506 69.8707 111.483 69.9695 111.599 69.8722C111.606 69.8665 111.562 69.8468 111.589 69.8269C111.801 69.67 112.036 69.5324 112.249 69.3787C112.278 69.3575 112.229 69.3361 112.246 69.3233C112.42 69.1903 112.389 69.2925 112.533 69.3029C112.456 69.2229 112.481 69.1328 112.624 69.0495C112.709 68.9994 112.718 69.0487 112.791 69.0453C112.812 69.0443 112.857 68.9811 112.879 68.9939C112.952 69.0356 112.935 69.139 113.066 69.0257C113.072 69.0207 113.032 68.9982 113.053 68.9832C113.19 68.886 113.245 68.9416 113.406 68.8592C113.532 68.7946 113.727 68.6287 113.863 68.5415C113.8 68.4382 113.946 68.3861 114.041 68.4276C114.13 68.3723 114.23 68.3199 114.312 68.2593C114.34 68.2384 114.303 68.2195 114.305 68.214C114.333 68.1288 114.413 68.1765 114.435 68.168C114.662 68.0724 114.804 67.9192 115.037 67.8546C115.045 67.8523 115.099 67.9185 115.122 67.834C115.123 67.8283 115.037 67.8337 115.131 67.7762C115.225 67.7186 115.382 67.5759 115.533 67.5334C115.57 67.5231 115.685 67.5356 115.723 67.4518C115.728 67.4405 115.707 67.4251 115.713 67.4062C115.732 67.3458 115.796 67.4068 115.807 67.3168C115.819 67.2267 115.89 67.1228 116.049 67.0891C116.054 67.0879 116.119 67.1281 116.16 67.103C116.226 67.0628 116.314 66.9958 116.384 66.9558C116.418 66.9367 116.418 66.9854 116.424 66.9827C116.66 66.8731 116.802 66.7483 117.035 66.5952C117.077 66.567 117.233 66.5432 117.296 66.4547C117.365 66.3576 117.166 66.2352 117.406 66.153C117.503 66.1197 117.744 66.2821 117.833 66.0747C118.153 65.9285 118.399 65.7065 118.727 65.5723C118.742 65.5662 118.821 65.6043 118.853 65.5849C118.9 65.5559 118.909 65.5113 118.942 65.4897C119.08 65.3983 119.225 65.348 119.361 65.2645C119.412 65.2329 119.376 65.213 119.438 65.1753C119.499 65.1376 119.564 65.1537 119.637 65.0856C119.693 65.0339 119.709 64.915 119.788 64.8566C119.838 64.9357 119.895 64.9004 120.011 64.8621C120.033 64.8547 120.028 64.8952 120.04 64.8932C120.086 64.8856 120.108 64.8418 120.154 64.8367C120.165 64.8354 120.181 64.8628 120.191 64.8633C120.276 64.8685 120.341 64.7479 120.352 64.727C120.395 64.6474 120.447 64.6654 120.489 64.6197C120.531 64.5741 120.443 64.5979 120.497 64.5537C120.608 64.462 120.77 64.3748 120.894 64.3011C120.944 64.2719 120.931 64.3285 120.939 64.3252C121.048 64.2748 121.13 64.1751 121.23 64.2154C121.192 63.984 121.303 64.1978 121.429 64.0744C121.439 64.0646 121.402 63.9661 121.349 63.9788C121.297 63.9914 121.245 64.0587 121.171 64.074C121.154 64.0776 121.021 64.042 121.007 64.0436C120.894 64.0557 120.958 64.1973 120.958 64.2075C120.95 64.3182 120.795 64.2869 120.764 64.2963C120.623 64.3392 120.529 64.4189 120.413 64.4582C120.338 64.4841 120.28 64.4 120.229 64.4335C120.057 64.5446 120.066 64.703 119.838 64.6929C119.789 64.6908 119.769 64.5742 119.684 64.7238C119.679 64.7332 119.624 64.8573 119.543 64.8453C119.533 64.8438 119.517 64.8156 119.507 64.8185C119.437 64.8385 119.409 64.8844 119.337 64.9121C119.264 64.9397 119.175 64.97 119.104 65.0233C119.062 65.0554 119.033 65.1415 119.019 65.1669C118.978 65.2394 118.877 65.2173 118.865 65.284C118.852 65.3512 118.967 65.3756 118.882 65.463C118.836 65.3924 118.784 65.3227 118.736 65.2529C118.516 65.3837 118.311 65.5333 118.086 65.6587C118.058 65.6742 118.064 65.6187 118.034 65.6343C117.905 65.7002 117.812 65.7911 117.676 65.8548C117.571 65.9039 117.437 65.9259 117.326 65.976C117.31 66.0963 117.138 66.1578 117.03 66.2307C116.992 66.2562 117.007 66.2769 116.983 66.3004C116.892 66.3886 116.9 66.2862 116.864 66.2914C116.71 66.3141 116.796 66.4869 116.646 66.5678C116.638 66.5722 116.492 66.5384 116.475 66.5405C116.371 66.5526 116.479 66.5794 116.431 66.6161C116.342 66.6832 116.288 66.7426 116.161 66.7812C116.124 66.7924 116.014 66.7822 115.976 66.8616C115.97 66.872 115.992 66.8987 115.986 66.9043C115.881 67.0031 115.825 66.9127 115.737 66.9215C115.65 66.9304 115.58 67.0559 115.568 67.0869C115.539 67.1673 115.624 67.0819 115.63 67.0848C115.698 67.1193 115.614 67.1549 115.557 67.194C115.601 67.2895 115.514 67.3323 115.498 67.2343C115.496 67.2235 115.548 67.2051 115.557 67.194C115.454 67.1356 115.355 67.1772 115.302 67.3187C115.277 67.385 115.348 67.4044 115.194 67.4711C115.124 67.5014 115.113 67.4245 115.046 67.4409C114.892 67.4783 114.754 67.6354 114.612 67.7048C114.561 67.73 114.589 67.6681 114.554 67.6841C114.459 67.7266 114.395 67.7978 114.297 67.8366C114.288 67.8401 114.288 67.7929 114.259 67.8086C114.045 67.9268 113.873 68.0563 113.652 68.1847C113.546 68.2468 113.343 68.3375 113.235 68.4054C113.046 68.5229 112.84 68.7112 112.669 68.7933C112.557 68.847 112.56 68.7978 112.5 68.7999C112.384 68.8038 112.277 68.9787 112.263 69.0039C112.263 69.0047 112.36 68.96 112.321 69.0067C112.315 69.0613 112.264 69.0035 112.263 69.0039C112.254 69.0204 112.075 69.1347 112.034 69.1489C112.012 69.1567 112.004 69.1164 111.993 69.1211C111.729 69.2328 111.478 69.3665 111.238 69.5263C111.234 69.5295 111.262 69.5635 111.253 69.5706C111.118 69.6708 110.999 69.6779 110.864 69.7192C110.729 69.7605 110.64 69.8242 110.607 69.9298C110.512 69.9735 110.4 70.0766 110.336 70.1369C110.272 70.1971 110.219 70.1295 110.211 70.1318C110.042 70.1838 109.947 70.2569 109.827 70.3428L110.347 70.643C110.342 70.5894 110.337 70.532 110.335 70.467C110.331 70.351 110.343 70.1211 110.352 69.9955C110.36 69.8963 110.34 69.8366 110.353 69.7451C110.355 69.7328 110.392 69.7453 110.394 69.7415C110.439 69.6395 110.347 69.6885 110.33 69.6674C110.27 69.5911 110.238 69.5439 110.266 69.4132C110.273 69.3831 110.406 69.2953 110.414 69.2404C110.424 69.169 110.376 69.1959 110.387 69.1211C110.388 69.1148 110.418 69.1161 110.417 69.0699C110.411 68.8557 110.394 68.6221 110.397 68.3995C110.397 68.3691 110.444 68.4081 110.445 68.3641C110.45 68.1579 110.449 67.932 110.427 67.7311C110.421 67.6816 110.389 67.7126 110.379 67.7019C110.32 67.636 110.405 67.5426 110.407 67.5272C110.448 67.1594 110.371 66.8779 110.408 66.5031C110.41 66.4827 110.501 66.3256 110.423 66.2556C110.418 66.2508 110.337 66.1814 110.392 66.1201C110.396 66.1163 110.437 66.1595 110.433 66.0841C110.429 66.0087 110.456 65.8874 110.411 65.7838C110.396 65.751 110.316 65.6734 110.38 65.5756C110.385 65.5692 110.529 65.4181 110.429 65.3642C110.413 65.3555 110.308 65.3646 110.362 65.2478C110.372 65.2255 110.396 65.266 110.41 65.2072C110.433 65.1171 110.405 64.9978 110.452 64.8871C110.46 64.8677 110.532 64.7855 110.477 64.7196C110.469 64.7093 110.434 64.7289 110.43 64.6941C110.411 64.5285 110.434 64.3551 110.41 64.187C110.401 64.1274 110.344 64.1578 110.329 64.0958C110.314 64.0337 110.299 63.9086 110.325 63.8436C110.351 63.7787 110.442 63.8496 110.449 63.7523C110.481 63.3291 110.428 62.9099 110.42 62.4874C110.419 62.4247 110.451 62.4766 110.452 62.3843C110.454 62.0438 110.485 61.4559 110.416 61.1604C110.36 60.9237 110.318 61.2216 110.296 61.0407C110.285 60.9534 110.391 60.8589 110.394 60.8379C110.428 60.632 110.381 60.4889 110.395 60.3036C110.398 60.2654 110.441 60.3029 110.443 60.2703C110.45 60.1591 110.431 60.0422 110.435 59.9359C110.436 59.8882 110.469 59.897 110.467 59.8531C110.461 59.7481 110.447 59.6553 110.417 59.5529C110.414 59.5436 110.373 59.6065 110.372 59.5288C110.369 59.4031 110.339 59.2471 110.37 59.1024C110.38 59.0595 110.454 59.0578 110.403 58.9656C110.392 58.9462 110.302 58.9709 110.38 58.8635C110.393 58.8454 110.497 58.6649 110.43 58.5763C110.412 58.5529 110.339 58.4933 110.35 58.4416C110.352 58.4346 110.392 58.4627 110.396 58.4199C110.409 58.2692 110.405 58.1112 110.418 57.9564C110.421 57.9151 110.462 57.9766 110.466 57.915C110.477 57.7456 110.466 57.534 110.453 57.3683C110.448 57.3072 110.414 57.3494 110.41 57.3449C110.349 57.2735 110.432 57.2312 110.436 57.2075C110.465 57.0599 110.426 56.9475 110.437 56.8115C110.439 56.774 110.478 56.8006 110.482 56.7931C110.483 56.7908 110.484 56.7887 110.485 56.7866L109.758 57.2064C109.803 57.2639 109.79 57.1798 109.835 57.1971C109.965 57.2468 110.096 57.3262 110.214 57.4C110.257 57.4271 110.185 57.4378 110.224 57.4617C110.455 57.604 110.701 57.7412 110.943 57.8518C110.988 57.8726 110.979 57.8267 110.992 57.8249C111.081 57.8124 111.134 57.9308 111.152 57.9491C111.23 58.0327 111.282 58.0272 111.363 58.0807C111.759 58.3423 112.276 58.6168 112.669 58.8293C113.181 59.1064 113.589 59.3035 114.066 59.5887C114.096 59.6068 114.042 59.6292 114.068 59.6453C114.403 59.8515 114.747 60.0291 115.081 60.2375C115.108 60.2545 115.046 60.2694 115.089 60.2981C115.178 60.357 115.296 60.4223 115.396 60.4639C115.445 60.4842 115.403 60.4163 115.451 60.4374C115.565 60.4866 115.681 60.5498 115.786 60.619C115.831 60.6486 115.739 60.6471 115.799 60.6824C116.209 60.9242 116.609 61.1645 117.055 61.3542C117.085 61.3672 117.156 61.3024 117.208 61.3526C117.2 61.3773 117.185 61.403 117.173 61.4277C117.765 61.7866 118.375 62.1018 118.979 62.4448C119.004 62.4592 118.936 62.476 118.985 62.5042C119.27 62.6676 119.539 62.8385 119.854 62.9645C119.885 62.9771 119.913 62.8946 119.991 62.9548C120.005 62.9655 120.127 63.0493 120.151 63.0845C120.154 63.0895 120.111 63.1105 120.152 63.1353C120.388 63.2789 120.644 63.4161 120.895 63.5331C120.936 63.5519 120.916 63.4914 120.945 63.5045C121.152 63.5976 121.348 63.7481 121.553 63.8223C121.691 63.8719 121.682 63.7816 121.784 63.7574C121.798 63.754 121.876 63.7972 121.901 63.7631C121.965 63.6775 121.985 63.5556 122.057 63.467C122.072 63.4478 122.162 63.5302 122.131 63.444C122.128 63.4382 122.063 63.378 122.054 63.3501C122.048 63.3308 122.093 63.3072 122.076 63.2768C122.058 63.2464 122.011 63.2607 121.978 63.2177C121.945 63.1745 121.989 63.1434 121.905 63.0883ZM110.047 70.4076C109.998 70.4826 109.914 70.3589 110.006 70.347C110.01 70.3466 110.049 70.4038 110.047 70.4076ZM118.368 65.6303C118.312 65.7393 118.202 65.6907 118.24 65.61C118.277 65.5294 118.386 65.5972 118.368 65.6303ZM119.324 65.1344C119.245 65.2401 119.122 65.0659 119.256 65.0382C119.264 65.0365 119.328 65.1283 119.324 65.1344ZM121.487 63.562C121.489 63.5609 121.545 63.5912 121.546 63.5937C121.551 63.6519 121.438 63.5911 121.487 63.562ZM120.274 64.6464C120.255 64.6901 120.145 64.7159 120.167 64.6615C120.186 64.6178 120.297 64.5919 120.274 64.6464ZM110.021 66.6642C110.019 66.6629 110.017 66.617 110.029 66.6179C110.07 66.621 110.058 66.685 110.021 66.6642ZM121.845 63.7419C121.617 63.8827 121.564 64.1156 121.807 63.9527C121.851 63.9231 121.681 63.9612 121.731 63.9139C121.823 63.8275 121.949 63.8819 122.028 63.768C122.042 63.7473 121.858 63.7335 121.845 63.7419C121.845 63.7419 121.845 63.7419 121.845 63.7419ZM110.097 70.586C110.097 70.5885 110.042 70.6219 110.04 70.621C109.987 70.5971 110.096 70.5297 110.097 70.586ZM109.928 63.9813C109.924 63.9778 109.92 63.8301 109.924 63.8252C110.002 63.7482 110.01 64.0468 109.928 63.9813ZM113.864 68.5375C113.948 68.5441 114.023 68.5074 114.041 68.4278C113.983 68.4651 113.923 68.5002 113.864 68.5375Z" fill="black"/>
<path d="M3.12256 63.1568C3.32746 63.0306 3.61085 62.8925 3.8303 62.795C3.89905 62.7644 3.87833 62.8058 3.92635 62.7857C4.02027 62.7464 4.09697 62.6899 4.19077 62.6529C4.22192 62.6408 4.20569 62.6974 4.23789 62.6838C4.41422 62.6091 4.56754 62.5136 4.74145 62.4293C5.59809 62.0139 6.42702 61.5814 7.282 61.1386C7.56389 60.9926 7.92112 60.8418 8.20123 60.6706C8.23391 60.6506 8.19627 60.6291 8.20122 60.623C8.27937 60.5276 8.28152 60.6111 8.35177 60.5842C8.63046 60.4772 8.92126 60.323 9.16474 60.1745C9.26827 60.1112 9.12657 60.1049 9.25339 60.0828C9.26217 60.0812 9.25383 60.1302 9.28502 60.118C9.35573 60.0903 9.47802 60.0159 9.53082 59.9907C9.63268 59.9424 9.64885 59.9332 9.74262 59.8827C9.87096 59.8141 10.0324 59.7485 10.1653 59.6662C10.1937 59.6485 10.1357 59.6343 10.1792 59.6029C10.2227 59.5715 10.348 59.5073 10.3942 59.493C10.4404 59.4786 10.4377 59.516 10.4486 59.5183C10.5384 59.5389 10.6411 59.3869 10.6585 59.3751C10.9772 59.1614 11.288 59.0473 11.6029 58.876C11.842 58.7459 12.0902 58.593 12.3188 58.4712C12.5912 58.3263 12.8314 58.2205 13.093 58.0741C13.1206 58.0587 13.0655 58.035 13.0992 58.0161C13.4573 57.8152 13.8179 57.6251 14.1923 57.458C14.2299 57.4412 14.2032 57.5028 14.2419 57.4883C14.4785 57.3985 14.8661 57.2809 14.9109 57.0514C15.0635 56.9765 15.2481 56.8844 15.399 56.8438C15.4962 56.8176 15.4342 56.9026 15.5307 56.8283C15.5525 56.8115 15.5027 56.7937 15.5368 56.7712C15.5767 56.745 15.6186 56.72 15.6614 56.6955L15.9289 56.5428L15.9355 56.8584C15.9383 56.9867 15.9357 57.1184 15.9505 57.2409C15.9547 57.2754 15.9901 57.266 15.9965 57.2757C16.0481 57.3579 15.9628 57.4946 15.9566 57.5244C15.9103 57.7513 15.9285 57.917 15.9274 58.1284C15.9271 58.1775 15.9747 58.1195 15.9761 58.1667C15.9829 58.4115 15.9788 58.6651 15.9577 58.9049C15.9529 58.9582 15.9124 58.9091 15.9081 58.9346C15.8893 59.047 15.9658 59.0719 15.9493 59.1797C15.9459 59.2024 15.9112 59.1896 15.9074 59.1937C15.8476 59.2586 15.9323 59.3149 15.9342 59.3316C15.9597 59.5426 15.8713 59.6775 15.8838 59.8814C15.8854 59.9057 15.9293 59.8507 15.9311 59.9193C15.9432 60.376 15.9311 60.859 15.896 61.3111C15.8906 61.3814 15.8577 61.3312 15.8536 61.3356C15.7901 61.4077 15.8752 61.4544 15.8784 61.4773C15.9015 61.6581 15.8301 61.827 15.9314 61.9498C15.8963 62.7155 15.9532 63.4777 15.8624 64.2371C15.8614 64.2468 15.8195 64.2295 15.8175 64.2487C15.794 64.4807 15.8591 64.4362 15.9388 64.5896C15.9588 64.6283 15.8626 64.7459 15.8556 64.7563C15.8296 64.7942 15.7673 64.7549 15.7623 64.7676C15.7228 64.8726 15.9289 64.8555 15.9289 64.9972C15.9286 65.0017 15.8907 64.983 15.8869 64.9949C15.875 65.0319 15.8901 65.0685 15.8771 65.1047C15.8468 65.1875 15.7467 65.2169 15.805 65.3433C15.8125 65.3593 15.9295 65.3349 15.9239 65.4614C15.9216 65.5119 15.9236 65.7351 15.9161 65.7977C15.9085 65.8602 15.8708 65.8173 15.8692 65.8218C15.8194 65.9902 15.7987 65.9263 15.725 66.0107C15.6515 66.095 15.8267 66.0717 15.8463 66.106C15.8658 66.1405 15.8247 66.264 15.8104 66.2943C15.7961 66.3246 15.7722 66.2868 15.7641 66.3138C15.7112 66.4926 15.8511 66.3923 15.8789 66.4512C15.9448 66.5901 15.8148 66.6983 15.802 66.8254C15.7986 66.8598 15.8282 66.8317 15.831 66.8624C15.8415 66.9837 15.801 67.0567 15.8382 67.1947C15.8442 67.2173 15.9224 67.3289 15.865 67.4012C15.8568 67.4114 15.8244 67.3823 15.8171 67.434C15.8062 67.5113 15.7992 67.6505 15.81 67.7335C15.818 67.7948 15.8714 67.7246 15.8548 67.8017C15.8474 67.836 15.8162 67.7725 15.8049 67.8369C15.7936 67.901 15.7949 68.0649 15.796 68.1272C15.7971 68.1895 15.8376 68.1554 15.8403 68.1604C15.8559 68.1909 15.8755 68.3103 15.8754 68.3209C15.8804 68.8534 15.8121 69.3444 15.8347 69.8629C15.8364 69.9035 15.8791 69.8764 15.8798 69.8826C15.8977 70.0219 15.7842 69.9121 15.7462 70.0094C15.8328 69.9953 15.8171 70.0528 15.8266 70.1509C15.8313 70.1982 15.8648 70.1724 15.8683 70.1767C15.9192 70.2468 15.8534 70.2957 15.8399 70.3082C15.7904 70.3547 15.8489 70.4052 15.8158 70.4368C15.783 70.4684 15.7343 70.3957 15.7349 70.4898C15.7659 70.5162 15.847 70.4463 15.8601 70.5178C15.8706 70.5747 15.876 70.642 15.878 70.7148L15.8824 70.9273L15.6889 70.8273C15.4462 70.7039 15.1588 70.5015 15.011 70.4152C14.8241 70.3062 14.76 70.2779 14.6546 70.2078C14.4643 70.0813 14.5089 70.174 14.3715 70.1307C14.2338 70.0872 14.365 69.9901 14.3623 69.9524C14.3599 69.9149 14.3251 69.9333 14.3115 69.906C14.2981 69.8788 14.3556 69.8855 14.3075 69.8519C14.2593 69.8182 14.0921 69.7917 14.058 69.8111C13.986 69.8521 14.0139 69.9514 13.8905 69.8548C13.8835 69.8492 13.9274 69.8288 13.8994 69.8091C13.6763 69.6538 13.4306 69.5182 13.2062 69.3661C13.1753 69.3451 13.2251 69.3229 13.2074 69.3103C13.0231 69.1786 13.0588 69.2811 12.9118 69.2935C12.9877 69.2119 12.9593 69.1214 12.8096 69.0393C12.7197 68.99 12.7127 69.0398 12.6385 69.0373C12.6163 69.0366 12.5679 68.9735 12.5458 68.9867C12.4731 69.0296 12.4945 69.1335 12.3553 69.0211C12.3492 69.0161 12.3897 68.993 12.3674 68.9781C12.2234 68.882 12.1691 68.9387 12.001 68.8578C11.8691 68.7943 11.6629 68.6297 11.5203 68.5436C11.5813 68.4387 11.4299 68.3881 11.334 68.4312C11.2408 68.3766 11.1361 68.3251 11.0499 68.2651C11.0202 68.2445 11.0577 68.2249 11.0555 68.2194C11.0229 68.134 10.9429 68.183 10.9209 68.1747C10.6841 68.0814 10.5327 67.9289 10.2922 67.8668C10.2836 67.8646 10.2312 67.932 10.204 67.8472C10.2023 67.8415 10.2906 67.8458 10.1924 67.7891C10.0941 67.7323 9.92785 67.5906 9.77088 67.5497C9.73291 67.5397 9.61558 67.5538 9.57313 67.4699C9.56754 67.4586 9.58899 67.4428 9.58233 67.4239C9.56054 67.3633 9.49682 67.4256 9.4817 67.335C9.46657 67.2445 9.38914 67.1408 9.2258 67.1088C9.22066 67.1077 9.15542 67.149 9.11205 67.1242C9.04285 67.0846 8.95014 67.0182 8.8768 66.9789C8.84167 66.9601 8.84407 67.0091 8.83763 67.0064C8.59098 66.8991 8.44125 66.7753 8.19678 66.624C8.152 66.5962 7.99185 66.5742 7.92391 66.4858C7.84924 66.389 8.04847 66.2631 7.79916 66.1834C7.69868 66.1511 7.4587 66.3178 7.35952 66.11C7.02595 65.9668 6.7653 65.7464 6.424 65.6154C6.40867 65.6095 6.3286 65.6489 6.29541 65.6298C6.2462 65.6012 6.23502 65.5564 6.2004 65.535C6.05575 65.4447 5.90499 65.3959 5.76297 65.3136C5.70901 65.2824 5.74496 65.2619 5.68061 65.2247C5.61628 65.1875 5.55064 65.2046 5.47291 65.1369C5.41428 65.0856 5.39275 64.9661 5.30938 64.9082C5.26138 64.9885 5.20142 64.9537 5.08143 64.9166C5.05835 64.9095 5.06512 64.9502 5.0534 64.9483C5.00535 64.9413 4.98116 64.8975 4.93443 64.8929C4.92309 64.8917 4.90741 64.9195 4.89728 64.9201C4.81054 64.9265 4.73889 64.8058 4.72667 64.785C4.67961 64.7054 4.62721 64.7241 4.58265 64.6786C4.53818 64.6332 4.62917 64.656 4.57222 64.6122C4.45414 64.5213 4.28556 64.4356 4.15496 64.3629C4.10276 64.3341 4.11816 64.391 4.11021 64.3877C3.99672 64.3384 3.90881 64.239 3.80822 64.281C3.83788 64.0473 3.73273 64.2642 3.59885 64.1414C3.58835 64.1317 3.62238 64.0321 3.67648 64.0441C3.73058 64.0562 3.7861 64.1233 3.86241 64.1377C3.88046 64.1412 4.01502 64.1036 4.02986 64.105C4.14604 64.1157 4.08535 64.2592 4.08627 64.2694C4.0989 64.3809 4.25662 64.3474 4.28844 64.3564C4.43403 64.3978 4.53386 64.4769 4.65368 64.515C4.73197 64.5402 4.78741 64.4547 4.84166 64.4877C5.02203 64.5974 5.01906 64.7571 5.25231 64.744C5.30226 64.7413 5.31806 64.6235 5.41052 64.7731C5.41632 64.7825 5.47779 64.9068 5.55945 64.8937C5.56971 64.892 5.58494 64.8635 5.59576 64.8663C5.66803 64.8855 5.69832 64.9313 5.7738 64.9583C5.84927 64.9853 5.94172 65.0145 6.01592 65.0674C6.06066 65.0991 6.09331 65.1855 6.10918 65.2109C6.1536 65.2834 6.25627 65.2599 6.27177 65.3269C6.2875 65.3943 6.17094 65.4204 6.26099 65.5074C6.30505 65.4357 6.35527 65.3648 6.40194 65.2939C6.63286 65.4228 6.84847 65.5709 7.08335 65.6943C7.1125 65.7095 7.10453 65.6537 7.13634 65.669C7.27048 65.7337 7.36926 65.8241 7.51094 65.8865C7.62069 65.9346 7.75858 65.9551 7.87406 66.0041C7.89514 66.125 8.07354 66.1848 8.18761 66.2568C8.22759 66.282 8.21256 66.3031 8.23802 66.3264C8.33437 66.4141 8.32287 66.3111 8.35972 66.3159C8.51772 66.3367 8.43705 66.5119 8.59345 66.5915C8.60171 66.5957 8.75049 66.5599 8.76729 66.5617C8.87453 66.5726 8.7647 66.6009 8.81576 66.6373C8.90896 66.7037 8.96663 66.7629 9.09808 66.8002C9.13648 66.8109 9.24891 66.7992 9.29162 66.8787C9.29725 66.8892 9.27625 66.9163 9.28232 66.9219C9.39362 67.02 9.44782 66.9282 9.53767 66.936C9.62754 66.9438 9.70463 67.0694 9.71734 67.1004C9.7509 67.181 9.66039 67.0961 9.65458 67.0991C9.58601 67.1347 9.6731 67.1695 9.73305 67.2082C9.69223 67.3049 9.78266 67.3469 9.79539 67.248C9.79663 67.2371 9.74332 67.2192 9.73305 67.2082C9.83685 67.148 9.93921 67.1887 9.99963 67.3305C10.0279 67.3969 9.95593 67.4174 10.116 67.4826C10.1886 67.5122 10.1965 67.4346 10.2663 67.4502C10.4257 67.486 10.5732 67.6424 10.7206 67.7105C10.7741 67.7352 10.7425 67.6733 10.7797 67.689C10.8786 67.7305 10.9471 67.8013 11.0484 67.8392C11.0576 67.8426 11.0565 67.7951 11.086 67.8105C11.3102 67.9269 11.4908 68.055 11.7221 68.1816C11.8338 68.2427 12.0448 68.3314 12.1586 68.3985C12.3559 68.5144 12.5745 68.7014 12.7531 68.7819C12.8695 68.8345 12.8646 68.785 12.926 68.7864C13.0446 68.7889 13.1619 68.9636 13.1768 68.9888C13.1772 68.9896 13.0762 68.9458 13.1175 68.9924C13.1264 69.0473 13.1756 68.9884 13.1768 68.9888C13.1866 69.0053 13.3746 69.1181 13.4166 69.1319C13.4394 69.1394 13.4465 69.0988 13.458 69.1034C13.7321 69.2125 13.9946 69.3439 14.2469 69.5018C14.2512 69.505 14.2234 69.5396 14.2336 69.5466C14.3754 69.6458 14.4977 69.6514 14.6375 69.6913C14.7772 69.7311 14.871 69.7942 14.9089 69.9001C15.0075 69.9429 15.1266 70.0454 15.1946 70.1052C15.2626 70.1651 15.314 70.0963 15.3217 70.0985C15.5604 70.167 15.6603 70.2767 15.8777 70.4034C15.8874 70.4091 15.898 70.4151 15.9095 70.4214L15.416 70.7148C15.4169 70.5883 15.4059 70.3824 15.3975 70.2651C15.39 70.1627 15.4099 70.1011 15.3972 70.0068C15.3955 69.994 15.3576 70.0069 15.3562 70.003C15.3109 69.8978 15.4034 69.9484 15.42 69.9266C15.4801 69.8479 15.5121 69.7992 15.4838 69.6644C15.4773 69.6334 15.3441 69.5428 15.3363 69.4862C15.3264 69.4125 15.3742 69.4403 15.3626 69.3632C15.3616 69.3566 15.3322 69.3579 15.3335 69.3103C15.3391 69.0893 15.3563 68.8484 15.3533 68.6188C15.353 68.5874 15.3063 68.6276 15.3051 68.5823C15.2996 68.3696 15.3013 68.1365 15.3232 67.9293C15.3287 67.8783 15.3614 67.9103 15.3711 67.8992C15.4299 67.8313 15.3445 67.7349 15.3429 67.719C15.3018 67.3396 15.3791 67.0493 15.3423 66.6627C15.3402 66.6416 15.2486 66.4796 15.3271 66.4073C15.3324 66.4024 15.4127 66.3309 15.3578 66.2677C15.3543 66.2637 15.313 66.3083 15.3172 66.2305C15.3214 66.1528 15.2938 66.0276 15.3392 65.9207C15.3535 65.8869 15.4337 65.8069 15.3698 65.706C15.3653 65.6994 15.2209 65.5436 15.3205 65.4879C15.3369 65.4789 15.4424 65.4884 15.3884 65.3679C15.3779 65.3449 15.3543 65.3866 15.3396 65.326C15.317 65.2331 15.3453 65.11 15.2983 64.9958C15.2899 64.9758 15.2183 64.891 15.2727 64.823C15.2812 64.8124 15.3164 64.8326 15.3204 64.7967C15.3393 64.6259 15.3157 64.447 15.3401 64.2736C15.3486 64.2122 15.4056 64.2436 15.4208 64.1796C15.4361 64.1155 15.4507 63.9865 15.4247 63.9195C15.3987 63.8525 15.308 63.9257 15.3007 63.8253C15.2692 63.3888 15.3224 62.9564 15.3302 62.5205C15.3313 62.4559 15.2989 62.5094 15.2983 62.4142C15.2958 62.063 15.2654 61.4565 15.3344 61.1518C15.3897 60.9076 15.4317 61.2149 15.4542 61.0283C15.4649 60.9382 15.3594 60.8408 15.3561 60.8191C15.3224 60.6067 15.3691 60.4592 15.3548 60.268C15.3518 60.2286 15.3091 60.2673 15.307 60.2337C15.2996 60.1189 15.3187 59.9984 15.3152 59.8887C15.3135 59.8395 15.2808 59.8486 15.2834 59.8033C15.289 59.695 15.3028 59.5993 15.3334 59.4937C15.3361 59.4841 15.3768 59.549 15.3783 59.4688C15.3806 59.3392 15.4108 59.1782 15.3796 59.029C15.3702 58.9847 15.2956 58.983 15.3472 58.8878C15.3579 58.8679 15.4475 58.8934 15.3701 58.7825C15.3572 58.7639 15.2528 58.5777 15.3201 58.4863C15.3378 58.4622 15.4112 58.4007 15.3996 58.3474C15.3978 58.3402 15.3577 58.3691 15.3538 58.325C15.3407 58.1696 15.345 58.0066 15.3324 57.8469C15.329 57.8043 15.2875 57.8678 15.2837 57.8042C15.2733 57.6294 15.2838 57.4112 15.2968 57.2402C15.3017 57.1772 15.336 57.2208 15.3398 57.2162C15.4006 57.1425 15.3185 57.0989 15.3137 57.0744C15.2988 56.9955 15.3021 56.9263 15.3072 56.8584L15.9614 57.2475C15.9038 57.2734 15.8463 57.2974 15.7893 57.334C15.7566 57.3548 15.7994 57.3761 15.7943 57.3829C15.7404 57.451 15.7591 57.3608 15.711 57.3781C15.5759 57.4265 15.4386 57.5047 15.315 57.5776C15.2697 57.6044 15.3433 57.616 15.3024 57.6396C15.0604 57.78 14.8029 57.915 14.5511 58.0233C14.5036 58.0437 14.5154 57.9975 14.5021 57.9956C14.4106 57.9818 14.3519 58.1004 14.3335 58.1186C14.2499 58.2018 14.1965 58.1956 14.1114 58.2484C13.696 58.5068 13.1565 58.7767 12.7454 58.9857C12.2098 59.2582 11.7844 59.4515 11.2852 59.7326C11.2535 59.7504 11.3079 59.7738 11.2809 59.7896C10.9302 59.9929 10.571 60.1674 10.2207 60.3731C10.1919 60.3899 10.2552 60.4057 10.2097 60.434C10.1165 60.4922 9.99329 60.5564 9.88912 60.597C9.83836 60.6169 9.88405 60.549 9.83332 60.5697C9.71516 60.6178 9.59425 60.6799 9.48321 60.7483C9.436 60.7775 9.53099 60.7771 9.46795 60.812C9.03897 61.0502 8.61928 61.2871 8.15575 61.4725C8.12397 61.4852 8.05402 61.419 7.9989 61.4689C8.00626 61.4938 8.0208 61.52 8.03169 61.545C7.41109 61.8989 6.77475 62.2085 6.14305 62.5462C6.11642 62.5604 6.18546 62.5782 6.13402 62.606C5.83635 62.7669 5.55404 62.9356 5.22687 63.0585C5.19444 63.0707 5.16914 62.9873 5.08638 63.0469C5.07182 63.0575 4.94333 63.1403 4.91755 63.1754C4.91418 63.1804 4.95765 63.2022 4.91505 63.2267C4.66713 63.3683 4.39995 63.5031 4.13795 63.6177C4.09563 63.6362 4.11839 63.5755 4.08807 63.5883C3.87316 63.6794 3.6665 63.8285 3.45302 63.9006C3.31005 63.9487 3.32336 63.858 3.21948 63.8322C3.2048 63.8286 3.12317 63.8711 3.09892 63.8365C3.03773 63.7495 3.02165 63.6265 2.95179 63.5363C2.93681 63.5168 2.841 63.5986 2.87712 63.5122C2.87973 63.5063 2.94895 63.4466 2.95879 63.4186C2.96569 63.3992 2.92102 63.3748 2.94008 63.3444C2.95915 63.3141 3.00644 63.3291 3.04211 63.2862C3.07763 63.2431 3.0344 63.2112 3.12256 63.1568ZM15.5012 70.3741C15.5536 70.4491 15.6356 70.3234 15.5407 70.3126C15.5361 70.3123 15.4984 70.3704 15.5012 70.3741ZM6.79331 65.6693C6.85578 65.7783 6.9664 65.728 6.92443 65.6472C6.88244 65.5665 6.77423 65.6361 6.79331 65.6693ZM5.7959 65.1821C5.88089 65.2875 5.99943 65.1105 5.86134 65.0843C5.85334 65.0827 5.79092 65.176 5.7959 65.1821ZM3.53145 63.6393C3.52951 63.6381 3.47046 63.668 3.47001 63.6705C3.46174 63.729 3.57979 63.6692 3.53145 63.6393ZM4.80393 64.7027C4.82451 64.7466 4.93904 64.7711 4.91347 64.7166C4.89288 64.6728 4.77826 64.6482 4.80393 64.7027ZM15.729 66.8289C15.7313 66.8276 15.7333 66.7801 15.7207 66.7811C15.6801 66.7843 15.6916 66.8503 15.729 66.8289ZM3.15933 63.8119C3.39833 63.9508 3.46191 64.1847 3.20693 64.0237C3.16075 63.9945 3.3368 64.0307 3.2834 63.9837C3.18562 63.8978 3.05905 63.9542 2.97339 63.8406C2.95794 63.8199 3.14588 63.8036 3.15988 63.8119C3.1597 63.8119 3.15951 63.8119 3.15933 63.8119ZM15.4568 70.5545C15.4573 70.557 15.5141 70.59 15.5164 70.589C15.5703 70.5643 15.4559 70.4978 15.4568 70.5545ZM15.8215 64.0615C15.8257 64.0578 15.8297 63.9055 15.8258 63.9005C15.7482 63.821 15.74 64.1291 15.8215 64.0615ZM11.5195 68.5395C11.4338 68.5473 11.3558 68.5113 11.3343 68.4314C11.3953 68.4682 11.458 68.5028 11.5195 68.5395Z" fill="black"/>
<path d="M66.3858 34.4415C66.7951 35.1943 67.304 36.1955 67.6833 36.9604C67.8022 37.2 67.7158 37.0924 67.7969 37.2584C67.9554 37.583 68.1231 37.875 68.2778 38.1968C68.329 38.3035 68.2235 38.1926 68.278 38.3041C68.577 38.9146 68.8849 39.4791 69.1966 40.0931C70.7317 43.1171 72.265 46.0769 73.8413 49.1261C74.3611 50.1315 74.966 51.3678 75.5234 52.3956C75.5885 52.5155 75.5834 52.4264 75.5981 52.4479C75.8284 52.7871 75.6996 52.7017 75.8143 52.9418C76.2696 53.8946 76.8113 54.9357 77.2953 55.8286C77.5014 56.2085 77.3651 55.7908 77.5306 56.1952C77.5422 56.2233 77.4567 56.1443 77.508 56.2512C77.6244 56.4936 77.8672 56.9419 77.9612 57.1279C78.142 57.4862 78.1732 57.5449 78.349 57.8813C78.5891 58.3415 78.8584 58.8973 79.1247 59.3864C79.1817 59.4907 79.1441 59.3327 79.2382 59.4974C79.3323 59.6623 79.5622 60.1085 79.6324 60.2627C79.7026 60.417 79.6412 60.3678 79.6487 60.3977C79.7091 60.6443 80.0534 61.1193 80.0899 61.1845C80.7537 62.3744 81.2532 63.4312 81.8468 64.5636C82.2975 65.4232 82.7933 66.335 83.22 67.154C83.7283 68.1299 84.1419 68.9659 84.6413 69.9109C84.694 70.0107 84.6744 69.8717 84.7388 69.9935C85.4231 71.2874 86.0933 72.5773 86.7416 73.883C86.8066 74.014 86.6825 73.8664 86.7452 73.9984C86.9895 74.511 87.314 75.2182 87.6224 75.7654C87.8119 76.0998 87.8976 76.4282 87.9728 76.6412C88.0229 77.3265 87.6114 78.1199 87.1127 78.4487C86.7913 78.6524 87.076 78.4195 86.6884 78.6634C86.5967 78.7117 86.7376 78.6909 86.5943 78.7586C86.3349 78.8757 86.0384 78.9374 85.7416 78.9377C85.3761 78.939 85.0088 78.9398 84.6622 78.9515C84.5393 78.9557 84.5728 78.9911 84.538 78.9975C84.2452 79.0491 83.7577 78.9638 83.6515 78.9576C82.8423 78.9113 82.2514 78.9295 81.4976 78.9284C81.3227 78.9281 81.5295 78.9757 81.3611 78.9771C80.4881 78.9839 79.5838 78.9798 78.729 78.9587C78.5389 78.9539 78.7137 78.9134 78.6229 78.909C78.2222 78.8903 78.1334 78.9668 77.7492 78.9502C77.6682 78.9469 77.7138 78.9122 77.699 78.9084C77.4678 78.8486 77.2669 78.9333 77.2074 78.9352C76.455 78.9607 75.974 78.8723 75.2471 78.8848C75.1602 78.8864 75.3563 78.9303 75.1118 78.932C73.4834 78.9442 71.7611 78.9321 70.1491 78.897C69.8985 78.8916 70.0774 78.8587 70.0616 78.8546C69.8046 78.7911 69.6383 78.8762 69.5566 78.8794C68.9119 78.9024 68.3096 78.8311 67.8716 78.9324C65.1413 78.8973 62.4235 78.9541 59.7157 78.8634C59.6813 78.8623 59.743 78.8204 59.6743 78.8185C58.8473 78.795 59.0061 78.8601 58.4589 78.9397C58.321 78.9597 57.9017 78.8636 57.8646 78.8565C57.7294 78.8306 57.8696 78.7683 57.8243 78.7632C57.4497 78.7237 57.5108 78.9298 57.0055 78.9299C56.9897 78.9296 57.056 78.8916 57.0136 78.8879C56.8819 78.876 56.7512 78.8911 56.6223 78.878C56.3272 78.8478 56.2221 78.7477 55.7713 78.806C55.7143 78.8135 55.8014 78.9304 55.3503 78.9249C55.1704 78.9226 54.3743 78.9246 54.1511 78.917C53.9283 78.9095 54.0813 78.8718 54.0654 78.8702C53.4649 78.8203 53.6926 78.7997 53.3918 78.7259C53.091 78.6525 53.1744 78.8277 53.0517 78.8473C52.9289 78.8668 52.4887 78.8257 52.3805 78.8114C52.2723 78.7971 52.4072 78.7731 52.311 78.7651C51.6735 78.7122 52.0312 78.852 51.8211 78.8799C51.3259 78.9457 50.9401 78.8158 50.4867 78.803C50.364 78.7996 50.4641 78.8292 50.3549 78.832C49.9222 78.8425 49.662 78.802 49.1698 78.8392C49.0892 78.8452 48.6913 78.9234 48.4337 78.866C48.3973 78.8577 48.5009 78.8254 48.3165 78.8181C48.0411 78.8072 47.5447 78.8001 47.2486 78.811C47.03 78.819 47.2806 78.8723 47.0054 78.8558C46.8831 78.8484 47.1098 78.8171 46.88 78.8058C46.6515 78.7945 46.0671 78.7959 45.8448 78.797C45.6228 78.7981 45.7443 78.8386 45.7264 78.8413C45.6178 78.8569 45.1919 78.8764 45.1542 78.8764C43.8106 78.8799 42.541 78.8467 41.2584 78.8351C40.7067 78.8339 40.1554 78.6064 39.7612 78.2029C39.657 78.0935 39.6938 78.1956 39.6776 78.1792C39.3368 77.7769 39.6712 78.0379 39.5151 77.7236C39.4697 77.8096 39.3545 77.627 39.2486 77.2789C39.2024 77.11 39.1928 77.2093 39.1854 77.1948C39.0788 76.9419 39.1525 76.7452 39.1663 76.7018C39.2183 76.5326 39.1935 76.3405 39.2565 76.2343C39.3204 76.1333 39.2894 76.3934 39.391 76.0758C39.396 75.9752 39.2273 76.1883 39.312 75.9352C39.3321 75.8805 39.355 75.8257 39.3828 75.7681C39.8112 74.8747 40.6216 73.4509 40.9654 72.8083C41.3293 72.1282 41.4398 71.9049 41.6583 71.5121C42.0531 70.8025 41.8618 71.0381 42.0713 70.5788C42.2816 70.1183 42.2986 70.4046 42.3605 70.355C42.4217 70.3066 42.4289 70.2224 42.4856 70.1519C42.5421 70.0817 42.4724 70.2614 42.5748 70.0802C42.6772 69.8988 42.8912 69.3686 42.896 69.2878C42.906 69.117 42.7215 69.3098 43.0001 68.834C43.0162 68.8067 43.0029 68.9158 43.0627 68.8102C43.5364 67.9709 44.0025 67.0854 44.4726 66.2455C44.5372 66.1301 44.5207 66.2549 44.5587 66.188C44.9555 65.4905 44.7578 65.7106 44.89 65.2837C44.9397 65.4211 45.111 65.2365 45.3941 64.6977C45.5643 64.3739 45.4933 64.4078 45.5737 64.1828C45.5978 64.1153 45.7466 63.901 45.7488 63.8492C45.7564 63.6786 45.5714 63.8569 45.8913 63.3161C45.9054 63.2924 45.8998 63.3885 45.9461 63.3053C46.2455 62.768 46.2125 62.6677 46.5129 62.0747C46.7483 61.6099 47.2193 60.8107 47.5013 60.2888C47.603 60.3561 47.8385 59.8469 47.8699 59.6068C48.0516 59.2674 48.2404 58.8969 48.4234 58.5727C48.4863 58.4611 48.4784 58.5519 48.4892 58.5394C48.6569 58.3477 48.6625 58.1617 48.6983 58.0866C49.0889 57.2745 49.4841 56.6532 49.8297 55.8639C49.8419 55.8359 49.7902 55.753 49.9514 55.578C49.962 55.5668 49.8642 55.8361 50.0545 55.4793C50.2448 55.1225 50.6387 54.4683 50.8647 53.9529C50.9194 53.8282 51.0184 53.4921 51.1937 53.2726C51.2172 53.2434 51.2199 53.2902 51.2565 53.2495C51.374 53.1175 51.342 52.9951 51.4996 52.8502C51.6572 52.7052 51.8998 52.3591 52.1184 51.8345C52.1255 51.8178 52.1279 51.6678 52.2115 51.5106C52.345 51.2596 52.5448 50.9088 52.6821 50.6457C52.7479 50.5197 52.6685 50.5808 52.6793 50.5586C53.102 49.7015 53.4507 49.1165 53.9402 48.2175C54.03 48.0527 54.2297 47.5486 54.4383 47.2478C54.6672 46.9175 54.6592 47.376 55.0413 46.5413C55.1956 46.2046 55.1817 45.6688 55.6099 45.143C56.1785 43.986 56.793 42.9625 57.3505 41.7956C57.3756 41.7431 57.3964 41.5465 57.4607 41.426C57.5562 41.247 57.6381 41.1642 57.7073 41.037C57.9981 40.5042 58.2301 39.9988 58.5057 39.4826C58.6102 39.2866 58.6054 39.3718 58.7301 39.138C58.8547 38.9044 58.8956 38.7265 59.082 38.419C59.2229 38.1869 59.4326 37.9909 59.6094 37.6774C59.533 37.6219 59.6493 37.4039 59.8313 37.0035C59.8663 36.9266 59.7954 36.9916 59.8105 36.9544C59.871 36.8027 59.9647 36.682 60.0202 36.5369C60.0337 36.5016 60.0063 36.4852 60.0157 36.4556C60.0952 36.2026 60.3583 35.8552 60.4037 35.7956C60.5771 35.567 60.6017 35.4306 60.719 35.2471C60.8361 35.0638 60.7064 35.3617 60.834 35.1427C61.0983 34.6889 61.4066 34.0894 61.6553 33.6182C61.7543 33.43 61.6492 33.5387 61.6625 33.5113C61.684 33.4677 61.7062 33.4243 61.7286 33.3814C61.9087 33.0289 62.2053 32.795 62.3456 32.6128C62.7222 32.6518 62.5473 32.4035 63.195 32.3064C63.2469 32.3035 63.3156 32.3954 63.1402 32.4399C62.9671 32.4853 62.6901 32.5435 62.4897 32.6999C62.4337 32.7321 62.2407 33.0159 62.2229 33.0541C62.0314 33.331 61.8961 33.3065 61.8736 33.3162C61.8415 33.3394 61.8115 33.3718 61.7846 33.4107C61.6497 33.607 61.5669 33.9234 61.5278 34.011C61.3128 34.4928 61.0858 34.8789 60.9024 35.28C60.7822 35.5422 60.8591 35.6143 60.7514 35.8132C60.3932 36.4744 60.1459 36.6411 59.9259 37.3257C59.8785 37.4724 60.047 37.3902 59.7169 37.8319C59.6962 37.8596 59.4379 38.1805 59.3742 38.4108C59.3662 38.4398 59.3953 38.4539 59.3798 38.4895C59.275 38.7272 59.172 38.8684 59.0518 39.1242C58.9317 39.38 58.7904 39.6893 58.631 39.9698C58.535 40.1388 58.3659 40.3316 58.3097 40.4071C58.1501 40.62 58.0812 40.9018 57.9601 41.022C57.8381 41.1433 57.9174 40.8227 57.688 41.1882C57.7551 41.2414 57.8145 41.3138 57.8775 41.3758C57.4373 42.2095 56.9826 43.0185 56.5468 43.8581C56.4928 43.9623 56.5885 43.877 56.5317 43.9892C56.2919 44.4623 56.0483 44.8577 55.8043 45.3509C55.6156 45.7327 55.4413 46.1685 55.2453 46.5685C55.0339 46.7647 54.7561 47.3651 54.5255 47.7861C54.4448 47.9336 54.4273 47.9117 54.3644 48.0137C54.1275 48.3989 54.3009 48.2511 54.2554 48.3668C54.0597 48.8633 53.8682 48.8142 53.582 49.3704C53.5668 49.3998 53.4696 49.8062 53.4494 49.8586C53.3217 50.1919 53.3906 49.894 53.2809 50.087C53.0806 50.4394 52.9282 50.6773 52.7342 51.1122C52.6778 51.2391 52.5801 51.5632 52.4114 51.7786C52.3892 51.807 52.3683 51.7739 52.3533 51.7982C52.0846 52.2397 52.1726 52.3012 52.0677 52.579C51.9629 52.8568 51.6864 53.226 51.6246 53.2982C51.4635 53.4875 51.6901 53.1228 51.6914 53.1087C51.7063 52.9424 51.5619 53.2416 51.4393 53.4639C51.3298 53.4479 51.1706 53.7651 51.3126 53.6944C51.3284 53.6862 51.4115 53.5068 51.4393 53.4639C51.4267 53.7087 51.2573 54.0602 50.9726 54.3973C50.8392 54.555 50.8814 54.3619 50.614 54.9133C50.4927 55.1635 50.6062 55.1017 50.5097 55.3281C50.2892 55.8452 49.8918 56.4591 49.633 56.9757C49.539 57.1632 49.6687 57.0005 49.6057 57.1293C49.4387 57.4711 49.2568 57.7545 49.0929 58.0998C49.0781 58.1311 49.1539 58.0754 49.0992 58.1808C48.6855 58.9806 48.2982 59.6627 47.8612 60.4951C47.65 60.8973 47.2932 61.6271 47.0707 62.0418C46.6854 62.7606 46.1666 63.6214 45.8561 64.2452C45.6535 64.652 45.7362 64.5828 45.6707 64.7683C45.5446 65.1264 45.1495 65.6702 45.0946 65.7425C45.0929 65.7447 45.2657 65.3938 45.1502 65.5688C45.0548 65.6558 45.0964 65.7385 45.0946 65.7425C45.0586 65.79 44.6878 66.4775 44.6228 66.6186C44.5875 66.6952 44.6439 66.6716 44.6249 66.7112C44.171 67.6525 43.6941 68.5839 43.1863 69.5137C43.1769 69.5298 43.1513 69.4847 43.1297 69.5229C42.8279 70.0571 42.6929 70.4297 42.4863 70.8924C42.2796 71.3551 42.084 71.7054 41.8787 71.9357C41.7099 72.2781 41.4264 72.7476 41.2624 73.0172C41.0984 73.2869 41.1533 73.3653 41.1419 73.3907C40.7883 74.1814 40.5132 74.6014 40.0901 75.3923C40.0097 75.5426 39.9004 75.7535 39.785 75.9789C39.6341 76.2635 39.5877 76.6123 39.6106 76.8383C39.6405 77.1345 39.6805 77.3207 39.8236 77.5601C39.8437 77.5919 39.8577 77.5402 39.8646 77.5493C40.0632 77.779 39.9131 77.7077 39.9358 77.7709C40.0364 77.9862 40.124 78.1496 40.5074 78.3168C40.6001 78.3591 40.8961 78.3192 41.0514 78.3244C41.1895 78.3331 41.2008 78.3481 41.2584 78.3594C41.2943 78.3646 41.3445 78.3675 41.4379 78.3636C41.4614 78.3626 41.4565 78.3332 41.6263 78.3345C42.4143 78.3401 43.2733 78.3572 44.0922 78.3543C44.204 78.354 44.0606 78.3073 44.2222 78.3061C44.9806 78.3005 45.8117 78.3023 46.5505 78.3241C46.7323 78.3297 46.6183 78.3624 46.6578 78.3721C46.9001 78.4309 47.2438 78.3455 47.3005 78.3439C48.6532 78.3028 49.6884 78.3801 51.067 78.3433C51.1421 78.3411 51.7197 78.2496 51.9774 78.3281C51.9951 78.3333 52.2501 78.4137 52.4755 78.3587C52.4895 78.3553 52.3306 78.3139 52.6079 78.3182C52.8852 78.3224 53.3314 78.2947 53.7125 78.3402C53.8332 78.3545 54.1184 78.4347 54.4783 78.3708C54.5018 78.3663 55.0574 78.2218 55.2558 78.3215C55.2879 78.3379 55.2543 78.4434 55.6839 78.3893C55.7659 78.3788 55.6169 78.3553 55.8332 78.3406C56.1645 78.318 56.6034 78.3462 57.0107 78.2992C57.0817 78.2909 57.3841 78.2193 57.6266 78.2737C57.6646 78.2822 57.5924 78.3174 57.7205 78.3213C58.3295 78.3402 58.9673 78.3167 59.5857 78.341C59.8047 78.3496 59.6927 78.4065 59.921 78.4218C60.1494 78.437 60.6094 78.4517 60.8484 78.4257C61.0873 78.3997 60.8263 78.3089 61.1843 78.3017C62.7407 78.2701 64.2826 78.3234 65.8367 78.3312C66.0672 78.3323 65.8761 78.2999 66.2158 78.2992C67.4682 78.2968 69.6305 78.2664 70.7172 78.3354C71.5879 78.3906 70.4922 78.4327 71.1575 78.4552C71.4786 78.4659 71.826 78.3604 71.9035 78.3571C72.6607 78.3234 73.1869 78.3701 73.8684 78.3558C74.0091 78.3528 73.8711 78.31 73.9909 78.308C74.4 78.3006 74.83 78.3196 75.2209 78.3161C75.3963 78.3145 75.364 78.2818 75.5253 78.2843C75.9115 78.29 76.253 78.3037 76.6294 78.3343C76.6637 78.3371 76.4324 78.3777 76.718 78.3793C77.1804 78.3816 77.7544 78.4118 78.2863 78.3806C78.4442 78.3712 78.4504 78.2966 78.7897 78.3481C78.8608 78.3589 78.77 78.4485 79.1653 78.3711C79.2317 78.3582 79.8957 78.2538 80.2215 78.3211C80.3075 78.3388 80.5268 78.4121 80.7167 78.4006C80.7424 78.3988 80.6393 78.3587 80.7966 78.3548C81.3509 78.3417 81.9319 78.346 82.5013 78.3334C82.6534 78.33 82.4269 78.2885 82.6536 78.2847C83.2769 78.2742 84.055 78.2848 84.6645 78.2978C84.8893 78.3026 84.7339 78.337 84.7503 78.3407C85.0132 78.4016 85.1687 78.3195 85.2559 78.3147C85.4286 78.3056 85.5882 78.3032 85.7416 78.304C86.0002 78.3045 86.2385 78.2658 86.4715 78.1366C86.5642 78.0826 86.4782 78.0852 86.4951 78.0719C86.659 77.9295 86.5622 78.0759 86.681 78.0014C87.0135 77.7845 87.2609 77.3629 87.3052 76.9633C87.3202 76.8172 87.2583 76.9751 87.2685 76.8467C87.284 76.5728 87.2232 76.2953 87.0915 76.0436C86.7928 75.4706 86.4991 74.8939 86.2249 74.3362C86.144 74.1717 86.2285 74.2576 86.2179 74.2201C86.1452 73.961 85.8986 73.6547 85.851 73.5794C85.6343 73.2373 85.5889 73.0841 85.4183 72.771C84.5846 71.2421 83.6048 69.3282 82.853 67.8665C81.8733 65.9619 81.1313 64.4743 80.1755 62.6692C80.1148 62.5545 80.1344 62.692 80.0816 62.5934C79.401 61.3189 78.7569 60.0507 78.073 58.7747C78.017 58.6699 78.0574 58.842 77.9661 58.6746C77.7787 58.3313 77.5508 57.8914 77.3798 57.5346C77.2962 57.3606 77.4498 57.5722 77.3651 57.3974C77.1678 56.9905 76.9457 56.5598 76.7239 56.1518C76.6294 55.9783 76.7279 56.2632 76.6082 56.036C75.7921 54.4885 74.9877 52.9702 74.2188 51.3771C74.1661 51.2679 74.1979 51.1312 74.0627 50.9111C74.0311 50.9057 74.0051 50.9205 73.9771 50.9256C72.782 48.6766 71.64 46.4291 70.4588 44.1646C70.409 44.0691 70.4524 44.2565 70.3558 44.0718C69.7963 43.0027 69.2405 41.9711 68.7104 40.8555C68.6577 40.7449 68.7625 40.7609 68.5836 40.4472C68.5519 40.392 68.2896 39.9158 68.2079 39.8C68.1966 39.7844 68.2073 39.8907 68.125 39.7361C67.6471 38.8374 67.1601 37.8884 66.7101 36.9772C66.6375 36.8301 66.7562 36.965 66.7048 36.8601C66.3402 36.1158 65.8933 35.3326 65.56 34.6135C65.337 34.1321 65.4931 34.2718 65.4263 33.9889C65.4169 33.9489 65.266 33.6575 65.2953 33.6229C65.3687 33.5353 65.545 33.6223 65.6145 33.5123C65.6296 33.4888 65.4025 33.1117 65.5752 33.315C65.5871 33.3292 65.7522 33.6024 65.8063 33.6627C65.8438 33.7047 65.836 33.5976 65.9033 33.6882C65.9706 33.7788 65.9957 33.9039 66.0998 34.058C66.2041 34.2119 66.2095 34.1174 66.3858 34.4415ZM40.5244 74.2319C40.3528 74.4713 40.4653 74.5788 40.58 74.2828C40.5854 74.2684 40.5331 74.2195 40.5244 74.2319ZM56.8851 42.9615C56.6497 43.2686 56.6145 43.5448 56.7845 43.3301C56.9544 43.1155 56.9568 42.8679 56.8851 42.9615ZM58.678 39.4366C58.4251 39.8073 58.5803 39.9678 58.7639 39.5251C58.7747 39.4994 58.6928 39.415 58.678 39.4366ZM66.0507 35.136C66.0506 35.1315 65.9428 34.9216 65.9385 34.9176C65.8381 34.8284 66.0536 35.2479 66.0507 35.136ZM60.453 35.9367C60.363 36.0466 60.2064 36.4168 60.3182 36.2802C60.4082 36.1703 60.565 35.7998 60.453 35.9367ZM50.4745 78.73C50.4791 78.7323 50.6482 78.7343 50.6448 78.7217C50.6333 78.6811 50.398 78.6925 50.4745 78.73ZM64.9206 32.9757C64.5979 32.6187 64.2327 32.4449 64.1114 32.3634C63.9806 32.2965 64.1359 32.2298 64.627 32.522C64.8 32.6248 64.2183 32.3614 64.4371 32.4962C64.819 32.7339 65.1356 32.8946 65.3206 33.3456C65.3589 33.414 64.9694 32.9984 64.9193 32.9747C64.9197 32.975 64.9202 32.9754 64.9206 32.9757ZM40.2873 74.2973C40.2828 74.3015 40.1725 74.508 40.1717 74.5139C40.1549 74.6482 40.3771 74.2322 40.2873 74.2973ZM60.3421 78.8225C60.355 78.8267 60.8983 78.8306 60.916 78.8268C61.1994 78.7491 60.1011 78.7409 60.3421 78.8225ZM47.5085 60.282C47.5848 60.0336 47.7217 59.7603 47.8693 59.6078C47.7487 59.8312 47.6296 60.0573 47.5085 60.282Z" fill="black"/>
<circle cx="63" cy="49.001" r="1" fill="black"/>
<path d="M72.4791 71.0389C72.4748 71.3565 72.4124 71.7681 72.3372 72.0752C72.3139 72.1713 72.2967 72.1173 72.2791 72.183C72.2442 72.3106 72.2309 72.4351 72.189 72.5597C72.1749 72.6009 72.1465 72.5388 72.1326 72.582C72.0566 72.8182 72.0029 73.0465 71.9157 73.2825C71.4859 74.4407 70.8518 75.4949 70.0056 76.4007C69.7269 76.7007 69.3421 77.0144 69.0261 77.2913C68.9893 77.3238 69.0352 77.334 69.0298 77.3423C68.944 77.4708 68.9357 77.382 68.8543 77.433C68.5305 77.6351 68.1803 77.8653 67.8716 78.0597C67.7401 78.1421 67.9117 78.1289 67.7548 78.17C67.7439 78.1729 67.7593 78.1196 67.7201 78.1366C67.6314 78.1755 67.4733 78.2663 67.4048 78.2967C67.2732 78.3553 67.252 78.3657 67.1285 78.4225C66.959 78.4994 66.7483 78.5668 66.565 78.645C66.5258 78.6618 66.5928 78.6797 66.5312 78.7098C66.4697 78.7404 66.2982 78.7965 66.2373 78.8061C66.1764 78.8161 66.1914 78.778 66.1789 78.7744C66.0767 78.7442 65.9037 78.8835 65.8776 78.8925C65.4161 79.0589 64.9911 79.092 64.5389 79.1469C64.1968 79.1882 63.8305 79.2245 63.5 79.2222C63.4973 79.2222 63.4945 79.2222 63.4918 79.2221C63.0959 79.2181 62.7657 79.1746 62.3855 79.1307C62.3454 79.1258 62.3863 79.1787 62.3372 79.1728C61.8149 79.109 61.3018 78.9875 60.8146 78.7964C60.7658 78.7771 60.8427 78.7586 60.7949 78.737C60.4998 78.6081 60.0741 78.3435 59.8273 78.4243C59.6331 78.327 59.4016 78.1992 59.251 78.0722C59.1542 77.9902 59.2814 78.0113 59.14 77.9516C59.1083 77.9379 59.1268 77.9947 59.0805 77.9714C58.8853 77.8727 58.6922 77.7325 58.5038 77.6248C58.4655 77.603 58.4548 77.6388 58.4409 77.6367C58.3244 77.6179 58.2346 77.4439 58.2088 77.4159C58.0081 77.2028 57.8365 77.0815 57.6383 76.8993C57.5925 76.8568 57.6147 76.9419 57.5694 76.902C57.335 76.6944 57.1115 76.4572 56.9268 76.2124C56.8859 76.1579 56.9575 76.1786 56.9396 76.1512C56.8614 76.031 56.7823 76.0554 56.7087 75.938C56.6933 75.9133 56.7306 75.9044 56.7302 75.8979C56.7259 75.7966 56.6158 75.7923 56.6012 75.7763C56.4178 75.5773 56.3914 75.3855 56.2409 75.1771C56.2229 75.152 56.2237 75.2346 56.1752 75.1621C55.8516 74.6793 55.5841 74.1184 55.4145 73.57C55.3881 73.4847 55.4415 73.5327 55.4433 73.526C55.4708 73.4187 55.3716 73.393 55.3588 73.3664C55.2607 73.1574 55.2679 72.9334 55.1291 72.8104C54.9489 72.0502 54.8157 71.2777 54.8492 70.501C54.8575 70.309 54.8758 70.1214 54.9061 69.9324C54.9079 69.9203 54.9483 69.9448 54.9518 69.9207C54.997 69.6319 54.9286 69.6845 54.8705 69.4806C54.8561 69.4287 54.9711 69.2933 54.9801 69.2819C55.0126 69.2384 55.0673 69.2961 55.0745 69.2811C55.1327 69.1583 54.9251 69.147 54.9559 68.9688C54.9572 68.9634 54.9904 68.9933 54.9968 68.9791C55.0166 68.9351 55.0103 68.8869 55.0318 68.8445C55.0818 68.7479 55.1866 68.7325 55.1649 68.5655C55.1623 68.5443 55.0403 68.5478 55.0841 68.3929C55.1005 68.3314 55.174 68.0562 55.2054 67.9831C55.2358 67.9096 55.2559 67.9727 55.2591 67.9678C55.3703 67.7798 55.3661 67.8631 55.4691 67.7866C55.5723 67.7115 55.3975 67.6817 55.3933 67.6343C55.389 67.5867 55.4817 67.4547 55.509 67.4246C55.536 67.3943 55.5413 67.4471 55.561 67.4186C55.6921 67.231 55.5165 67.2952 55.5185 67.2158C55.5251 67.0276 55.7006 66.9538 55.7801 66.8166C55.8018 66.7793 55.7599 66.7982 55.7742 66.7623C55.8319 66.62 55.9093 66.5573 55.9593 66.3873C55.9672 66.3597 55.9681 66.1974 56.0643 66.1476C56.0779 66.1407 56.0873 66.1885 56.1265 66.1363C56.185 66.0584 56.2832 65.9139 56.3314 65.8211C56.367 65.7524 56.2737 65.7967 56.3413 65.7249C56.3715 65.6932 56.3529 65.7768 56.4074 65.7161C56.4613 65.6554 56.5786 65.4872 56.6247 65.4241C56.6703 65.361 56.6125 65.371 56.614 65.3643C56.6241 65.3241 56.7007 65.1925 56.7092 65.1822C57.1232 64.6486 57.6092 64.2552 58.0991 63.8277C58.1378 63.7942 58.0845 63.7824 58.0902 63.777C58.2167 63.6533 58.1788 63.8281 58.2978 63.7831C58.2308 63.7256 58.297 63.6932 58.3902 63.612C58.4351 63.5729 58.3893 63.5652 58.3916 63.5592C58.4329 63.4655 58.522 63.4831 58.5425 63.4851C58.6186 63.4918 58.6375 63.4078 58.6891 63.4127C58.7403 63.4178 58.6926 63.5087 58.7893 63.4428C58.7995 63.3987 58.6814 63.38 58.749 63.3192C59.0033 63.0838 59.5939 62.8302 59.8447 62.7258C60.094 62.617 60.1741 62.5794 60.325 62.5303C60.5989 62.4455 60.48 62.4274 60.6389 62.3408C60.7998 62.2562 60.7646 62.4251 60.799 62.4469C60.8326 62.4691 60.8481 62.4295 60.883 62.4366C60.9177 62.4437 60.861 62.4847 60.9318 62.4688C61.0023 62.4524 61.1748 62.3426 61.1915 62.304C61.2254 62.2216 61.1178 62.1735 61.3138 62.1481C61.3251 62.1468 61.2997 62.1936 61.3422 62.1866C61.6777 62.1305 62.0249 62.0648 62.3626 62.0467C62.4091 62.0443 62.3736 62.0926 62.4006 62.0917C62.6814 62.0855 62.5739 62.0255 62.7202 61.9297C62.6957 62.0407 62.7854 62.0964 62.9961 62.0841C63.1234 62.0775 63.0984 62.0319 63.1797 61.9953C63.2042 61.9843 63.2955 62.014 63.3114 61.9916C63.3643 61.9185 63.2764 61.8374 63.5 61.8683C63.5001 61.8683 63.5002 61.8684 63.5003 61.8684C63.5037 61.8689 63.5021 61.8742 63.5 61.8809C63.4972 61.8897 63.4937 61.901 63.5 61.9073C63.5025 61.9098 63.5065 61.9115 63.5127 61.912C63.7303 61.9294 63.7572 61.8539 63.9941 61.8566C64.1809 61.8586 64.5041 61.9356 64.7102 61.9736C64.6894 62.0928 64.8858 62.0938 64.9796 62.0259C65.1132 62.0525 65.2578 62.0765 65.3841 62.1166C65.4273 62.1304 65.3906 62.1581 65.3953 62.1631C65.4667 62.2403 65.5421 62.1752 65.5715 62.1791C65.8883 62.2266 66.1171 62.3612 66.422 62.4066C66.4327 62.4082 66.4784 62.3348 66.5336 62.4211C66.5369 62.4269 66.4297 62.4274 66.5623 62.4807C66.6954 62.5339 66.9248 62.6778 67.1196 62.7266C67.1666 62.738 67.3068 62.7291 67.3701 62.8211C67.3784 62.8335 67.3548 62.8486 67.3654 62.8691C67.3994 62.9344 67.4681 62.8741 67.4968 62.9712C67.5253 63.0684 67.626 63.1837 67.8197 63.2411C67.8258 63.243 67.9005 63.2089 67.9533 63.2426C68.0373 63.2961 68.1484 63.3842 68.2344 63.4417C68.2757 63.4692 68.2728 63.4168 68.2804 63.421C68.5711 63.591 68.741 63.7654 69.0042 64.008C69.0522 64.0522 69.2329 64.1342 69.2954 64.2546C69.3628 64.3865 69.1206 64.4364 69.3781 64.6205C69.4796 64.6944 69.7847 64.6333 69.8388 64.8981C70.1616 65.2136 70.3567 65.5862 70.639 65.9372C70.6517 65.9529 70.7477 65.9683 70.7722 66.0098C70.8083 66.0714 70.7992 66.1224 70.8231 66.167C70.9223 66.3545 71.0407 66.5113 71.1285 66.6969C71.1616 66.7674 71.1182 66.7585 71.1565 66.8426C71.1943 66.9264 71.2627 66.9631 71.2929 67.0872C71.3155 67.1814 71.2647 67.3043 71.2999 67.4232C71.3883 67.3933 71.419 67.4736 71.4945 67.6094C71.509 67.6354 71.5289 67.5947 71.5373 67.6065C71.5724 67.6545 71.5643 67.7132 71.599 67.7586C71.6074 67.7696 71.6378 67.76 71.6464 67.7686C71.7207 67.8414 71.6974 68.0088 71.6924 68.0367C71.6753 68.1452 71.7276 68.1782 71.7298 68.2568C71.7315 68.335 71.6795 68.2316 71.6914 68.3199C71.716 68.5021 71.7731 68.7296 71.8058 68.9115C71.819 68.984 71.8516 68.9268 71.8545 68.937C71.8934 69.0863 71.8718 69.2466 71.9674 69.319C71.7638 69.4537 72.0023 69.4075 71.9822 69.6333C71.9804 69.6509 71.8794 69.6827 71.8575 69.6189C71.8356 69.5551 71.8564 69.4521 71.8205 69.365C71.8123 69.344 71.6985 69.2372 71.6899 69.2219C71.6243 69.1006 71.7731 69.0565 71.7804 69.0479C71.8576 68.9532 71.7256 68.8239 71.7102 68.7871C71.6407 68.6158 71.6257 68.4627 71.5633 68.322C71.5225 68.2303 71.4221 68.2491 71.4037 68.1749C71.3411 67.9301 71.4453 67.7962 71.2468 67.6117C71.2038 67.5725 71.1196 67.6598 71.1337 67.4573C71.1349 67.4448 71.1571 67.2874 71.0788 67.2341C71.069 67.2275 71.0394 67.2407 71.0317 67.2298C70.9806 67.1567 70.9802 67.093 70.9286 67.012C70.877 66.9313 70.8101 66.8368 70.7699 66.7357C70.7458 66.6748 70.759 66.5723 70.7566 66.5373C70.7509 66.4381 70.6426 66.3895 70.6591 66.316C70.6751 66.2413 70.7995 66.2968 70.752 66.1515C70.6771 66.1901 70.5967 66.2239 70.5199 66.2603C70.3579 65.9872 70.2026 65.713 70.0033 65.4622C69.9786 65.4312 69.9678 65.4909 69.9404 65.4587C69.8247 65.3232 69.7494 65.1826 69.6165 65.0525C69.5135 64.9519 69.3713 64.8705 69.2581 64.7739C69.2625 64.6411 69.0789 64.5089 68.9642 64.3954C68.924 64.3554 68.9438 64.3387 68.919 64.3057C68.8239 64.1822 68.8225 64.2937 68.7823 64.2768C68.6097 64.2065 68.7203 64.0477 68.5482 63.9199C68.539 63.9127 68.3676 63.912 68.3489 63.9065C68.2282 63.8698 68.3542 63.8659 68.2979 63.8159C68.1947 63.725 68.1293 63.6499 67.9781 63.5872C67.9337 63.5688 67.8055 63.563 67.7537 63.4739C67.7468 63.4622 67.77 63.4366 67.7628 63.43C67.6294 63.3116 67.5711 63.4021 67.4677 63.3851C67.3644 63.3682 67.2646 63.2327 67.2459 63.1996C67.198 63.1134 67.3126 63.2075 67.3188 63.205C67.3949 63.1727 67.2901 63.1296 67.2151 63.0861C67.251 62.987 67.138 62.9385 67.137 63.0416C67.137 63.0529 67.2018 63.074 67.2151 63.0861C67.1009 63.1434 66.98 63.0987 66.8859 62.9516C66.8414 62.883 66.9227 62.8599 66.7215 62.7952C66.6303 62.7667 66.6369 62.8471 66.5525 62.8343C66.3602 62.8053 66.1516 62.6599 65.9596 62.6117C65.8907 62.5944 65.9451 62.6524 65.8977 62.642C65.7723 62.6151 65.671 62.556 65.5418 62.5385C65.5302 62.537 65.5475 62.5839 65.5088 62.5746C65.215 62.506 64.961 62.4286 64.6472 62.3833C64.4958 62.3608 64.2215 62.3549 64.0642 62.3407C63.8871 62.3235 63.6874 62.2898 63.5 62.2756C63.3967 62.2676 63.2992 62.2653 63.2156 62.2733C63.0626 62.2885 63.0987 62.3288 63.0346 62.3602C62.912 62.4207 62.6835 62.3436 62.6511 62.3323C62.6502 62.3316 62.7803 62.3095 62.7083 62.2951C62.6632 62.2551 62.6526 62.332 62.6511 62.3323C62.6301 62.3236 62.3663 62.3459 62.316 62.3623C62.2885 62.3706 62.3099 62.407 62.2955 62.4106C61.9526 62.4966 61.6151 62.579 61.2683 62.6584C61.2621 62.6593 61.2592 62.6147 61.2447 62.6175C61.0409 62.656 60.93 62.7487 60.7818 62.8344C60.6335 62.9207 60.5065 62.9598 60.385 62.9287C60.2702 62.9857 60.0884 63.0305 59.9837 63.0583C59.8788 63.0859 59.9029 63.1695 59.8953 63.1749C59.6605 63.3523 59.492 63.3893 59.2303 63.5394C59.1056 63.6103 58.8757 63.7775 58.7562 63.8761C58.6615 63.9535 58.5906 63.9818 58.5092 64.0608C58.4982 64.0715 58.5336 64.092 58.5308 64.096C58.4604 64.2086 58.4505 64.099 58.4198 64.1021C58.3088 64.114 58.2416 64.1265 58.1362 64.2538C58.1115 64.2833 58.1179 64.4548 58.0739 64.5055C58.016 64.5716 58.0079 64.514 57.9487 64.5851C57.9436 64.5912 57.9649 64.6115 57.9231 64.6494C57.7297 64.8257 57.5196 65.0215 57.3444 65.2308C57.3204 65.2593 57.3868 65.2534 57.353 65.295C57.1946 65.49 57.0261 65.7067 56.8684 65.8956C56.8294 65.942 56.8241 65.8924 56.8086 65.8976C56.7137 65.9313 56.7215 66.0748 56.7129 66.0913C56.5047 66.4899 56.2709 66.7556 56.1138 67.1899C56.1048 67.2139 56.113 67.4247 56.0091 67.474C56.0021 67.4771 55.8955 67.5267 55.92 67.617C55.9217 67.6225 55.9789 67.5879 55.9425 67.6725C55.9059 67.7576 55.883 67.9047 55.801 68.0114C55.7752 68.0448 55.6693 68.1126 55.6973 68.2462C55.6987 68.2556 55.789 68.4703 55.6771 68.5088C55.6588 68.515 55.5583 68.4784 55.5774 68.6309C55.5814 68.66 55.6155 68.617 55.6137 68.6904C55.6111 68.8026 55.5537 68.94 55.5765 69.0812C55.5804 69.106 55.6341 69.2156 55.5686 69.2863C55.5583 69.2974 55.527 69.2686 55.5169 69.3099C55.4686 69.5066 55.4688 69.7205 55.4302 69.9231C55.4168 69.9954 55.3623 69.9543 55.3425 70.0302C55.3226 70.1063 55.302 70.2599 55.3268 70.3411C55.3516 70.4219 55.4433 70.3359 55.4494 70.4551C55.4503 70.4704 55.4511 70.4857 55.4519 70.501C55.4778 70.9999 55.4727 71.4977 55.5572 71.9928C55.5703 72.068 55.59 72 55.6124 72.1097C55.6902 72.5188 55.9299 73.189 56.0087 73.5462C56.069 73.835 55.8889 73.5137 55.9548 73.7283C55.9878 73.8328 56.1326 73.895 56.1464 73.9166C56.2836 74.13 56.3229 74.3061 56.4474 74.4975C56.4732 74.5368 56.4876 74.4757 56.5091 74.5091C56.5828 74.6227 56.6407 74.7542 56.714 74.8614C56.747 74.9094 56.7685 74.8825 56.7957 74.9284C56.8613 75.0377 56.9145 75.1381 56.9633 75.2572C56.9678 75.2681 56.8894 75.2296 56.9445 75.3075C57.0336 75.4332 57.1285 75.6042 57.267 75.7205C57.3083 75.7549 57.3658 75.7081 57.4008 75.8269C57.4084 75.8517 57.3208 75.8889 57.4668 75.9358C57.4914 75.9447 57.7163 76.0345 57.7441 76.1575C57.7513 76.1902 57.7511 76.2941 57.8049 76.3304C57.8123 76.3351 57.8157 76.2824 57.856 76.3162C57.9975 76.4354 58.1378 76.5684 58.2907 76.681C58.3316 76.7108 58.3008 76.6309 58.3607 76.676C58.5251 76.8001 58.7224 76.9643 58.8803 77.0904C58.9384 77.137 58.8767 77.1358 58.8789 77.1419C58.9163 77.242 59.0059 77.2031 59.0323 77.215C59.1975 77.2904 59.2934 77.3952 59.4418 77.4703C59.4827 77.491 59.4743 77.4408 59.4839 77.4424C59.5823 77.4596 59.4865 77.4857 59.5346 77.5221C59.6698 77.624 59.8371 77.7081 59.9923 77.7774C60.0492 77.8026 60.0059 77.7315 60.0566 77.7544C60.3566 77.8888 60.6722 78.0197 60.9694 78.1441C61.0255 78.1676 60.9784 78.1889 60.988 78.2005C61.0546 78.2812 61.2002 78.2455 61.2301 78.2465C61.3675 78.2517 61.4096 78.2949 61.5255 78.3185C62.09 78.4355 62.7928 78.5456 63.339 78.5648C63.3934 78.5671 63.447 78.569 63.5 78.5704C64.1354 78.5846 64.6606 78.5546 65.2733 78.4128C65.3154 78.4029 65.2627 78.3671 65.2986 78.3579C65.7618 78.2407 66.217 78.1123 66.6529 77.9122C66.6887 77.8958 66.6194 77.8776 66.6758 77.8499C66.7916 77.7927 66.9394 77.7267 67.0625 77.681C67.1224 77.6586 67.0629 77.7307 67.1231 77.7073C67.2633 77.6526 67.4067 77.5788 67.5366 77.4955C67.5916 77.4599 67.4838 77.4705 67.5567 77.4273C68.0526 77.1305 68.5023 76.7883 68.9727 76.4342C69.0048 76.4099 69.0936 76.4527 69.144 76.3801C69.1311 76.3573 69.1101 76.336 69.0932 76.3144C69.6906 75.719 70.2267 75.0659 70.6335 74.3189C70.6505 74.2875 70.5787 74.3189 70.6112 74.2582C70.7986 73.9051 70.9413 73.5474 71.1226 73.1776C71.1403 73.1408 71.2147 73.1888 71.241 73.0699C71.2459 73.049 71.2903 72.8718 71.2852 72.8217C71.2843 72.8149 71.2368 72.835 71.2521 72.779C71.3418 72.4526 71.4279 72.1109 71.5048 71.7799C71.5173 71.7263 71.5502 71.7907 71.5594 71.7524C71.6243 71.4813 71.6221 71.1776 71.6734 70.9133C71.7072 70.7369 71.7774 70.8054 71.8526 70.7111C71.8633 70.6977 71.8667 70.5848 71.9086 70.5792C72.0145 70.5646 72.1296 70.6221 72.2425 70.6003C72.2671 70.5957 72.2413 70.4364 72.2997 70.5308C72.3038 70.5374 72.3221 70.6533 72.3412 70.6823C72.3546 70.7024 72.3981 70.6673 72.4148 70.7085C72.4314 70.7499 72.3944 70.7936 72.4124 70.8617C72.4304 70.9302 72.4809 70.9017 72.4791 71.0389ZM59.5132 63.1972C59.4058 63.2098 59.4664 63.3473 59.5425 63.2643C59.5461 63.2602 59.5187 63.1965 59.5132 63.1972ZM70.2903 65.6523C70.2672 65.5069 70.1351 65.4936 70.1491 65.5975C70.1621 65.7007 70.2969 65.6962 70.2903 65.6523ZM71.0296 66.7929C71.007 66.6313 70.8077 66.7076 70.9187 66.833C70.925 66.8403 71.0308 66.8023 71.0296 66.7929ZM71.8501 71.1605C71.8523 71.1593 71.8602 71.0784 71.8582 71.0763C71.8139 71.0302 71.7985 71.1911 71.8501 71.1605ZM71.5777 68.0343C71.5914 67.9798 71.5169 67.8568 71.5014 67.925C71.4891 67.9795 71.5609 68.1018 71.5777 68.0343ZM55.8478 66.8443C55.8451 66.8447 55.818 66.8971 55.83 66.9014C55.8683 66.9149 55.893 66.8365 55.8478 66.8443ZM71.944 70.3122C71.9428 69.9733 72.0996 69.7473 72.1016 70.1286C72.1011 70.1969 72.0388 69.9842 72.0272 70.0718C72.0059 70.2302 72.1186 70.3337 72.0601 70.498C72.0497 70.5269 71.9442 70.331 71.9438 70.3116C71.9438 70.3118 71.9439 70.312 71.944 70.3122ZM59.3756 63.068C59.3728 63.0671 59.3005 63.1057 59.2999 63.1084C59.2849 63.1713 59.4296 63.0942 59.3756 63.068ZM54.9353 70.1555C54.9304 70.1597 54.9211 70.3509 54.9254 70.3573C55.0003 70.4575 55.0189 70.0745 54.9353 70.1555ZM64.713 61.9773C64.8086 61.9424 64.9186 61.9543 64.9792 62.0258C64.8913 62.0073 64.8015 61.9927 64.713 61.9773Z" fill="black"/>
<path d="M76.472 75.2784C76.4601 75.7369 76.3762 76.3315 76.2758 76.7771C76.2447 76.9164 76.2316 76.8406 76.2083 76.936C76.1624 77.1216 76.1375 77.3007 76.082 77.4823C76.0634 77.5424 76.0407 77.4568 76.0221 77.5198C75.92 77.8645 75.8373 78.1945 75.7147 78.5381C75.1096 80.2255 74.1938 81.7638 72.9686 83.0878C72.5654 83.526 72.0164 83.9961 71.551 84.3939C71.4967 84.4406 71.553 84.4423 71.5443 84.4533C71.4063 84.6237 71.4154 84.5209 71.2995 84.5988C70.8387 84.9074 70.3278 85.2451 69.8745 85.5229C69.6813 85.6407 69.9149 85.5923 69.6956 85.6685C69.6804 85.6737 69.7116 85.6117 69.6553 85.6381C69.528 85.6988 69.2958 85.8284 69.1965 85.874C69.0057 85.9619 68.9747 85.9771 68.7947 86.06C68.5476 86.1727 68.2434 86.2792 67.9742 86.3897C67.9167 86.4134 68.0081 86.4222 67.9172 86.4632C67.8265 86.5048 67.5772 86.588 67.4897 86.6061C67.4024 86.6248 67.4286 86.5829 67.4115 86.5809C67.2705 86.5636 67.0064 86.7298 66.9683 86.742C66.2913 86.9688 65.6768 87.0386 65.0163 87.1187C64.5168 87.179 63.982 87.2247 63.5 87.2222C63.496 87.2222 63.492 87.2222 63.488 87.2221C62.9107 87.2175 62.4279 87.164 61.8729 87.0981C61.8145 87.0909 61.8769 87.1466 61.8054 87.1378C61.0445 87.0423 60.2975 86.8678 59.5823 86.603C59.5106 86.5763 59.617 86.5674 59.5464 86.5383C59.1111 86.3653 58.4701 86.0115 58.1448 86.0543C57.8602 85.9154 57.5213 85.732 57.2931 85.561C57.1464 85.4507 57.3219 85.4997 57.1195 85.4046C57.074 85.3828 57.1104 85.4501 57.0436 85.4146C56.7619 85.2648 56.4767 85.065 56.207 84.9C56.152 84.8666 56.1459 84.9055 56.1273 84.9001C55.9715 84.8536 55.8176 84.6315 55.778 84.5928C55.4718 84.2985 55.226 84.1144 54.9362 83.8487C54.8693 83.7868 54.9164 83.8949 54.8508 83.8362C54.5112 83.5311 54.1841 83.1869 53.9073 82.836C53.846 82.7578 53.9363 82.8003 53.9087 82.7616C53.7876 82.5913 53.6992 82.6045 53.586 82.4379C53.5622 82.4028 53.6042 82.3998 53.6024 82.3914C53.5743 82.2604 53.4441 82.2299 53.4235 82.2062C53.1653 81.9087 53.0934 81.652 52.8778 81.3435C52.852 81.3064 52.8703 81.4161 52.8 81.3098C52.3322 80.6014 51.9371 79.7862 51.6739 78.9899C51.6329 78.8659 51.6966 78.9415 51.6975 78.9324C51.7101 78.7854 51.602 78.7341 51.5847 78.6948C51.4513 78.3858 51.4301 78.0669 51.2722 77.8745C50.9962 76.7666 50.8157 75.6361 50.8492 74.501C50.8575 74.2202 50.8786 73.9457 50.9146 73.6683C50.9169 73.6505 50.9566 73.6852 50.9608 73.6498C51.0162 73.2253 50.9462 73.3044 50.8978 73.0107C50.8859 72.9362 51.0099 72.7326 51.02 72.7151C51.0556 72.6497 51.107 72.7302 51.1153 72.7078C51.1825 72.5244 50.9731 72.5226 51.0181 72.2626C51.0198 72.2546 51.0511 72.2952 51.0587 72.2742C51.0823 72.2089 51.0799 72.1395 51.1055 72.0764C51.1649 71.9324 51.273 71.8997 51.2677 71.6606C51.2673 71.6302 51.1417 71.6475 51.203 71.4207C51.226 71.3306 51.3343 70.9288 51.3769 70.8209C51.4179 70.7125 51.4307 70.7996 51.4347 70.7921C51.5754 70.5099 51.5601 70.6289 51.6786 70.5055C51.7978 70.3836 51.6186 70.3668 51.6211 70.3003C51.6234 70.2338 51.7412 70.0338 51.7751 69.9872C51.8085 69.9403 51.8058 70.0138 51.8312 69.9705C52.0009 69.6854 51.8036 69.8043 51.8186 69.693C51.8563 69.4296 52.0578 69.2976 52.1693 69.0934C52.1998 69.0379 52.1507 69.0716 52.1728 69.0195C52.2617 68.8132 52.3585 68.7124 52.4472 68.4713C52.4614 68.4321 52.4941 68.2126 52.6118 68.1263C52.6285 68.1143 52.6292 68.1767 52.6839 68.0984C52.7652 67.9816 52.9066 67.7676 52.9816 67.6343C53.0369 67.5356 52.9209 67.6142 53.0135 67.5047C53.0549 67.4563 53.0156 67.5708 53.0911 67.4788C53.1658 67.3868 53.3387 67.1401 53.4067 67.0479C53.474 66.9555 53.4043 66.9815 53.4076 66.9724C53.4282 66.9178 53.5475 66.7307 53.56 66.7156C54.167 65.9368 54.8569 65.3375 55.5826 64.7183C55.6399 64.6699 55.5742 64.668 55.5827 64.6603C55.7731 64.4857 55.6847 64.7005 55.8486 64.6204C55.7752 64.568 55.8677 64.5146 56.0071 64.3991C56.0743 64.3436 56.0163 64.3448 56.0206 64.3373C56.095 64.2192 56.2076 64.2204 56.2341 64.218C56.3324 64.209 56.3756 64.1082 56.4426 64.1027C56.5091 64.0974 56.4261 64.2121 56.5685 64.1154C56.5916 64.0627 56.4395 64.0667 56.5419 63.9827C56.9265 63.6575 57.7756 63.2613 58.1425 63.105C58.5067 62.9427 58.6252 62.8901 58.8443 62.8133C59.2427 62.68 59.0783 62.6797 59.315 62.5651C59.5545 62.4533 59.4811 62.6355 59.5268 62.6534C59.5716 62.6719 59.5992 62.6283 59.648 62.6308C59.6965 62.6335 59.6099 62.6842 59.7132 62.6578C59.8165 62.6307 60.0784 62.4945 60.1068 62.4528C60.1655 62.3637 60.0171 62.3263 60.3008 62.2775C60.3171 62.2749 60.2753 62.326 60.3372 62.3139C60.8256 62.2181 61.3349 62.1208 61.8293 62.0819C61.8972 62.0767 61.8425 62.1275 61.882 62.1251C62.2938 62.103 62.1398 62.0488 62.3577 61.9459C62.3172 62.0585 62.4462 62.1096 62.7571 62.0911C62.9448 62.0811 62.909 62.0362 63.0292 61.9981C63.0653 61.9865 63.1991 62.0151 63.2227 61.9926C63.3011 61.9192 63.1729 61.838 63.5 61.8683C63.5001 61.8683 63.5003 61.8684 63.5004 61.8684C63.5055 61.8689 63.5031 61.8742 63.5 61.8809C63.496 61.8897 63.4908 61.901 63.5 61.9073C63.5036 61.9098 63.5095 61.9115 63.5186 61.912C63.8378 61.9302 63.8765 61.8549 64.2224 61.863C64.4951 61.8692 64.9698 61.9606 65.2724 62.0128C65.2495 62.1315 65.5371 62.1461 65.6677 62.0849C65.8638 62.1222 66.0751 62.1595 66.2613 62.2131C66.3251 62.2315 66.2748 62.2562 66.2822 62.2617C66.3932 62.3479 66.4953 62.2894 66.5379 62.2967C66.9985 62.3801 67.3428 62.5502 67.7806 62.6432C67.796 62.6465 67.8493 62.5757 67.9399 62.6753C67.9455 62.682 67.7946 62.6661 67.9894 62.7428C68.1849 62.8194 68.53 63.0113 68.8084 63.0995C68.8755 63.1203 69.0667 63.1357 69.1705 63.2483C69.1842 63.2633 69.1547 63.2755 69.1731 63.2999C69.2322 63.378 69.3146 63.3247 69.3725 63.4373C69.4301 63.55 69.5918 63.6981 69.8654 63.8031C69.874 63.8065 69.9676 63.7836 70.0454 63.8327C70.1693 63.9106 70.3362 64.0345 70.4626 64.1193C70.5233 64.1599 70.508 64.0991 70.519 64.1055C70.9394 64.3642 71.1989 64.6059 71.5908 64.9568C71.6624 65.0208 71.9099 65.1611 72.016 65.3223C72.131 65.4993 71.8409 65.5018 72.2059 65.7915C72.3503 65.9084 72.7093 65.9024 72.8358 66.2489C73.2988 66.7234 73.6124 67.2528 74.0096 67.7824C74.0275 67.8062 74.1397 67.847 74.176 67.9077C74.2297 67.9977 74.2299 68.0644 74.266 68.1295C74.416 68.4028 74.578 68.6398 74.7089 68.9115C74.7582 69.0147 74.7093 68.9944 74.7665 69.1176C74.823 69.2408 74.9037 69.3037 74.9578 69.4818C74.9982 69.6169 74.9647 69.7807 75.0217 69.9547C75.1109 69.9268 75.1569 70.0448 75.257 70.2485C75.2762 70.2876 75.2911 70.2328 75.3017 70.2508C75.3459 70.3239 75.3459 70.4059 75.3887 70.4753C75.3991 70.4922 75.4296 70.4829 75.4397 70.4963C75.5279 70.6097 75.5255 70.8447 75.5239 70.8842C75.52 71.0372 75.5782 71.0911 75.5898 71.2042C75.6008 71.3168 75.535 71.1619 75.5577 71.2905C75.6046 71.5559 75.6865 71.8918 75.7352 72.1595C75.7549 72.2664 75.7831 72.1857 75.7869 72.2008C75.8391 72.4211 75.8285 72.6541 75.9295 72.7659C75.7323 72.9502 75.9709 72.8974 75.9617 73.2262C75.9607 73.2519 75.8608 73.2941 75.8357 73.1991C75.8106 73.1041 75.8259 72.9539 75.7843 72.824C75.7748 72.7927 75.6525 72.628 75.6426 72.6047C75.5671 72.4211 75.7141 72.3683 75.7209 72.3564C75.7918 72.2245 75.646 72.025 75.6266 71.9696C75.5393 71.7132 75.507 71.4892 75.4258 71.2783C75.3725 71.1409 75.2707 71.1552 75.242 71.0453C75.1439 70.6824 75.2342 70.5072 74.9957 70.2135C74.9437 70.151 74.8688 70.2612 74.8503 69.9755C74.8494 69.9576 74.8467 69.7388 74.753 69.6503C74.7413 69.6393 74.7118 69.6525 74.7015 69.6358C74.6334 69.5237 74.6213 69.434 74.55 69.311C74.4787 69.1884 74.387 69.0436 74.3224 68.8956C74.2837 68.8063 74.2775 68.6678 74.2677 68.6194C74.2412 68.4823 74.1099 68.3935 74.1129 68.2969C74.1152 68.199 74.2665 68.2998 74.1828 68.0938C74.1066 68.1301 74.0231 68.1588 73.9441 68.1916C73.7018 67.7858 73.4599 67.3859 73.1654 67.0121C73.1288 66.9659 73.1301 67.0412 73.09 66.9926C72.9205 66.7886 72.7963 66.5894 72.6033 66.3918C72.4537 66.239 72.259 66.1016 72.0941 65.9531C72.0672 65.7884 71.8055 65.5806 71.6319 65.4148C71.571 65.3564 71.5922 65.341 71.5526 65.295C71.4015 65.1228 71.4262 65.2572 71.3706 65.227C71.1312 65.1007 71.2363 64.9369 70.983 64.746C70.9695 64.7353 70.7449 64.6945 70.7188 64.6838C70.551 64.6127 70.7163 64.6375 70.6305 64.566C70.4732 64.4364 70.3696 64.335 70.153 64.2296C70.0895 64.1988 69.9152 64.1636 69.8255 64.0516C69.8136 64.0369 69.8396 64.013 69.8283 64.0038C69.6223 63.842 69.5617 63.9318 69.4162 63.8909C69.2705 63.8501 69.1047 63.68 69.0723 63.6399C68.989 63.5356 69.1661 63.6618 69.1742 63.6604C69.2727 63.64 69.1197 63.5713 69.0074 63.5091C69.0379 63.4072 68.8725 63.3331 68.8905 63.4454C68.8927 63.4577 68.9866 63.4932 69.0074 63.5091C68.8604 63.5499 68.682 63.4771 68.5233 63.301C68.4485 63.219 68.5587 63.2079 68.2648 63.1037C68.1314 63.0578 68.1544 63.1449 68.0326 63.1171C67.7546 63.0536 67.4335 62.8683 67.1504 62.792C67.0486 62.7645 67.1351 62.8323 67.0652 62.8151C66.8802 62.77 66.7256 62.696 66.5355 62.6629C66.5184 62.66 66.5491 62.7103 66.4916 62.6962C66.0545 62.5917 65.6737 62.4892 65.2069 62.4222C64.9817 62.3888 64.5744 62.369 64.3399 62.35C64.076 62.3269 63.7784 62.2898 63.5 62.2756C63.3466 62.2676 63.2018 62.2662 63.0776 62.2757C62.8501 62.2936 62.9027 62.3335 62.8064 62.3666C62.6218 62.4301 62.2847 62.3629 62.2378 62.3534C62.2365 62.3527 62.4303 62.3245 62.3243 62.3133C62.2594 62.2752 62.24 62.353 62.2378 62.3534C62.207 62.3452 61.8155 62.3828 61.7402 62.4034C61.6991 62.4137 61.7281 62.449 61.7066 62.4537C61.1936 62.5648 60.6878 62.6831 60.1734 62.8101C60.1642 62.8119 60.1658 62.766 60.1443 62.7708C59.8439 62.8371 59.6713 62.9501 59.4448 63.0634C59.2182 63.1774 59.0297 63.241 58.8628 63.2285C58.6901 63.3092 58.4258 63.3908 58.2745 63.4408C58.1229 63.4907 58.1405 63.5777 58.1289 63.5851C57.7669 63.826 57.5262 63.9026 57.1386 64.1293C56.9538 64.2364 56.608 64.4804 56.4271 64.6238C56.2838 64.7362 56.184 64.7861 56.0588 64.899C56.0419 64.9143 56.0833 64.9301 56.0787 64.9355C55.9597 65.0862 55.9731 64.9584 55.9324 64.9693C55.7854 65.0101 55.6958 65.0403 55.5304 65.2189C55.4918 65.2603 55.4583 65.4668 55.3897 65.5397C55.3 65.6349 55.3038 65.5664 55.2115 65.6683C55.2036 65.677 55.2254 65.6967 55.1634 65.7538C54.8762 66.0194 54.5686 66.3177 54.3059 66.6293C54.2699 66.6718 54.3517 66.6479 54.3006 66.7097C54.0614 66.9997 53.8097 67.325 53.5827 67.6136C53.5267 67.6847 53.5321 67.6196 53.5129 67.6302C53.3953 67.6966 53.372 67.8873 53.3584 67.9116C53.0298 68.4971 52.7138 68.9125 52.4629 69.5531C52.4486 69.5883 52.4189 69.8863 52.2995 69.9749C52.2914 69.9807 52.1691 70.0692 52.1805 70.1941C52.1813 70.2018 52.2478 70.1428 52.1952 70.27C52.1426 70.3979 52.0952 70.6139 51.994 70.7803C51.962 70.8328 51.8419 70.9451 51.8535 71.1355C51.8537 71.1485 51.9195 71.4514 51.7999 71.5216C51.7804 71.533 51.6807 71.4908 51.6835 71.7119C51.6844 71.7541 51.724 71.6873 51.7142 71.7953C51.6994 71.9607 51.6274 72.1688 51.6385 72.3758C51.6403 72.4121 51.6856 72.5707 51.6141 72.681C51.6029 72.6983 51.5733 72.6578 51.5601 72.7198C51.4972 73.0152 51.486 73.3338 51.4403 73.6377C51.4243 73.7459 51.3711 73.6864 51.349 73.7999C51.3268 73.9137 51.3033 74.1423 51.3276 74.263C51.3517 74.3831 51.4439 74.2541 51.4495 74.4323C51.4503 74.4552 51.4511 74.4781 51.4519 74.501C51.4778 75.2483 51.4952 75.9922 51.6252 76.731C51.6454 76.8434 51.659 76.7446 51.6923 76.9089C51.8073 77.521 52.1526 78.5314 52.3022 79.053C52.4175 79.4738 52.1678 78.9865 52.2762 79.3018C52.3299 79.455 52.4986 79.569 52.5178 79.6021C52.7079 79.9282 52.7872 80.181 52.9668 80.4701C53.0041 80.5294 53.0072 80.4487 53.0385 80.4992C53.1457 80.6711 53.2404 80.863 53.3485 81.0242C53.3972 81.0963 53.4158 81.065 53.4575 81.133C53.5582 81.2952 53.6435 81.4419 53.7287 81.6109C53.7366 81.6264 53.6358 81.5572 53.7185 81.673C53.8526 81.86 54.0055 82.1054 54.2002 82.2887C54.2583 82.343 54.3163 82.2971 54.3879 82.458C54.4032 82.4915 54.3056 82.5178 54.4948 82.6131C54.5265 82.6303 54.8255 82.8003 54.8912 82.9612C54.9082 83.0039 54.9335 83.1335 55.0096 83.1916C55.02 83.1992 55.0113 83.1347 55.0701 83.1865C55.2769 83.3692 55.4881 83.5665 55.7126 83.7394C55.7725 83.7853 55.7132 83.6814 55.8017 83.7505C56.0446 83.9404 56.3437 84.1824 56.5837 84.3658C56.6721 84.4336 56.5894 84.4177 56.5939 84.4254C56.6667 84.5503 56.7777 84.5255 56.816 84.5453C57.0554 84.6701 57.2093 84.8109 57.4285 84.9274C57.489 84.9595 57.4667 84.9013 57.4802 84.9051C57.6192 84.9458 57.4932 84.9545 57.567 85.0055C57.7747 85.1485 58.0237 85.2755 58.2549 85.3813C58.3395 85.4199 58.265 85.3339 58.3406 85.3687C58.7885 85.5735 59.263 85.768 59.7119 85.9424C59.7966 85.9754 59.7315 85.9907 59.747 86.0042C59.8549 86.0986 60.0611 86.081 60.105 86.0861C60.3061 86.1098 60.3733 86.1597 60.5459 86.1977C61.3876 86.3867 62.4428 86.5417 63.2592 86.564C63.3406 86.5669 63.4208 86.569 63.5 86.5704C64.4504 86.5831 65.2325 86.5247 66.1481 86.3169C66.211 86.3022 66.1373 86.2712 66.1912 86.2579C66.8859 86.0879 67.5644 85.8872 68.2193 85.5938C68.273 85.5697 68.1778 85.5627 68.2631 85.5225C68.4381 85.4399 68.6595 85.3397 68.8409 85.2649C68.9293 85.2283 68.8317 85.3195 68.9204 85.2818C69.127 85.1937 69.3405 85.082 69.5364 84.9604C69.6196 84.9085 69.4694 84.9438 69.5788 84.8794C70.3226 84.4368 71.0007 83.9255 71.6847 83.3744C71.7314 83.3366 71.8332 83.3676 71.9141 83.2656C71.9035 83.2406 71.8824 83.2194 71.8666 83.1969C72.7655 82.311 73.5554 81.324 74.1608 80.2069C74.1861 80.1599 74.1 80.2183 74.1485 80.1274C74.4286 79.5988 74.649 79.0645 74.8977 78.5032C74.922 78.4474 74.9933 78.5053 75.0384 78.3301C75.0469 78.2994 75.1183 78.0368 75.1195 77.9646C75.1195 77.9548 75.0674 77.9905 75.0909 77.9069C75.2279 77.4197 75.3524 76.9071 75.4553 76.4108C75.472 76.3305 75.5005 76.4233 75.5126 76.366C75.5984 75.9607 75.6108 75.5094 75.6684 75.1147C75.7061 74.8516 75.7748 74.9522 75.8513 74.8117C75.8623 74.7918 75.8666 74.6248 75.9085 74.6163C76.0144 74.5946 76.1292 74.6784 76.2422 74.6457C76.267 74.6389 76.2414 74.407 76.2997 74.5444C76.3039 74.5541 76.3217 74.7225 76.3404 74.7643C76.3536 74.7935 76.3974 74.7422 76.4137 74.8017C76.4299 74.8614 76.3924 74.9252 76.4092 75.0236C76.4258 75.1225 76.4773 75.0802 76.472 75.2784ZM57.5963 63.6856C57.4468 63.7214 57.5012 63.8623 57.6228 63.7542C57.6286 63.7489 57.6039 63.6837 57.5963 63.6856ZM73.5458 67.3276C73.4862 67.1313 73.3281 67.0839 73.3685 67.2232C73.4078 67.3619 73.5635 67.387 73.5458 67.3276ZM74.6188 69.0252C74.5635 68.7981 74.3588 68.8642 74.5051 69.0597C74.5135 69.0711 74.622 69.0385 74.6188 69.0252ZM75.8379 75.4755C75.8402 75.4736 75.8509 75.354 75.8489 75.3509C75.8062 75.2842 75.7851 75.5225 75.8379 75.4755ZM75.4043 70.8657C75.4115 70.7895 75.3168 70.6035 75.31 70.6989C75.3049 70.7752 75.3958 70.9604 75.4043 70.8657ZM52.2379 69.1192C52.2348 69.1203 52.1958 69.1978 52.2081 69.2016C52.2472 69.2134 52.2885 69.1001 52.2379 69.1192ZM75.943 74.2228C75.9373 73.7225 76.0859 73.3979 76.0979 73.9556C76.0989 74.0557 76.0319 73.7427 76.0223 73.8708C76.0045 74.1031 76.1184 74.256 76.0601 74.4966C76.0499 74.5393 75.9437 74.2507 75.9428 74.2219C75.9429 74.2222 75.943 74.2225 75.943 74.2228ZM57.4345 63.5697C57.4308 63.5693 57.325 63.6267 57.3235 63.6299C57.2905 63.7031 57.5027 63.5879 57.4345 63.5697ZM50.9385 73.9942C50.9333 74.0005 50.9215 74.2809 50.9259 74.2903C50.9996 74.437 51.0231 73.8737 50.9385 73.9942ZM65.2767 62.0167C65.4137 61.9876 65.5736 62.0075 65.6672 62.0847C65.5381 62.0591 65.4065 62.038 65.2767 62.0167Z" fill="black"/>
<path d="M74.2379 50.9865C73.3325 53.1938 71.8414 55.1016 69.9372 56.4889C68.033 57.8763 65.7936 58.6864 63.4783 58.8257C61.1629 58.9649 58.8663 58.4275 56.8543 57.2756C54.8423 56.1238 53.1972 54.4046 52.1094 52.3171" stroke="black"/>
</svg>
