<svg width="138" height="138" viewBox="0 0 138 138" fill="none" xmlns="http://www.w3.org/2000/svg">
<line x1="58.1099" y1="14.4277" x2="79.892" y2="14.4277" stroke="black" stroke-width="0.25" stroke-dasharray="0.5 1 1.5 2"/>
<line x1="35.7822" y1="35.9492" x2="57.5644" y2="35.9492" stroke="black" stroke-width="0.25" stroke-dasharray="0.5 1 1.5 2"/>
<line x1="14" y1="58.0215" x2="35.7822" y2="58.0215" stroke="black" stroke-width="0.25" stroke-dasharray="0.5 1 1.5 2"/>
<line x1="102.218" y1="58.0215" x2="124" y2="58.0215" stroke="black" stroke-width="0.25" stroke-dasharray="0.5 1 1.5 2"/>
<line x1="80.4355" y1="35.9492" x2="102.218" y2="35.9492" stroke="black" stroke-width="0.25" stroke-dasharray="0.5 1 1.5 2"/>
<line x1="80.0151" y1="14" x2="80.0151" y2="36.0738" stroke="black" stroke-width="0.25" stroke-dasharray="0.5 1 1.5 2"/>
<line x1="101.798" y1="36.0742" x2="101.798" y2="58.1481" stroke="black" stroke-width="0.25" stroke-dasharray="0.5 1 1.5 2"/>
<line x1="124.125" y1="58.1465" x2="124.125" y2="80.2203" stroke="black" stroke-width="0.25" stroke-dasharray="0.5 1 1.5 2"/>
<line x1="14.125" y1="58.1465" x2="14.125" y2="80.2203" stroke="black" stroke-width="0.25" stroke-dasharray="0.5 1 1.5 2"/>
<line x1="35.9072" y1="36.0742" x2="35.9072" y2="58.1481" stroke="black" stroke-width="0.25" stroke-dasharray="0.5 1 1.5 2"/>
<line x1="57.6895" y1="14" x2="57.6895" y2="36.0738" stroke="black" stroke-width="0.25" stroke-dasharray="0.5 1 1.5 2"/>
<line y1="-0.125" x2="21.7822" y2="-0.125" transform="matrix(-0.999996 -0.00275439 0.00268207 -0.999996 79.8901 123.878)" stroke="black" stroke-width="0.25" stroke-dasharray="0.5 1 1.5 2"/>
<line y1="-0.125" x2="21.7822" y2="-0.125" transform="matrix(-0.999996 -0.00275439 0.00268207 -0.999996 102.158 101.985)" stroke="black" stroke-width="0.25" stroke-dasharray="0.5 1 1.5 2"/>
<line y1="-0.125" x2="21.7822" y2="-0.125" transform="matrix(-0.999996 -0.00275439 0.00268207 -0.999996 124 79.9736)" stroke="black" stroke-width="0.25" stroke-dasharray="0.5 1 1.5 2"/>
<line y1="-0.125" x2="21.7822" y2="-0.125" transform="matrix(-0.999996 -0.00275439 0.00268207 -0.999996 35.7822 79.7295)" stroke="black" stroke-width="0.25" stroke-dasharray="0.5 1 1.5 2"/>
<line y1="-0.125" x2="21.7822" y2="-0.125" transform="matrix(-0.999996 -0.00275439 0.00268207 -0.999996 57.5054 101.865)" stroke="black" stroke-width="0.25" stroke-dasharray="0.5 1 1.5 2"/>
<line y1="-0.125" x2="22.0739" y2="-0.125" transform="matrix(0.00268207 -0.999996 0.999996 0.00275439 57.9902 123.939)" stroke="black" stroke-width="0.25" stroke-dasharray="0.5 1 1.5 2"/>
<line y1="-0.125" x2="22.0739" y2="-0.125" transform="matrix(0.00268207 -0.999996 0.999996 0.00275439 36.2676 101.805)" stroke="black" stroke-width="0.25" stroke-dasharray="0.5 1 1.5 2"/>
<line y1="-0.125" x2="22.0739" y2="-0.125" transform="matrix(0.00268207 -0.999996 0.999996 0.00275439 102.158 101.985)" stroke="black" stroke-width="0.25" stroke-dasharray="0.5 1 1.5 2"/>
<line y1="-0.125" x2="22.0739" y2="-0.125" transform="matrix(0.00268207 -0.999996 0.999996 0.00275439 80.3174 124)" stroke="black" stroke-width="0.25" stroke-dasharray="0.5 1 1.5 2"/>
<path d="M93.5168 73.4157C93.305 74.6305 92.9189 76.1104 92.5057 77.2601C92.5 77.2762 92.4943 77.2923 92.4886 77.3084C92.3212 77.7772 92.1376 78.2528 91.8941 78.8163C91.863 78.8883 91.8307 78.9618 91.7974 79.0368C91.5001 79.7016 91.1148 80.5105 90.4973 81.563C88.4168 85.1097 85.9277 87.2702 85.1797 87.9193C83.6477 89.22 81.8832 90.4943 79.2148 91.7129C78.9705 91.823 78.7171 91.9323 78.4574 92.039C78.2467 92.1257 78.0693 92.1911 78.063 92.1893C78.0567 92.1873 78.2239 92.1189 78.4348 92.0324C78.689 91.9281 78.9368 91.8215 79.1755 91.7144C79.1766 91.7139 79.1777 91.7134 79.1788 91.7129C81.8634 90.4895 83.5863 89.2401 85.0876 87.9785C85.8536 87.3194 88.4146 85.1157 90.5318 81.4747C91.1514 80.4095 91.5369 79.5902 91.8327 78.9199C91.865 78.8464 91.896 78.7745 91.926 78.7045C91.9267 78.7028 91.9274 78.7012 91.9281 78.6996C92.1698 78.1324 92.3435 77.6745 92.5018 77.2266C92.5052 77.217 92.5086 77.2075 92.5119 77.1979C92.9261 76.035 93.2986 74.5821 93.5038 73.4049C93.5441 73.1803 93.5763 72.9992 93.58 73.0022C93.5836 73.0052 93.5572 73.1911 93.5168 73.4157ZM45.814 59.7524C46.2458 58.6403 46.9431 57.2087 47.6808 56.0166C48.4157 54.8106 49.2008 53.7992 49.5815 53.3351C49.9528 52.8801 50.3782 52.3845 50.9146 51.8201C51.0377 51.6907 51.1667 51.5579 51.3018 51.4221C51.7478 50.9735 52.2612 50.4909 52.8505 49.9912C55.0273 48.1649 56.6797 47.2862 57.8518 46.6862C58.0952 46.5644 58.323 46.4551 58.5375 46.3557C58.5379 46.3556 58.5382 46.3554 58.5386 46.3552C59.3503 45.9806 59.9709 45.7385 60.5484 45.5312C61.5755 45.1675 62.4363 44.9201 63.4827 44.6861C64.9269 44.3494 67.03 44.1024 68.4037 44.0818C68.4791 44.0797 68.5563 44.078 68.6345 44.0766C68.7527 44.0744 68.8743 44.0731 69 44.0726C69.9349 44.0729 71.0776 44.1023 72.6858 44.3331C74.1989 44.5553 75.4949 44.8859 76.6164 45.2453C76.9386 45.3488 77.2433 45.4539 77.5333 45.5598C78.2684 45.8285 78.9118 46.1011 79.5093 46.3785C83.2045 48.1417 84.9519 49.8155 86.0406 50.7992C86.8671 51.5824 87.2878 52.061 87.593 52.4029C87.6847 52.5068 87.7648 52.5993 87.8398 52.6868C88.507 53.4683 89.0835 54.2165 89.7142 55.1598C89.8536 55.3692 89.9956 55.5892 90.14 55.8218C90.6219 56.5996 90.9449 57.2015 91.1897 57.6762C91.2965 57.8842 91.3881 58.069 91.4726 58.2438C91.4741 58.247 91.4757 58.2502 91.4772 58.2535C91.489 58.2778 91.5006 58.302 91.5121 58.326C91.5207 58.3441 91.5294 58.3622 91.538 58.3803C91.5414 58.3874 91.5445 58.3938 91.5468 58.3986C91.5486 58.4023 91.55 58.4053 91.5509 58.4072C91.5511 58.4075 91.5513 58.4079 91.5514 58.4082C91.5679 58.4425 91.5818 58.4722 91.5847 58.4782C91.5897 58.4889 91.5941 58.4983 91.5964 58.5031C91.6083 58.5285 91.6235 58.5613 91.6336 58.5831C91.6595 58.6392 91.7045 58.7368 91.7721 58.8886C91.8311 59.0208 91.8869 59.148 91.9552 59.3081C91.9594 59.3182 91.9637 59.3282 91.968 59.3383C92.034 59.494 92.11 59.6768 92.2014 59.9083C92.2846 60.1189 92.3544 60.3156 92.3611 60.3455C92.3677 60.3754 92.3097 60.227 92.2276 60.016C92.1424 59.7976 92.0723 59.6259 92.0071 59.4698C92.003 59.4599 91.9988 59.45 91.9947 59.4401C91.9266 59.2778 91.8599 59.1233 91.7869 58.9584C91.7624 58.9032 91.737 58.8464 91.7131 58.7934C91.67 58.698 91.6203 58.5898 91.5596 58.461C91.5474 58.4352 91.5348 58.4085 91.5219 58.3813C91.4389 58.207 91.3397 58.0037 91.2245 57.777C90.9542 57.2472 90.5978 56.5814 90.0698 55.7375C89.9311 55.5163 89.7933 55.3042 89.6558 55.0992C89.0203 54.1544 88.3995 53.3524 87.6838 52.5299C87.5854 52.4172 87.4903 52.3099 87.3875 52.196C87.0809 51.8604 86.7172 51.4559 85.9507 50.7353C84.9089 49.8051 83.208 48.1679 79.5393 46.4088C78.9132 46.1166 78.2265 45.8269 77.479 45.5558C77.1947 45.4526 76.9007 45.352 76.5982 45.255C75.4946 44.9021 74.2403 44.5825 72.7807 44.3623C71.1111 44.1167 69.958 44.0886 69 44.0878C68.9366 44.088 68.8742 44.0884 68.8126 44.0891C68.7783 44.0895 68.7439 44.09 68.7096 44.0905C68.6669 44.0911 68.6246 44.0919 68.5827 44.0927C67.1196 44.104 64.8808 44.3605 63.2892 44.7452C62.2905 44.9774 61.4686 45.2168 60.4497 45.5825C59.9476 45.766 59.4169 45.9701 58.6201 46.3339C58.3971 46.4364 58.1537 46.552 57.8852 46.6861C56.692 47.2949 55.0151 48.1869 52.8191 50.0373C52.2499 50.5223 51.7591 50.9836 51.3156 51.4291C51.1779 51.5675 51.0444 51.705 50.9151 51.8411C50.3764 52.4079 49.9012 52.9601 49.4765 53.489C49.1263 53.9227 48.372 54.9041 47.6604 56.0784C46.9371 57.2563 46.2982 58.5809 45.9094 59.5545C45.8686 59.6554 45.8281 59.7575 45.7883 59.8599C45.4439 60.7416 45.1526 61.6606 44.9563 62.4109C44.5142 64.0815 44.0959 66.4828 44.1066 69C44.0957 71.5444 44.5362 74.1574 45.1439 76.1527C45.1595 76.2048 45.1752 76.2568 45.1911 76.3088C46.61 80.9127 48.8815 83.6943 49.5988 84.6115C49.6335 84.6546 49.6652 84.6936 49.6938 84.7287C49.7194 84.76 49.7426 84.7883 49.763 84.8131C50.0705 85.1863 50.3523 85.5081 50.6556 85.8379C50.6722 85.8559 50.6888 85.8739 50.7054 85.8919C51.0274 86.2391 51.3738 86.5957 51.7981 87.0018C53.3803 88.5094 54.8463 89.5414 56.163 90.3379C56.4071 90.4848 56.647 90.6237 56.8833 90.7554C56.884 90.7558 56.8847 90.7562 56.8854 90.7566C57.9217 91.3333 58.8805 91.7752 59.8074 92.1444C61.5021 92.8118 62.7047 93.1069 63.6358 93.3151C63.93 93.3794 64.2002 93.4329 64.4566 93.4799C65.012 93.5813 65.4991 93.6529 66.0037 93.7136C66.9538 93.8267 67.832 93.8782 68.6987 93.8879C68.7762 93.8888 68.8536 93.8892 68.9311 93.8894C68.9541 93.8894 68.977 93.8894 69 93.8894C69.9197 93.8879 70.8262 93.8394 71.7791 93.734C72.0066 93.7087 72.1945 93.6876 72.1998 93.691C72.2049 93.6944 72.0254 93.7213 71.798 93.7467C70.8487 93.8523 69.9434 93.9025 69.0001 93.9042C69 93.9042 69 93.9042 69 93.9042C68.9221 93.9043 68.8439 93.904 68.7656 93.9034C67.8997 93.896 67.0051 93.8464 66.037 93.7325C65.5497 93.6744 65.0901 93.6083 64.5443 93.5109C64.2841 93.4642 64.0072 93.4104 63.6963 93.3434C62.7493 93.1343 61.5302 92.8374 59.8175 92.1643C58.9011 91.7999 57.953 91.3652 56.9158 90.7904C56.6776 90.6582 56.435 90.5184 56.1876 90.3699C54.8656 89.573 53.3895 88.5371 51.797 87.0211C51.3957 86.6374 51.0659 86.3003 50.7441 85.9553C50.7261 85.9359 50.7081 85.9165 50.6901 85.8971C50.3883 85.5708 50.0894 85.232 49.7641 84.8377C49.7207 84.7851 49.6655 84.7177 49.5997 84.6361C48.8803 83.7177 46.5953 80.9245 45.173 76.3C45.1686 76.2858 45.1643 76.2715 45.16 76.2573C44.251 73.16 44.1803 71.3152 44.104 69.9535C44.0902 69.611 44.0845 69.2943 44.0839 69C44.0831 68.368 44.1043 67.8556 44.1326 67.401C44.1405 67.2745 44.149 67.1551 44.1578 67.0414C44.196 66.5516 44.2385 66.1633 44.287 65.7771C44.4385 64.6114 44.6024 63.7785 44.8429 62.7876C45.0486 61.9437 45.3632 60.9296 45.6952 60.0598C45.6957 60.0585 45.6962 60.0571 45.6967 60.0558C45.7358 59.9525 45.7751 59.8511 45.814 59.7524ZM93.2022 63.0283C93.2566 63.2496 93.2936 63.4294 93.2893 63.4282C93.2847 63.4269 93.2403 63.245 93.1859 63.0237C93.0563 62.4961 92.9087 61.9708 92.7445 61.4529C92.6754 61.2349 92.6198 61.0602 92.6244 61.0609C92.6289 61.0618 92.692 61.2381 92.7611 61.4564C92.9252 61.9746 93.0727 62.5004 93.2022 63.0283ZM45.408 60.6209C45.4817 60.4103 45.5629 60.2017 45.5847 60.1556C45.6065 60.1096 45.5594 60.2426 45.4837 60.4529C45.4439 60.5639 45.3789 60.7467 45.2962 60.9949C44.873 62.2507 43.9925 65.2709 44.015 69C44.0178 70.5257 44.1629 72.156 44.4811 73.7823C44.5727 74.2514 44.6687 74.6733 44.7678 75.0687C45.2283 76.7506 45.5797 78.1435 47.1586 81.0956C51.4147 88.9088 60.0958 94.0624 69 93.9738C74.2049 93.9904 79.3966 92.3159 83.6025 89.2574C86.8922 86.8796 89.5862 83.7046 91.3871 80.0634C93.1076 77.0871 94.1164 70.8765 93.9713 69.4121C93.9752 69.1827 93.9781 68.9977 93.9822 69C93.9862 69.0025 93.9899 69.1913 93.9859 69.4208C94.1296 70.8756 93.1262 77.0691 91.416 80.0383C89.6225 83.6773 86.9388 86.8522 83.6592 89.2346C79.4447 92.3148 74.2312 94.0079 69 93.9941C60.0804 94.0894 51.3759 88.9226 47.1211 81.0952C45.5584 78.1661 45.2367 76.8209 44.772 75.1458C44.6714 74.7495 44.5737 74.3263 44.4797 73.8519C44.1517 72.2 44.0028 70.5444 44 69C43.9789 65.3823 44.8043 62.4476 45.217 61.1872C45.3003 60.9301 45.3667 60.7387 45.408 60.6209ZM50.9947 51.6232C52.7478 49.7564 55.6925 47.5236 58.6093 46.2327C60.0204 45.5868 61.3952 45.1286 62.5097 44.8319C64.2414 44.3777 65.3613 44.2305 66.4736 44.1154C66.4855 44.1142 66.4974 44.1131 66.5092 44.1119C67.2618 44.0413 68.0188 43.9958 69 43.9956C69.4651 43.9965 69.9717 44.0088 70.5546 44.0445C72.3818 44.1473 74.905 44.5492 77.3165 45.4089C77.3184 45.4095 77.3203 45.4102 77.3222 45.4109C79.728 46.2434 81.9954 47.5217 83.5058 48.6129C88.7867 52.4809 90.5921 56.3328 91.4975 58.087C93.0583 61.2661 94.0116 65.2589 93.9828 68.8805C93.9775 69.2818 93.9764 68.6032 93.9461 67.8726C93.9451 67.8462 93.9439 67.8198 93.9428 67.7934C93.9314 67.5414 93.9189 67.3187 93.8953 67.0086C93.86 66.56 93.8233 66.2258 93.7861 65.9211C93.8351 65.0985 92.4565 59.6594 91.4123 57.9458C90.536 56.2942 88.7767 52.5171 83.4717 48.6287C81.9903 47.562 79.7836 46.2866 77.368 45.4427C77.3614 45.4404 77.3548 45.4381 77.3483 45.4358C74.9578 44.5783 72.4129 44.1632 70.5561 44.0594C69.9756 44.0237 69.4676 44.0113 69 44.0104C67.9557 44.0107 67.1581 44.0627 66.3826 44.1394C66.3716 44.1405 66.3606 44.1416 66.3497 44.1427C65.2499 44.2621 64.1821 44.4088 62.5158 44.8455C61.3775 45.1485 59.9882 45.6143 58.5703 46.2668C55.6712 47.5588 52.7715 49.7612 51.0307 51.6072C50.8714 51.7717 50.7367 51.9115 50.7268 51.9161C50.7171 51.9206 50.8356 51.7881 50.9947 51.6232ZM50.9653 51.5212C55.6148 46.652 62.3463 43.8284 69 43.8872C69.5013 43.8884 69.9948 43.904 70.4912 43.9342C72.3468 44.0325 74.9306 44.4454 77.3722 45.3233C77.3997 45.3331 77.4273 45.3429 77.4548 45.3528C79.8749 46.2069 82.1038 47.4932 83.5857 48.5661C88.879 52.4538 90.6987 56.331 91.6034 58.0944C92.403 59.8118 92.5417 60.3248 92.8002 61.0583C92.8069 61.0784 92.8136 61.0986 92.8203 61.1188C92.8207 61.1201 92.8212 61.1214 92.8216 61.1228C92.8302 61.1481 92.8373 61.1694 92.841 61.1804C92.8484 61.2027 92.8544 61.221 92.8566 61.2278C92.8618 61.2436 92.8661 61.2568 92.8676 61.2616C92.8739 61.2808 92.881 61.3029 92.8855 61.3171C92.9288 61.45 93.0572 61.8636 93.149 62.1958C93.2437 62.5359 93.3056 62.7809 93.3675 63.0376C93.3738 63.0637 93.38 63.0898 93.3862 63.1159C93.441 63.3482 93.4989 63.6021 93.5731 63.9702C93.6179 64.1932 93.6435 64.3532 93.6345 64.3264C93.6252 64.2993 93.5843 64.0971 93.5383 63.8736C93.4586 63.4866 93.3956 63.2175 93.3393 62.9847C93.3331 62.9588 93.3268 62.933 93.3204 62.9072C93.2599 62.6624 93.2036 62.445 93.1192 62.1443C92.9958 61.709 92.894 61.3885 92.7972 61.096C92.5306 60.337 92.3673 59.7452 91.5184 57.9531C90.6423 56.2939 88.897 52.4973 83.5791 48.5795C82.0954 47.505 79.8649 46.2187 77.4481 45.3661C77.4198 45.3559 77.3916 45.3459 77.3633 45.3359C74.9216 44.4585 72.343 44.0474 70.4927 43.9491C69.9944 43.9197 69.5005 43.9052 69 43.9051C62.2839 43.8816 55.7152 46.6505 51.0019 51.5048C50.0709 52.4636 49.2954 53.4112 48.6333 54.3285C46.6966 57.0412 45.677 59.431 44.9724 61.7568C44.8252 62.2676 44.4137 63.6145 44.1426 65.6192C44.064 66.2072 43.9988 66.852 43.9596 67.5555C43.934 68.0144 43.9196 68.4932 43.9201 69C43.9214 70.3853 44.0357 71.9332 44.3442 73.5901C44.432 74.0615 44.5246 74.4856 44.6209 74.8841C45.0692 76.5767 45.3929 77.9577 46.9498 80.9386C48.7456 84.7166 53.8966 89.6284 57.2969 91.1843C58.9425 92.0455 59.9364 92.3962 60.6317 92.6508C60.826 92.7198 60.9979 92.7783 61.1563 92.8307C61.5711 92.9672 61.8926 93.065 62.3201 93.1839C64.6954 93.8216 66.5861 94.0668 69 94.0825C69.7225 94.0817 70.4851 94.0517 71.3217 93.9743C71.5486 93.9534 71.7488 93.9343 71.7665 93.9365C71.7845 93.9385 71.6118 93.9617 71.3851 93.9832C70.5265 94.0648 69.7427 94.0964 69 94.0973C66.5969 94.0821 64.687 93.8371 62.2964 93.1927C61.8501 93.0683 61.5054 92.9624 61.0837 92.8222C60.9277 92.7701 60.7618 92.7131 60.5776 92.6472C59.8937 92.3951 58.9104 92.0468 57.273 91.1884C53.878 89.6316 48.7344 84.7225 46.9416 80.9546C45.3981 78.002 45.0765 76.6479 44.6245 74.9616C44.5268 74.5628 44.4322 74.1358 44.3423 73.6607C44.024 71.977 43.9066 70.4035 43.9053 69C43.9048 68.5146 43.918 68.0543 43.9415 67.6144C43.9792 66.9106 44.0426 66.2677 44.1195 65.6809C44.3936 63.6341 44.7855 62.3695 44.906 61.9294C45.6153 59.5151 46.6838 57.0197 48.6463 54.2852C49.3031 53.3784 50.065 52.4512 50.9653 51.5212ZM83.5425 89.4402C83.3559 89.5736 83.1898 89.6836 83.174 89.6894C83.1583 89.6951 83.2991 89.5951 83.486 89.4623C84.4721 88.7591 85.1362 88.1931 85.6453 87.7419C86.5809 86.8985 87.0007 86.4555 87.616 85.7831C89.1952 84.0367 90.4589 82.1242 91.3793 80.2997C92.9222 77.2609 93.5027 74.5097 93.7372 73.0703C93.7746 72.8424 93.804 72.6611 93.8078 72.664C93.8114 72.6671 93.7879 72.8532 93.7504 73.081C93.5166 74.5109 92.9417 77.2432 91.4085 80.2747C90.489 82.1038 89.2235 84.0259 87.6342 85.785C87.0374 86.4377 86.6419 86.8572 85.7299 87.6861C85.2228 88.1389 84.5539 88.7153 83.5425 89.4402Z" fill="black"/>
<path d="M83.6735 71.6429C83.5465 72.3699 83.317 73.2561 83.0687 73.9439C83.0653 73.9535 83.0619 73.9632 83.0584 73.9728C82.9579 74.2532 82.8474 74.5376 82.701 74.8746C82.6823 74.9176 82.6629 74.9616 82.6429 75.0064C82.4641 75.4039 82.2326 75.8875 81.8622 76.5166C80.6141 78.6364 79.1273 79.9301 78.6802 80.3193C77.7646 81.0988 76.7087 81.8614 75.1121 82.5906C74.966 82.6564 74.8143 82.7218 74.659 82.7857C74.5328 82.8376 74.4262 82.8755 74.4218 82.8729C74.4175 82.8701 74.5171 82.828 74.6431 82.7762C74.7952 82.7139 74.9434 82.6501 75.0862 82.586C75.0869 82.5857 75.0875 82.5854 75.0882 82.5851C76.6938 81.8534 77.7244 81.106 78.6212 80.3502C79.079 79.9552 80.6081 78.6361 81.8777 76.4608C82.2493 75.8243 82.4808 75.3347 82.6586 74.9341C82.678 74.8901 82.6967 74.8472 82.7147 74.8054C82.7151 74.8044 82.7155 74.8034 82.7159 74.8024C82.8612 74.4634 82.9657 74.1897 83.0608 73.9218C83.0628 73.9161 83.0648 73.9104 83.0668 73.9047C83.3156 73.2093 83.5369 72.3396 83.6599 71.6353C83.684 71.501 83.7046 71.3929 83.7085 71.3949C83.7122 71.397 83.6977 71.5084 83.6735 71.6429ZM55.1049 63.458C55.3617 62.7907 55.7799 61.9327 56.2228 61.2187C56.6641 60.4964 57.136 59.8914 57.3649 59.614C57.5883 59.342 57.8433 59.0454 58.1649 58.7073C58.2387 58.6299 58.316 58.5503 58.3969 58.469C58.6643 58.2004 58.9719 57.9113 59.3253 57.6123C60.6304 56.5196 61.6201 55.9934 62.3222 55.6339C62.4679 55.5608 62.6044 55.4953 62.7328 55.4358C62.7331 55.4357 62.7333 55.4356 62.7335 55.4355C63.2196 55.2109 63.5914 55.0658 63.9375 54.9423C64.5532 54.7255 65.069 54.5784 65.6961 54.4403C66.5615 54.2415 67.8203 54.0933 68.6429 54.079C68.6881 54.0776 68.7343 54.0765 68.7812 54.0755C68.8519 54.0741 68.9247 54.0731 69 54.0726C69.5599 54.0715 70.2443 54.0875 71.2078 54.2247C72.1143 54.3567 72.8907 54.5548 73.5624 54.7704C73.7554 54.8325 73.9379 54.8955 74.1116 54.9591C74.5518 55.1202 74.937 55.2838 75.295 55.4498C77.5088 56.5052 78.5551 57.5088 79.206 58.0991C79.7002 58.5691 79.9509 58.8568 80.1328 59.0623C80.1874 59.1247 80.2352 59.1803 80.2799 59.2329C80.6777 59.7022 81.022 60.1507 81.3986 60.7159C81.4818 60.8414 81.5665 60.9733 81.6527 61.1126C81.9403 61.5787 82.1337 61.9388 82.2806 62.2227C82.3447 62.3471 82.3997 62.4576 82.4505 62.5621C82.4514 62.5641 82.4523 62.566 82.4533 62.5679C82.4603 62.5825 82.4673 62.5969 82.4742 62.6113C82.4794 62.6221 82.4846 62.6329 82.4898 62.6438C82.4919 62.648 82.4937 62.6518 82.4951 62.6547C82.4962 62.6569 82.4971 62.6587 82.4976 62.6598C82.4977 62.66 82.4978 62.6602 82.4979 62.6604C82.5079 62.6809 82.5163 62.6986 82.518 62.7023C82.521 62.7086 82.5236 62.7142 82.525 62.7171C82.5321 62.7323 82.5413 62.752 82.5473 62.765C82.5628 62.7986 82.5898 62.8569 82.6303 62.9478C82.6657 63.0269 82.6992 63.103 82.7403 63.1988C82.7428 63.2048 82.7454 63.2108 82.748 63.2168C82.7876 63.3099 82.8333 63.4193 82.8882 63.5578C82.9382 63.6838 82.9789 63.8019 82.9814 63.8204C82.9838 63.8388 82.9477 63.7505 82.8984 63.6244C82.8473 63.4937 82.8051 63.3911 82.7659 63.2977C82.7635 63.2918 82.761 63.2859 82.7585 63.28C82.7176 63.183 82.6775 63.0906 82.6337 62.992C82.6191 62.959 82.6038 62.925 82.5895 62.8933C82.5636 62.8362 82.5338 62.7716 82.4973 62.6946C82.49 62.6791 82.4825 62.6632 82.4747 62.647C82.4249 62.5428 82.3653 62.4212 82.2962 62.2857C82.134 61.969 81.9207 61.5708 81.6058 61.0653C81.523 60.9328 81.4408 60.8058 81.3587 60.683C80.9794 60.117 80.6088 59.6365 80.1822 59.1427C80.1236 59.075 80.0669 59.0105 80.0057 58.9421C79.823 58.7405 79.6063 58.4974 79.1482 58.0652C78.5256 57.5071 77.5075 56.5258 75.3105 55.4733C74.9355 55.2985 74.5245 55.1248 74.077 54.9622C73.9068 54.9003 73.7308 54.84 73.5497 54.7818C72.889 54.5703 72.1379 54.3788 71.2638 54.248C70.2639 54.1021 69.5735 54.0869 69 54.0878C68.9621 54.088 68.9247 54.0884 68.8878 54.0888C68.8673 54.0891 68.8467 54.0894 68.8262 54.0898C68.8006 54.0903 68.7753 54.0908 68.7502 54.0913C67.8744 54.1002 66.5349 54.2541 65.5816 54.4813C64.9833 54.6183 64.4909 54.7606 63.8804 54.9785C63.5796 55.0878 63.2619 55.2101 62.7848 55.4281C62.6513 55.4895 62.5055 55.5588 62.3448 55.6391C61.6304 56.0038 60.6264 56.5377 59.3103 57.6444C58.9691 57.9345 58.6751 58.2106 58.4094 58.4774C58.3269 58.5603 58.2469 58.6425 58.1694 58.724C57.8467 59.0633 57.5618 59.3938 57.3065 59.7098C57.096 59.9689 56.6428 60.5558 56.2156 61.2588C55.7815 61.964 55.3986 62.7577 55.1674 63.3416C55.1432 63.4021 55.1191 63.4634 55.0954 63.5248C54.8907 64.0536 54.7179 64.6046 54.6031 65.0545C54.3471 66.0573 54.0998 67.4939 54.1066 69C54.1005 70.5223 54.3621 72.0858 54.7251 73.28C54.7344 73.3112 54.7438 73.3423 54.7533 73.3734C55.6011 76.1286 56.9607 77.7934 57.39 78.3422C57.4107 78.3679 57.4297 78.3913 57.4469 78.4123C57.4621 78.431 57.476 78.4479 57.4883 78.4628C57.6723 78.6861 57.8411 78.8786 58.0228 79.0758C58.0327 79.0866 58.0426 79.0973 58.0526 79.108C58.2454 79.3157 58.4529 79.5289 58.7068 79.7719C59.6534 80.6741 60.5309 81.2914 61.3189 81.7677C61.4649 81.8556 61.6086 81.9387 61.75 82.0175C61.7504 82.0177 61.7508 82.0179 61.7512 82.0182C62.3714 82.3631 62.9452 82.6272 63.4998 82.8481C64.5137 83.2475 65.2334 83.4237 65.7905 83.5479C65.9666 83.5862 66.1282 83.6181 66.2817 83.6461C66.614 83.7065 66.9055 83.7491 67.2074 83.7853C67.7758 83.8528 68.3012 83.8832 68.8198 83.8886C68.8661 83.8891 68.9124 83.8894 68.9588 83.8894C68.9725 83.8894 68.9863 83.8894 69 83.8894C69.5502 83.8881 70.0925 83.8587 70.6625 83.7956C70.7986 83.7805 70.9112 83.7692 70.9145 83.7729C70.9178 83.7765 70.8106 83.7939 70.6745 83.8091C70.1063 83.8723 69.5646 83.9028 69 83.9042C69 83.9042 69 83.9042 69 83.9042C68.9534 83.9043 68.9066 83.9042 68.8597 83.9038C68.3415 83.8998 67.806 83.8705 67.2266 83.8025C66.9349 83.7678 66.6598 83.7285 66.3331 83.6704C66.1774 83.6426 66.0116 83.6106 65.8255 83.5706C65.2586 83.4458 64.5288 83.2685 63.5036 82.8655C62.9551 82.6474 62.3875 82.3874 61.7665 82.0436C61.6239 81.9645 61.4786 81.8808 61.3305 81.792C60.5391 81.3152 59.6553 80.6953 58.702 79.7878C58.4617 79.558 58.2642 79.3564 58.0714 79.15C58.0606 79.1384 58.0498 79.1268 58.039 79.1152C57.8582 78.92 57.6791 78.7173 57.4843 78.4813C57.4584 78.4498 57.4253 78.4094 57.3859 78.3606C56.9552 77.8109 55.587 76.1385 54.7368 73.3699C54.7342 73.3614 54.7316 73.3529 54.7291 73.3443C54.1857 71.49 54.144 70.3859 54.0968 69.5708C54.0882 69.3658 54.0845 69.1762 54.0839 69C54.083 68.6216 54.0955 68.3148 54.1123 68.0426C54.1171 67.9669 54.1221 67.8954 54.1273 67.8274C54.1501 67.5341 54.1755 67.3016 54.2041 67.0704C54.2936 66.3723 54.3898 65.8733 54.5301 65.2788C54.6502 64.7725 54.8369 64.1643 55.0343 63.6424C55.0346 63.6417 55.0349 63.6409 55.0352 63.6401C55.0584 63.5781 55.0818 63.5173 55.1049 63.458ZM83.4911 65.4244C83.5236 65.5569 83.5445 65.6649 83.5403 65.6645C83.5359 65.6641 83.5081 65.5555 83.4756 65.4231C83.3981 65.1073 83.3099 64.7929 83.2117 64.4828C83.1705 64.3523 83.1385 64.2474 83.1428 64.2472C83.147 64.2473 83.186 64.3524 83.2273 64.4832C83.3255 64.7935 83.4137 65.1083 83.4911 65.4244ZM54.8339 63.9686C54.8778 63.8421 54.9275 63.7172 54.9421 63.69C54.9567 63.663 54.9299 63.7434 54.8848 63.8697C54.861 63.9364 54.8223 64.0463 54.7731 64.1953C54.5211 64.9499 53.9978 66.7635 54.015 69C54.0181 69.9151 54.1064 70.8926 54.298 71.8676C54.3531 72.1488 54.4109 72.4017 54.4705 72.6388C54.7475 73.6471 54.9622 74.4806 55.9083 76.2501C58.4588 80.9333 63.6609 84.0258 69 83.9738C72.1208 83.9844 75.2341 82.9799 77.7545 81.1447C79.7258 79.718 81.3404 77.8147 82.4201 75.632C83.4515 73.8481 84.0593 70.1254 83.9726 69.2471C83.975 69.1095 83.9781 68.9986 83.9822 69C83.9863 69.0015 83.9897 69.1147 83.9873 69.2524C84.0732 70.1252 83.4683 73.8393 82.4427 75.6196C81.3671 77.8018 79.758 79.7058 77.7919 81.1359C75.2654 82.9848 72.1383 84.0018 69 83.9941C63.6489 84.0525 58.4264 80.9522 55.8744 76.2562C54.937 74.4987 54.7469 73.6909 54.4673 72.6865C54.4068 72.4488 54.348 72.195 54.2914 71.9105C54.0939 70.9197 54.0032 69.9267 54 69C53.9837 66.8295 54.4743 65.0665 54.7201 64.309C54.7697 64.1545 54.8092 64.0395 54.8339 63.9686ZM58.1902 58.5676C59.2424 57.4465 61.0109 56.1066 62.7622 55.3323C63.6095 54.9448 64.4349 54.6701 65.1039 54.4921C66.1435 54.2197 66.816 54.1327 67.4837 54.065C67.4909 54.0643 67.498 54.0636 67.5051 54.063C67.9569 54.0215 68.4112 53.9951 69 53.9956C69.2791 53.9964 69.5831 54.004 69.9328 54.0255C71.0292 54.0874 72.5433 54.3276 73.9909 54.8426C73.992 54.843 73.9931 54.8434 73.9943 54.8438C75.4382 55.3424 76.8013 56.1063 77.7079 56.7615C80.8777 59.0843 81.9578 61.3987 82.4982 62.4524C83.4294 64.3616 84.0071 66.7557 83.9829 68.9284C83.9782 69.169 83.973 68.7621 83.9562 68.3241C83.9555 68.3082 83.9549 68.2924 83.9542 68.2766C83.9478 68.1255 83.9406 67.9919 83.9266 67.806C83.9057 67.537 83.8836 67.3366 83.8614 67.1539C83.8907 66.6607 83.0653 63.3995 82.4418 62.3702C81.9189 61.3782 80.861 59.1143 77.6799 56.7817C76.7916 56.1417 75.4693 55.3738 74.0198 54.8684C74.0159 54.8671 74.0119 54.8657 74.008 54.8643C72.5736 54.3508 71.0471 54.1028 69.9334 54.0403C69.5852 54.0189 69.2805 54.0112 69 54.0104C68.3736 54.01 67.8951 54.0402 67.4297 54.0852C67.4231 54.0859 67.4166 54.0865 67.41 54.0872C66.75 54.1574 66.1091 54.2441 65.1091 54.506C64.426 54.6876 63.5923 54.9669 62.7413 55.3581C61.0013 56.1328 59.2605 57.4539 58.2161 58.5621C58.1205 58.6608 58.0388 58.7438 58.0316 58.7455C58.0246 58.7471 58.0948 58.6666 58.1902 58.5676ZM58.1462 58.4808C60.9398 55.5458 64.9961 53.8457 69 53.8872C69.3017 53.8883 69.5986 53.8982 69.8973 53.9169C71.0138 53.9762 72.5686 54.2251 74.0375 54.7538C74.0541 54.7597 74.0706 54.7656 74.0872 54.7716C75.5433 55.286 76.8841 56.0603 77.7755 56.706C80.9597 59.0456 82.0535 61.3789 82.5948 62.4408C83.073 63.475 83.1563 63.7833 83.3118 64.2244C83.3158 64.2365 83.3199 64.2486 83.3239 64.2608C83.3241 64.2616 83.3244 64.2624 83.3247 64.2632C83.3299 64.2784 83.3342 64.2912 83.3364 64.2978C83.3409 64.3112 83.3446 64.3222 83.3459 64.3263C83.349 64.3358 83.3516 64.3437 83.3525 64.3466C83.3563 64.3582 83.3606 64.3714 83.3633 64.38C83.3893 64.4599 83.4663 64.7087 83.5213 64.9085C83.578 65.1131 83.6149 65.2605 83.6518 65.415C83.6556 65.4306 83.6593 65.4463 83.663 65.462C83.6956 65.6018 83.73 65.7545 83.7743 65.9759C83.801 66.11 83.8149 66.2065 83.8079 66.1907C83.8008 66.1747 83.7751 66.0534 83.7477 65.919C83.7002 65.6864 83.6627 65.5245 83.6292 65.3845C83.6254 65.369 83.6217 65.3535 83.6179 65.3379C83.5819 65.1907 83.5483 65.0599 83.4977 64.8791C83.4238 64.6174 83.3625 64.4248 83.3044 64.249C83.1441 63.7926 83.0461 63.4371 82.5385 62.3583C82.0145 61.3595 80.9659 59.0756 77.7681 56.7188C76.8759 56.0724 75.5347 55.2984 74.0812 54.7851C74.0642 54.779 74.0472 54.773 74.0302 54.7669C72.5618 54.2388 71.0108 53.991 69.8979 53.9317C69.5981 53.914 69.301 53.9052 69 53.9051C64.9599 53.8908 61.0104 55.5578 58.1724 58.475C57.6125 59.0519 57.1461 59.622 56.7478 60.1739C55.583 61.8059 54.9697 63.2439 54.5493 64.6438C54.4616 64.9512 54.2147 65.7615 54.0525 66.9671C54.0055 67.3207 53.9666 67.7084 53.9433 68.1315C53.9281 68.4074 53.9196 68.6953 53.9201 69C53.9215 69.8329 53.9908 70.7635 54.177 71.7595C54.23 72.0429 54.2859 72.2978 54.3439 72.5373C54.6143 73.5547 54.8096 74.3846 55.7453 76.1765C56.8246 78.4476 59.9199 81.4013 61.9637 82.3378C62.9529 82.8561 63.5503 83.0674 63.9683 83.2209C64.085 83.2625 64.1884 83.2978 64.2836 83.3294C64.5329 83.4118 64.7262 83.4708 64.9832 83.5424C66.4114 83.9266 67.5486 84.0738 69 84.0825C69.4344 84.0818 69.893 84.0634 70.3959 84.0166C70.5324 84.0039 70.6529 83.9937 70.6637 83.9966C70.6747 83.9995 70.571 84.0147 70.4346 84.0278C69.9182 84.0772 69.4468 84.0965 69 84.0973C67.5545 84.0889 66.4053 83.9418 64.9674 83.5534C64.699 83.4784 64.4916 83.4145 64.2381 83.3299C64.1443 83.2984 64.0445 83.264 63.9337 83.2243C63.5225 83.0722 62.9312 82.8623 61.9466 82.3454C59.9051 81.408 56.8131 78.4548 55.7352 76.1889C54.8071 74.4133 54.6131 73.5993 54.3404 72.5853C54.2815 72.3455 54.2244 72.0887 54.1701 71.803C53.9779 70.7905 53.9066 69.8442 53.9053 69C53.9048 68.708 53.9126 68.4311 53.9265 68.1665C53.9489 67.7432 53.9868 67.3565 54.0328 67.0034C54.1969 65.772 54.432 65.011 54.5039 64.746C54.9271 63.2923 55.5701 61.7901 56.7509 60.1444C57.1461 59.5986 57.6045 59.0406 58.1462 58.4808ZM77.7449 81.2914C77.6327 81.3717 77.5321 81.4367 77.5218 81.4389C77.5114 81.441 77.5952 81.3798 77.7075 81.2999C78.3 80.8768 78.699 80.5363 79.0047 80.2649C79.5667 79.7576 79.8189 79.4912 80.1887 79.0871C81.1379 78.0376 81.8975 76.8881 82.4507 75.7915C83.3781 73.9651 83.7271 72.3115 83.8684 71.4464C83.8909 71.3095 83.9099 71.2007 83.9138 71.2027C83.9176 71.2047 83.9047 71.3169 83.8821 71.4538C83.7412 72.3136 83.3955 73.9564 82.4735 75.7791C81.9206 76.8789 81.1596 78.0346 80.204 79.0922C79.8451 79.4846 79.6076 79.737 79.0595 80.2358C78.7548 80.5083 78.3528 80.8551 77.7449 81.2914Z" fill="black"/>
<rect x="33.8213" y="69" width="49.75" height="49.75" transform="rotate(-45 33.8213 69)" stroke="black" stroke-width="0.25" stroke-dasharray="0.5 1 1.5 2"/>
<line x1="104" y1="68.875" x2="134" y2="68.875" stroke="black" stroke-width="0.25" stroke-dasharray="1 2 3 4"/>
<line x1="4" y1="68.875" x2="34" y2="68.875" stroke="black" stroke-width="0.25" stroke-dasharray="1 2 3 4"/>
<line x1="68.875" y1="34.0586" x2="68.875" y2="4.00048" stroke="black" stroke-width="0.25" stroke-dasharray="1 2 3 4"/>
<line x1="68.875" y1="134.059" x2="68.875" y2="104" stroke="black" stroke-width="0.25" stroke-dasharray="1 2 3 4"/>
<circle cx="2" cy="69" r="1.875" stroke="black" stroke-width="0.25" stroke-dasharray="0.5 1 1.5 2"/>
<circle cx="69" cy="136" r="1.875" stroke="black" stroke-width="0.25" stroke-dasharray="0.5 1 1.5 2"/>
<circle cx="136" cy="69" r="1.875" stroke="black" stroke-width="0.25" stroke-dasharray="0.5 1 1.5 2"/>
<circle cx="69" cy="2" r="1.875" stroke="black" stroke-width="0.25" stroke-dasharray="0.5 1 1.5 2"/>
</svg>
