<svg width="24" height="25" viewBox="0 0 24 25" fill="none" xmlns="http://www.w3.org/2000/svg">
<path d="M22.5735 10.1241C22.5709 9.15104 22.5555 8.08574 22.5756 7.1088C22.578 6.98887 22.6116 6.99706 22.616 6.96342C22.6283 6.87143 22.5887 6.81605 22.5916 6.749C22.6056 6.42306 22.6113 6.11816 22.624 5.79841C22.637 5.46901 22.7414 5.62483 22.7669 5.51038C22.8167 5.28677 22.6805 5.47697 22.65 5.38907C22.6582 5.13272 22.6729 4.87409 22.6878 4.61728C22.7005 4.67997 22.713 4.74269 22.7248 4.80607C22.7276 4.69414 22.7486 4.53393 22.7841 4.72138C22.7939 4.67995 22.8054 4.64127 22.815 4.5987C22.7654 4.58703 22.7614 4.38884 22.732 4.37073C22.7026 4.35265 22.7094 4.46407 22.7068 4.46338C22.6702 4.45599 22.7202 3.99893 22.7243 3.96598C22.7352 3.87883 22.7966 3.95524 22.7927 3.8811C22.7859 3.75361 22.6609 3.83855 22.8271 3.66596C22.7731 3.5973 22.8012 3.59131 22.8049 3.50437C22.8054 3.49292 22.7741 3.50181 22.7733 3.49677C22.7501 3.36517 22.8082 3.46633 22.8114 3.46564C22.8649 3.45369 22.8411 3.31247 22.8462 3.28272C22.9101 2.9094 22.9534 2.63587 22.9682 2.24194C22.9714 2.15679 22.9497 1.89744 22.9588 1.81503C22.9677 1.73377 23.0063 1.77737 23.0248 1.73483C22.9321 1.66666 22.9218 1.60161 22.9829 1.44855C22.9153 1.39156 22.9699 1.39889 22.9563 1.2897C22.9451 1.19883 22.864 1.04045 22.9331 0.94043C22.9268 1.05511 22.9601 1.04324 22.9801 1.17233C22.9868 1.21531 22.9882 1.66344 23.0573 1.6301C23.0934 1.6127 23.0603 1.46417 23.0669 1.45844C23.1056 1.42502 23.1532 1.50791 23.1366 1.58139C23.1287 1.56308 23.1208 1.54102 23.113 1.52133C23.0646 1.68637 23.2505 1.57288 23.088 1.6983C23.0681 1.71381 23.0473 1.70781 23.0261 1.73337C23.0349 1.73862 23.0566 1.70735 23.0605 1.73428C23.0644 1.76176 23.0232 1.81394 23.0579 1.82172C23.1085 1.83335 23.0886 1.7195 23.0915 1.71094C23.0912 1.71085 23.0909 1.71075 23.0906 1.71066C23.1174 1.63492 23.1205 1.79311 23.1253 1.80066C23.1567 1.84959 23.181 1.81623 23.207 1.88965C23.2218 1.93154 23.2131 2.03823 23.2179 2.07761C23.2228 2.11672 23.2467 2.05587 23.2518 2.08219C23.2569 2.10851 23.2388 2.14128 23.2447 2.17218C23.2473 2.1854 23.274 2.18473 23.2749 2.19113C23.2852 2.25979 23.2297 2.21475 23.2331 2.27701C23.2354 2.31734 23.2871 2.45271 23.3025 2.35941C23.3078 2.40426 23.3117 2.44799 23.3159 2.49262C23.3239 2.46447 23.3293 2.43539 23.3386 2.40793C23.3259 2.4919 23.3715 2.52989 23.3749 2.58252C23.3783 2.63517 23.3235 2.68236 23.3502 2.74027C23.4071 2.86387 23.3808 2.5578 23.391 2.51981C23.3949 2.50499 23.4378 2.56186 23.4391 2.57062C23.4444 2.60952 23.4137 2.65553 23.4151 2.68552C23.4203 2.79287 23.4607 2.8586 23.4689 2.96091C23.4967 3.30929 23.5192 3.74146 23.528 4.07154C23.5313 4.19446 23.4858 4.26842 23.4871 4.32358C23.4901 4.45264 23.5298 4.46846 23.5319 4.58103C23.5352 4.74858 23.5005 4.98463 23.4931 5.12449C23.4879 5.2213 23.5263 5.30896 23.5272 5.33414C23.541 5.68413 23.5401 6.10989 23.5406 6.39991C23.5408 6.53631 23.4977 6.60108 23.499 6.62925C23.5044 6.75032 23.5412 6.71786 23.5375 6.81602C23.5355 6.86904 23.5001 6.87896 23.4987 6.88605C23.4871 6.94854 23.5333 6.96099 23.5348 7.00974C23.5436 7.29012 23.5133 7.56021 23.5089 7.83784C23.5085 7.85798 23.488 7.85619 23.4891 7.86924C23.4941 7.92526 23.5264 7.89922 23.5287 7.95777C23.5337 8.07955 23.5284 8.20459 23.5243 8.33369C23.5239 8.34648 23.4976 8.35222 23.4976 8.38148C23.4976 8.41077 23.5225 8.43299 23.5211 8.47898C23.5175 8.59915 23.4877 8.71774 23.486 8.84501C23.4858 8.86607 23.5175 8.89216 23.5172 8.92374C23.5161 9.02286 23.4873 9.1696 23.4863 9.25452C23.483 9.53469 23.5011 9.79316 23.5013 10.0571C23.5013 10.1191 23.4719 10.174 23.4712 10.2063C23.4697 10.279 23.4975 10.2242 23.4976 10.2979C23.4983 10.8999 23.4857 11.5042 23.4879 12.1133C23.4887 12.3525 23.5174 12.6436 23.5095 12.8748C23.5061 12.9709 23.4677 12.9884 23.4674 13.0563C23.4669 13.1776 23.5161 13.1996 23.521 13.3275C23.5249 13.4296 23.4758 13.5466 23.4788 13.6528C23.4818 13.759 23.5295 13.808 23.5352 13.93C23.5399 14.0305 23.5183 14.1708 23.5218 14.2802C23.5539 15.2828 23.5735 16.27 23.5362 17.2788C23.523 17.6347 23.5299 18.0296 23.483 18.3974C23.4786 18.432 23.4325 18.3791 23.4422 18.4899C23.4474 18.5494 23.4871 18.6325 23.4891 18.7701C23.5008 19.5879 23.4158 20.4603 23.4326 21.2919C23.458 22.5375 23.7858 23.8285 23.3061 24.911C23.2825 24.9641 23.167 24.9353 23.1342 24.9035C23.1577 24.8739 23.1855 24.8467 23.212 24.8158C23.0677 24.7769 23.1053 24.7837 23.1182 24.6395C23.1263 24.5507 23.0646 24.6217 23.0471 24.5743C23.0245 24.513 22.9532 24.225 23.0487 24.2804C23.0322 24.2625 23.0163 24.246 23.0001 24.2286C22.9856 24.0201 22.9617 23.8175 22.9343 23.6136C22.9295 23.5783 22.8995 23.5767 22.8947 23.5403C22.8817 23.4426 22.9014 23.365 22.8983 23.2643C22.8967 23.2096 22.8621 23.202 22.8643 23.1304C22.8665 23.0588 22.9133 23.0603 22.8624 22.9626C22.8038 23.0263 22.8463 22.7424 22.8427 22.6415C22.8423 22.6268 22.7896 22.5067 22.7956 22.4428C22.8016 22.3787 22.8352 22.2814 22.8161 22.1823C22.8071 22.1359 22.7661 22.1077 22.7638 22.0575C22.7621 22.0223 22.7986 21.98 22.8001 21.9353C22.8016 21.8907 22.7717 21.7942 22.7712 21.7765C22.7692 21.7126 22.7949 21.7831 22.7962 21.7394C22.802 21.5286 22.8157 21.2837 22.7985 21.0758C22.7964 21.0503 22.7662 21.0856 22.7652 21.0822C22.7281 20.9088 22.7675 21.0014 22.7945 20.9545C22.8207 20.9091 22.8064 20.5771 22.7539 20.5747C22.8197 20.5645 22.7694 20.4907 22.7675 20.4715C22.76 20.3969 22.8169 20.4115 22.7993 20.3392C22.7929 20.3127 22.7544 20.3643 22.7556 20.3358C22.7584 20.2653 22.8202 20.2019 22.8264 20.108C22.8279 20.0854 22.8004 20.078 22.8013 20.0377C22.8022 19.9974 22.8359 19.8283 22.7779 19.9063C22.8244 19.8038 22.7988 19.7832 22.8001 19.6639C22.8005 19.6337 22.8449 19.5948 22.8311 19.5305C22.8265 19.5088 22.7837 19.5094 22.7833 19.4767C22.7824 19.4018 22.8267 19.3313 22.8285 19.2363C22.8318 19.0587 22.8007 18.8696 22.8118 18.6845C22.8148 18.6341 22.8578 18.6467 22.8587 18.5735C22.8587 18.5627 22.8215 18.4746 22.825 18.424C22.8271 18.3936 22.8532 18.2358 22.8553 18.204C22.8587 18.1514 22.8171 18.142 22.8252 18.1132C22.8487 18.0299 22.9099 18.0967 22.8261 17.9964C22.8726 17.9635 22.8679 17.9049 22.9251 17.8861C22.8624 17.852 22.9226 17.8078 22.9016 17.7417C22.8806 17.6755 22.7593 17.6213 22.8899 17.6052C22.874 17.5743 22.8469 17.4427 22.8449 17.4205C22.8393 17.355 22.8754 17.39 22.8706 17.3407C22.8698 17.332 22.8451 17.3411 22.8475 17.2853C22.8491 17.2486 22.8506 16.9803 22.854 16.9643C22.8927 16.7815 22.8785 17.0639 22.9052 17.1034C22.8982 17.1104 22.8912 17.1173 22.8842 17.1248C22.8726 17.2056 22.9284 17.1596 22.9413 17.1229C22.9543 17.0863 22.9294 17.0179 22.9477 16.9874C22.9569 16.9723 23.0238 16.9817 23.0157 17.0275C23.0363 16.9785 23.0581 17.0455 23.0774 17.0261C23.0986 17.0047 23.1052 16.7842 23.0683 16.783C23.067 16.8242 23.0683 16.8755 23.0668 16.9171C23.0028 16.9716 22.784 16.8061 22.8714 16.6544C22.9346 16.5443 22.9849 16.7258 22.9318 16.4653C22.9293 16.5054 22.9233 16.5392 22.9206 16.5756C22.8726 16.5795 22.9254 16.5205 22.9101 16.49C22.9026 16.4754 22.8686 16.5655 22.8573 16.4873C22.926 16.42 22.8569 16.3682 22.8561 16.2554C22.8683 16.2867 22.8805 16.3181 22.8928 16.3495C22.9426 16.1588 22.959 16.6017 22.9869 16.2309C22.9891 16.2756 22.9885 16.3199 22.9919 16.3648C23.0171 16.3431 23.0911 16.3778 23.1067 16.3584C23.1477 16.3073 23.123 16.2318 23.1266 16.1696C23.1281 16.1424 23.1481 16.1593 23.1482 16.157C23.1504 16.1197 23.1212 16.1279 23.1193 16.0952C23.117 16.054 23.1454 15.935 23.1422 15.9157C23.1339 15.8658 23.0761 15.9489 23.0718 15.9441C23.0438 15.9123 23.067 15.8473 23.0304 15.8507C23.0556 16.0071 23.0233 16.4577 22.9627 16.05C22.9036 16.1624 22.8221 16.13 22.8156 15.9684C22.8103 15.8347 22.8429 15.9209 22.8789 15.8514C22.8834 15.8424 22.9005 15.6633 22.8751 15.6542C22.9336 15.6613 22.9854 15.6031 23.0458 15.6422C23.0547 15.6479 23.0512 15.7214 23.0997 15.6957C23.1241 15.6829 23.1771 15.6461 23.2082 15.6521C23.1866 15.6369 23.1623 15.6212 23.1398 15.6058C23.1335 15.4957 23.1567 15.4801 23.197 15.4199C23.1802 15.4226 23.1096 15.4782 23.1311 15.3938C23.1323 15.3894 23.1577 15.3857 23.1703 15.3428C23.1954 15.256 23.2033 15.2379 23.2777 15.3045C23.2352 15.1249 23.3182 15.0862 23.2939 14.902C23.1983 14.9386 23.222 15.0034 23.2404 15.172C23.2176 15.1794 23.1951 15.1828 23.1721 15.1904C23.2237 14.9658 23.2184 15.0768 23.1723 14.9496C23.1609 14.9184 23.1731 14.7524 23.1087 14.8078C23.0935 14.8209 23.0953 14.924 23.0714 14.9122C23.0668 14.9099 23.0553 14.7846 23.0614 14.7735C23.1376 14.6348 23.1907 14.8827 23.1629 14.5007C23.1621 14.4902 23.1343 14.4865 23.1304 14.4659C23.1232 14.4272 23.1554 14.4267 23.148 14.3922C23.1405 14.3576 23.0971 14.3097 23.1372 14.2578C23.2103 14.1628 23.2523 14.3869 23.2135 14.4867C23.3089 14.5272 23.311 13.8142 23.3029 13.77C23.2673 13.5771 23.2878 13.8981 23.2614 13.9147C23.2502 13.9215 23.1082 13.9181 23.2003 13.9993C23.2276 14.0234 23.2636 13.9229 23.2786 13.9829C23.2937 14.0428 23.2519 14.0191 23.249 14.0234C23.239 14.0383 23.2545 14.1021 23.2486 14.1104C23.1586 14.2377 23.0227 14.226 23.2235 14.0573C23.1781 13.9838 23.1058 14.1525 23.075 14.0611C23.0375 13.9501 23.1023 13.8691 23.1052 13.8551C23.1397 13.6879 23.0452 13.8808 23.0754 13.6764C23.0922 13.5627 23.1383 13.8467 23.1321 13.5869C23.1269 13.3694 23.094 13.4869 23.0192 13.4711C23.0017 13.4674 22.9802 13.3482 22.9879 13.5104C23.0074 13.515 23.0331 13.5237 23.051 13.534C23.0368 13.5738 22.9393 13.6401 22.9359 13.6612C22.9197 13.7645 22.9703 13.7595 22.9107 13.8204C22.9759 13.7769 22.9366 13.8476 22.9504 13.8742C23.0011 13.9728 23.02 13.8435 22.9548 14.0648C22.9854 14.036 23.0154 14.0099 23.0458 13.9819C23.0468 14.0085 23.0479 14.0351 23.049 14.0616C22.9817 14.1012 22.9903 14.2422 22.9225 14.1145C22.9033 14.2681 22.9179 14.3302 22.9703 14.3638C22.9803 14.3702 22.9843 14.3933 22.9853 14.4204C23 14.4153 23.0455 14.4087 23.051 14.413C23.1001 14.4512 23.0153 14.5104 22.983 14.4902C22.9814 14.5092 22.9796 14.5242 22.9788 14.5295C22.9738 14.5631 22.9446 14.4973 22.9345 14.5245C22.9313 14.5335 22.9376 14.6281 22.9257 14.63C22.8495 14.6414 22.9045 14.4856 22.8602 14.7984C22.9296 14.806 22.9143 14.6607 22.9881 14.698C23.0673 14.738 22.961 14.8197 23.0582 14.8376C23.0422 14.8442 23.0289 14.8472 23.0107 14.8529C23.053 14.9794 22.9721 14.9811 22.9542 15.0198C22.9194 15.0949 22.9246 15.44 22.9947 15.1301C23.0017 15.1754 23.0049 15.2217 23.0111 15.2668C22.866 15.2771 22.9238 15.2496 22.9016 15.4668C22.8967 15.5147 22.8329 15.5302 22.9087 15.5772C22.8344 15.5708 22.8793 15.7123 22.8703 15.7255C22.8116 15.8102 22.7299 15.4957 22.8614 15.4554C22.8102 15.4023 22.8778 15.4025 22.8689 15.3432C22.8559 15.2576 22.8427 15.2457 22.8927 15.1441C22.8223 15.0441 22.8617 15.5357 22.7684 15.2377C22.6751 14.9396 22.623 13.2037 22.609 12.7988C22.5837 12.0652 22.5672 11.6795 22.5714 11.0205C22.5717 10.9555 22.565 10.4648 22.6463 10.5668C22.6579 10.5814 22.6888 10.7925 22.7526 10.6114C22.715 10.6483 22.6905 10.5418 22.6865 10.5329C22.5965 10.328 22.5744 10.4466 22.5735 10.1241ZM23.2985 9.16801C23.2799 9.58893 23.3343 9.2797 23.457 9.36713C23.4573 9.31311 23.4577 9.25929 23.458 9.20527C23.4503 9.21946 23.4427 9.23347 23.435 9.24766C23.435 9.24772 23.435 9.24778 23.435 9.24784C23.3895 9.22129 23.344 9.19456 23.2985 9.16801ZM23.3806 2.28699C23.3968 2.30341 23.413 2.31965 23.4288 2.33743C23.4238 2.39305 23.4189 2.44845 23.4138 2.50406C23.4029 2.49743 23.3918 2.49101 23.3808 2.48438C23.3813 2.41858 23.3818 2.35301 23.3806 2.28699ZM23.2313 14.5455C23.1864 14.6243 23.2665 14.6172 23.23 14.7218C23.2891 14.709 23.347 14.6947 23.4055 14.6812C23.3968 14.6016 23.3743 14.5835 23.3888 14.497C23.3698 14.5071 23.3506 14.5174 23.3315 14.5272C23.3356 14.5416 23.3402 14.557 23.3438 14.5709C23.2906 14.5931 23.2827 14.4549 23.2312 14.5453C23.2312 14.5454 23.2312 14.5455 23.2313 14.5455ZM23.2551 15.3524C23.2474 15.3947 23.2184 15.5625 23.2429 15.5854C23.326 15.663 23.2733 15.1897 23.3471 15.5385C23.3588 15.5369 23.3702 15.5385 23.3817 15.5385C23.3858 15.4749 23.3893 15.4115 23.3926 15.3474C23.3466 15.3508 23.3013 15.3485 23.2551 15.3524ZM23.3036 10.6904C23.2972 10.7555 23.3363 11.0658 23.3889 10.9646C23.4043 10.9349 23.329 10.7964 23.3323 10.7437C23.3344 10.7096 23.3757 10.7478 23.3605 10.6806C23.3423 10.6835 23.3222 10.6854 23.3037 10.6906C23.3037 10.6906 23.3037 10.6905 23.3036 10.6904ZM23.0636 10.5684C23.0709 10.6357 23.0802 10.7039 23.088 10.7716C23.135 10.7222 23.1048 10.6249 23.171 10.6192C23.176 10.6377 23.181 10.6561 23.186 10.6746C23.1715 10.6888 23.1571 10.7028 23.1426 10.7167C23.1785 10.7749 23.1964 10.7396 23.186 10.8479C23.286 10.7824 23.3396 10.7703 23.2385 10.5849C23.2927 10.6199 23.4695 10.5869 23.3432 10.4842C23.3197 10.4649 23.304 10.5452 23.3003 10.5462C23.2539 10.5585 23.2243 10.514 23.1804 10.5272C23.1606 10.5331 23.1609 10.5821 23.1334 10.5895C23.12 10.5928 23.0816 10.5463 23.0636 10.5684ZM23.2989 10.4343C23.327 10.4551 23.3937 10.3839 23.3802 10.3221C23.3592 10.2258 23.2958 10.3777 23.2989 10.4343ZM23.3806 2.28662C23.3806 2.28674 23.3806 2.28687 23.3806 2.28699C23.3806 2.28693 23.3805 2.28687 23.3805 2.28681C23.3805 2.28674 23.3805 2.28668 23.3806 2.28662ZM23.2876 15.134C23.3115 15.1839 23.308 15.2578 23.346 15.2523C23.3386 15.2766 23.3312 15.3011 23.3238 15.3254C23.3352 15.3252 23.3466 15.3247 23.3579 15.3245C23.365 15.2515 23.3722 15.1787 23.3794 15.1057C23.3489 15.1148 23.3182 15.1233 23.2876 15.134ZM23.261 15.9295C23.2572 16.0212 23.3089 15.9443 23.3338 15.9644C23.3588 15.9846 23.3385 16.0663 23.3743 16.0567C23.3757 16.0027 23.3771 15.9464 23.3784 15.8916C23.3394 15.9061 23.2997 15.9161 23.261 15.9296C23.261 15.9296 23.261 15.9295 23.261 15.9295ZM23.3392 7.45011C23.328 7.51236 23.2885 7.48696 23.3347 7.60987C23.3347 7.60978 23.3347 7.60969 23.3347 7.60959C23.367 7.49264 23.3958 7.34207 23.3646 7.21299C23.323 7.29194 23.3567 7.35215 23.3392 7.45011ZM23.3477 14.3278C23.3164 14.3015 23.2903 14.424 23.3194 14.451C23.3664 14.4947 23.3952 14.3679 23.3477 14.3278ZM23.0623 4.93561C22.9661 4.84091 22.8581 5.02035 22.9047 5.20826C22.9088 5.22451 22.9394 5.1032 22.9582 5.13913C22.9601 5.14276 22.9578 5.20936 22.9712 5.22583C22.9846 5.24232 23.0157 5.22501 23.0288 5.25202C23.0516 5.29942 23.0093 5.40652 23.0393 5.44199C23.0433 5.44666 23.0849 5.38024 23.0865 5.37607C23.1117 5.30786 23.0573 5.24214 23.0569 5.2316C23.055 5.17735 23.0977 5.18555 23.1078 5.17182C23.1266 5.14595 23.1078 5.10041 23.1092 5.0972C23.1466 5.01487 23.1359 5.20299 23.1513 5.2284C23.1928 5.29683 23.2314 5.23347 23.2548 5.39759C23.2571 5.41317 23.2545 5.59972 23.3023 5.36463C23.4019 5.82624 23.359 5.13268 23.3371 5.05738C23.3269 5.02266 23.2862 5.07522 23.2679 5.05417C23.226 5.00611 23.2187 4.92417 23.1596 4.93149C23.0355 4.9473 23.1168 5.0549 23.096 5.12906C23.069 5.12128 23.0427 5.11831 23.0164 5.10389C23.0518 5.12609 23.0696 4.94248 23.0626 4.93561C23.0625 4.93561 23.0624 4.93561 23.0623 4.93561ZM23.2041 6.10419C23.1667 6.20788 23.245 6.20055 23.2002 6.29554C23.2706 6.37931 23.2658 6.21408 23.2698 6.19483C23.2875 6.10694 23.364 6.10896 23.3405 6.01905C23.2952 6.04995 23.2495 6.07512 23.2041 6.10419ZM23.2364 5.20231C23.2761 5.27166 23.2754 5.14756 23.283 5.14252C23.3634 5.08772 23.3478 5.45932 23.2364 5.20231ZM23.146 11.0944C23.1433 11.1296 23.1813 11.1072 23.1925 11.1383C23.2038 11.1694 23.1713 11.2758 23.195 11.2732C23.2186 11.2704 23.2801 11.0754 23.2934 11.2712C23.3067 11.2645 23.3166 11.2668 23.3286 11.2636C23.3289 11.2098 23.3295 11.1555 23.3299 11.1017C23.2916 11.1312 23.2514 11.1615 23.2144 11.1899C23.1839 11.1596 23.223 11.1427 23.223 11.1411C23.2229 11.1411 23.2229 11.1411 23.2229 11.1411C23.2198 11.0848 23.152 11.0152 23.146 11.0944ZM23.2652 8.32041C23.1702 8.30988 23.2763 8.39296 23.2881 8.42707C23.2998 8.46117 23.2647 8.50803 23.3056 8.49042C23.3338 8.43526 23.2758 8.32155 23.2651 8.32041C23.2651 8.32041 23.2652 8.32041 23.2652 8.32041ZM23.2043 6.66752C23.2274 6.75443 23.2521 6.74063 23.2239 6.84696C23.2469 6.84284 23.2704 6.83872 23.293 6.8346C23.2935 6.75014 23.2267 6.75608 23.2536 6.65836C23.258 6.64234 23.3113 6.67664 23.2942 6.60435C23.2657 6.62538 23.2341 6.64671 23.2043 6.66752ZM23.2895 7.09827C23.286 6.99848 23.1001 6.91932 23.1839 7.10312C23.1965 7.13036 23.2922 7.17333 23.2895 7.09827ZM23.1413 10.1738C23.136 10.3436 23.166 10.1507 23.1945 10.1065C23.2174 10.5017 23.1867 10.0619 23.2818 10.0225C23.2547 9.97417 23.1928 9.8838 23.1762 9.9842C23.1693 10.0261 23.1977 10.0108 23.1975 10.0133C23.1905 10.0904 23.1442 10.0811 23.1413 10.1738ZM23.1995 5.92402C23.2009 5.93043 23.233 5.9204 23.2395 5.94077C23.2458 5.96117 23.2234 6.00733 23.2431 6.01191C23.2629 6.01646 23.2783 5.92386 23.2638 5.89545C23.2492 5.86707 23.1872 5.86611 23.1995 5.92402ZM23.1204 6.57551C23.1435 6.66032 23.2618 6.52162 23.2613 6.50318C23.2551 6.34112 23.1579 6.58031 23.1204 6.57551ZM22.9405 9.77958C23.0005 9.98421 23.1049 9.83452 23.1674 9.70634C23.1547 9.68941 23.142 9.67204 23.1294 9.65534C23.2066 9.73225 23.283 9.86703 23.2157 9.56718C23.1975 9.73131 23.1767 9.59387 23.1724 9.59281C23.0305 9.57473 23.0964 9.81785 22.9405 9.7794C22.9405 9.77946 22.9405 9.77952 22.9405 9.77958ZM23.2334 5.64817C23.2329 5.5591 23.2084 5.32756 23.1466 5.43558C23.1755 5.50653 23.2044 5.57722 23.2334 5.64817ZM22.9488 13.1298C22.9134 13.2026 22.914 13.2697 22.9163 13.3594C22.9678 13.2786 22.9737 13.3317 22.9863 13.3589C23.0053 13.4002 23.0037 13.3002 23.0072 13.2999C23.056 13.3017 23.0636 13.3655 23.0625 13.2202C23.0795 13.2562 23.0966 13.2916 23.1135 13.3275C23.1158 13.2168 23.1477 13.1907 23.1866 13.1204C23.0914 13.1886 23.151 13.0988 23.1037 13.0173C23.0799 12.9767 22.9668 13.0927 22.9488 13.13C22.9488 13.13 22.9488 13.1299 22.9488 13.1298ZM22.9213 9.99107C22.9385 10.0121 22.9617 10.0314 22.9813 10.0518C22.9832 10.074 22.9848 10.0962 22.9867 10.1184C22.9715 10.1212 22.9556 10.1235 22.9411 10.1267C22.9367 10.1559 22.9578 10.1445 22.9597 10.1532C22.9597 10.1532 22.9596 10.1532 22.9595 10.1532C22.9875 10.2779 22.9843 10.329 22.9375 10.4267C22.9839 10.4267 23.0304 10.4267 23.0768 10.4267C23.0724 10.4047 23.0681 10.3825 23.0637 10.3606C23.0388 10.3489 23.0138 10.3372 22.9889 10.3255C23.0026 10.3001 23.0163 10.2749 23.0301 10.2495C23.0211 10.2292 23.0116 10.2047 23.0029 10.1871C23.1327 10.0857 23.0445 10.3161 23.0984 10.3182C23.1331 10.3196 23.1315 10.0875 23.1076 10.0541C23.1041 10.0492 23.0075 10.0994 23.0578 10.0145C23.0658 10.0012 23.2749 9.99656 23.1056 9.90501C23.0815 9.89196 22.9516 9.93752 22.9213 9.99107ZM22.8539 10.8337C22.9877 10.7033 22.8462 11.1848 22.9563 10.977C23.0178 11.0363 23.017 11.0253 23.0716 10.9656C23.0764 10.9603 23.0933 11.0016 23.0955 10.9981C23.1256 10.9422 23.1096 10.8749 23.1643 10.8745C23.1614 10.8594 23.1588 10.8452 23.1559 10.8301C23.1044 10.893 23.0697 10.7929 23.0262 10.7543C23.0065 10.7366 23.0004 10.7771 22.9832 10.7623C22.9769 10.7568 22.9895 10.7003 22.9714 10.6979C22.9306 10.6931 22.8754 10.7287 22.8453 10.7889C22.8453 10.7889 22.8452 10.7889 22.8452 10.7889C22.8479 10.804 22.8511 10.8186 22.8539 10.8337ZM22.965 8.0452C23.039 8.023 23.0602 7.934 23.0963 8.10499C23.1109 8.09653 23.1253 8.08781 23.1399 8.07935C23.1386 8.05052 23.1374 8.02258 23.1362 7.99329C22.9183 7.9054 23.1642 7.74497 23.0097 7.84772C22.9929 7.85894 23.0116 7.92733 22.966 7.85981C22.966 7.8599 22.9659 7.85999 22.9659 7.86008C22.9799 7.95436 23.0061 7.96624 22.965 8.0452ZM23.0166 8.67628C23.1722 8.89373 23.1035 8.37579 23.0622 8.46232C23.0584 8.4701 23.0919 8.69322 23.0166 8.67628ZM22.8812 6.93137C22.8785 7.02886 22.9625 7.03532 22.9927 7.02549C23.023 7.01564 22.9924 6.94814 22.9972 6.93943C23.0129 6.91104 23.0233 6.97125 23.0449 6.93439C23.0519 6.92219 23.0818 6.75238 23.0782 6.7446C23.0581 6.7014 22.9888 6.76456 22.9809 6.7522C22.9549 6.71192 22.991 6.65723 22.9541 6.64554C22.8755 6.62038 22.958 6.72235 22.9594 6.73957C22.9631 6.79153 22.9189 6.78699 22.91 6.8259C22.9011 6.86478 22.9163 6.8902 22.9132 6.92451C22.9121 6.93592 22.8815 6.92643 22.8812 6.93137ZM23.0585 7.25373C22.9949 7.15191 22.9258 7.39983 22.9407 7.42924C22.9849 7.51576 23.0888 7.30249 23.0585 7.25373ZM23.0558 10.5071C23.0097 10.4139 22.9724 10.6309 22.991 10.6929C23.0101 10.6814 23.0717 10.5391 23.0558 10.5071ZM22.9407 9.72282C22.955 9.80842 23.0588 9.6949 23.0572 9.62348C22.989 9.58162 23.0025 9.62101 22.9997 9.6677C22.9969 9.71434 22.9295 9.65603 22.9407 9.72282ZM22.9571 5.87394C22.956 5.89241 23.0124 6.19008 23.0358 6.01905C23.0375 6.006 23.0276 5.79763 23.0171 5.78183C22.9959 5.75006 22.9601 5.82633 22.9571 5.87394ZM22.8399 9.3122C22.8989 9.35752 22.8981 9.40211 22.9674 9.36045C22.9674 9.36039 22.9674 9.36033 22.9674 9.36027C22.9886 9.47494 22.8469 9.48001 22.8499 9.50474C22.8606 9.5912 22.9615 9.50928 22.9946 9.56352C22.9634 9.4374 23.0315 9.47357 23.0358 9.37766C23.0367 9.35615 22.9961 9.27004 22.9708 9.25745C22.9455 9.24489 22.8696 9.28886 22.8399 9.3122ZM22.9423 5.45343C22.9197 5.55391 23.0154 5.6459 23.0305 5.50654C23.038 5.43855 22.9561 5.39209 22.9423 5.45343ZM22.9184 15.4973C22.9435 15.482 22.9685 15.4662 22.9933 15.4497C22.9994 15.4868 23.0056 15.5239 23.0117 15.561C23.0038 15.5317 22.996 15.5023 22.9882 15.4728C22.9794 15.5424 22.9338 15.5742 22.9184 15.4975C22.9184 15.4975 22.9184 15.4974 22.9184 15.4973ZM22.8993 17.9747C22.8752 18.0058 22.9499 18.0671 22.9558 18.0593C22.9992 18.0008 22.9328 17.9314 22.8993 17.9747ZM22.8287 10.6447C22.8182 10.7604 22.9398 10.6808 22.9481 10.6099C22.9249 10.6533 22.8346 10.579 22.8287 10.6447ZM22.9052 17.1034C22.9157 17.093 22.9261 17.0826 22.9366 17.0709C22.9221 17.1075 22.9123 17.1139 22.9052 17.1034ZM22.8497 5.92127C22.8404 5.93894 22.8327 6.0696 22.8442 6.08726C22.8685 6.12388 22.9356 6.02198 22.9149 5.96201C22.9127 5.95537 22.859 5.90369 22.8497 5.92154C22.8497 5.92145 22.8497 5.92136 22.8497 5.92127ZM22.8718 15.6539C22.873 15.6537 22.8741 15.6538 22.8751 15.6542C22.8741 15.654 22.8729 15.6541 22.8718 15.6539ZM22.7483 20.5757C22.7502 20.575 22.7521 20.5746 22.7539 20.5747C22.7521 20.5749 22.7502 20.5755 22.7483 20.5757ZM22.7465 6.84284C22.6306 6.88633 22.6923 6.98658 22.7495 6.90738C22.7525 6.90295 22.7463 6.85339 22.7465 6.84284Z" fill="black"/>
<path d="M14.0557 24.0081C14.9787 24.0055 15.9894 23.9901 16.9161 24.0102C17.0299 24.0126 17.0221 24.0462 17.0541 24.0506C17.1413 24.0629 17.1939 24.0232 17.2575 24.0261C17.5667 24.0401 17.8559 24.0458 18.1593 24.0586C18.4717 24.0716 18.3239 24.176 18.4325 24.2014C18.6446 24.2512 18.4642 24.1151 18.5476 24.0846C18.7908 24.0927 19.0361 24.1075 19.2797 24.1224C19.2203 24.1351 19.1608 24.1475 19.1007 24.1593C19.2068 24.1621 19.3588 24.1831 19.181 24.2187C19.2203 24.2285 19.257 24.24 19.2974 24.2495C19.3084 24.2 19.4965 24.196 19.5136 24.1666C19.5308 24.1372 19.4251 24.1439 19.4257 24.1414C19.4327 24.1048 19.8663 24.1548 19.8976 24.1589C19.9803 24.1698 19.9078 24.2312 19.9781 24.2273C20.0991 24.2205 20.0185 24.0955 20.1822 24.2617C20.2474 24.2077 20.253 24.2357 20.3355 24.2395C20.3464 24.2399 20.338 24.2087 20.3427 24.2078C20.4676 24.1846 20.3716 24.2428 20.3723 24.2459C20.3836 24.2994 20.5176 24.2757 20.5458 24.2808C20.8999 24.3447 21.1594 24.388 21.5331 24.4028C21.6139 24.4059 21.8599 24.3842 21.9381 24.3933C22.0152 24.4023 21.9738 24.4409 22.0142 24.4594C22.0789 24.3666 22.1406 24.3564 22.2858 24.4175C22.3399 24.3499 22.3329 24.4044 22.4365 24.3909C22.5227 24.3797 22.6729 24.2985 22.7678 24.3677C22.659 24.3614 22.6703 24.3946 22.5478 24.4147C22.5071 24.4213 22.0819 24.4228 22.1136 24.4919C22.1301 24.5279 22.271 24.4948 22.2764 24.5015C22.3081 24.5402 22.2295 24.5878 22.1598 24.5711C22.1771 24.5633 22.1981 24.5554 22.2167 24.5476C22.0602 24.4992 22.1678 24.6851 22.0489 24.5226C22.0341 24.5027 22.0398 24.4819 22.0156 24.4607C22.0106 24.4695 22.0403 24.4912 22.0147 24.4951C21.9887 24.499 21.9392 24.4578 21.9318 24.4925C21.9207 24.543 22.0287 24.5231 22.0369 24.5261C22.037 24.5258 22.037 24.5255 22.0371 24.5252C22.109 24.552 21.9589 24.5551 21.9518 24.5598C21.9053 24.5913 21.937 24.6156 21.8673 24.6416C21.8276 24.6564 21.7264 24.6476 21.689 24.6524C21.6519 24.6573 21.7097 24.6812 21.6847 24.6864C21.6597 24.6915 21.6286 24.6733 21.5993 24.6793C21.5868 24.6819 21.5874 24.7086 21.5813 24.7095C21.5162 24.7198 21.5589 24.6643 21.4999 24.6677C21.4616 24.6699 21.3332 24.7216 21.4217 24.737C21.3791 24.7424 21.3377 24.7463 21.2953 24.7505C21.322 24.7584 21.3496 24.7638 21.3757 24.7732C21.296 24.7605 21.26 24.8061 21.21 24.8095C21.1601 24.8129 21.1153 24.7581 21.0604 24.7848C20.9431 24.8416 21.2335 24.8154 21.2695 24.8255C21.2836 24.8295 21.2296 24.8724 21.2213 24.8736C21.1844 24.879 21.1408 24.8483 21.1123 24.8497C21.0105 24.8548 20.9481 24.8953 20.8511 24.9035C20.5206 24.9312 20.1106 24.9537 19.7975 24.9626C19.6809 24.9659 19.6107 24.9204 19.5584 24.9217C19.4359 24.9247 19.4209 24.9643 19.3141 24.9665C19.1552 24.9697 18.9313 24.9351 18.7986 24.9276C18.7067 24.9225 18.6236 24.9609 18.5997 24.9618C18.2677 24.9756 17.8638 24.9747 17.5886 24.9752C17.4592 24.9754 17.3978 24.9323 17.3711 24.9336C17.2562 24.9389 17.287 24.9758 17.1939 24.9721C17.1436 24.9701 17.1342 24.9347 17.1275 24.9333C17.0682 24.9216 17.0564 24.9679 17.0101 24.9694C16.7441 24.9781 16.4879 24.9479 16.2245 24.9434C16.2054 24.9431 16.2071 24.9226 16.1947 24.9237C16.1416 24.9287 16.1663 24.9609 16.1108 24.9633C15.9952 24.9683 15.8766 24.963 15.7541 24.9589C15.742 24.9585 15.7366 24.9322 15.7088 24.9322C15.681 24.9322 15.6599 24.9571 15.6163 24.9557C15.5023 24.9521 15.3898 24.9223 15.2691 24.9206C15.2491 24.9204 15.2243 24.9521 15.1944 24.9517C15.1004 24.9507 14.9611 24.9219 14.8806 24.9209C14.6148 24.9176 14.3696 24.9356 14.1192 24.9359C14.0604 24.9359 14.0083 24.9065 13.9777 24.9058C13.9087 24.9043 13.9607 24.932 13.8908 24.9322C13.3197 24.9329 12.7464 24.9202 12.1686 24.9224C11.9417 24.9233 11.6655 24.952 11.4462 24.9441C11.355 24.9407 11.3384 24.9023 11.2739 24.9019C11.1589 24.9015 11.138 24.9507 11.0167 24.9556C10.9198 24.9594 10.8089 24.9103 10.7081 24.9134C10.6073 24.9164 10.5609 24.9641 10.4451 24.9698C10.3498 24.9745 10.2167 24.9528 10.1129 24.9563C9.16181 24.9885 8.22526 25.0081 7.26831 24.9708C6.93065 24.9576 6.55602 24.9645 6.20706 24.9176C6.17429 24.9131 6.22442 24.8671 6.11934 24.8767C6.06289 24.882 5.98406 24.9217 5.85357 24.9237C5.0777 24.9353 4.25012 24.8504 3.46122 24.8672C2.27952 24.8925 1.05483 25.2204 0.0279447 24.7406C-0.0224253 24.7171 0.00488894 24.6016 0.0350666 24.5688C0.0630721 24.5923 0.0889637 24.6201 0.118271 24.6466C0.155177 24.5023 0.148669 24.5399 0.285462 24.5528C0.36968 24.5609 0.302409 24.4992 0.347301 24.4817C0.405497 24.459 0.678734 24.3878 0.626184 24.4833C0.643121 24.4667 0.658754 24.4509 0.675256 24.4347C0.873069 24.4202 1.06526 24.3963 1.25873 24.3689C1.29215 24.3641 1.29369 24.3341 1.32821 24.3293C1.42093 24.3162 1.49453 24.3359 1.59007 24.3329C1.64197 24.3313 1.64917 24.2966 1.71714 24.2989C1.78506 24.3011 1.78357 24.3478 1.87625 24.297C1.81589 24.2383 2.08516 24.2809 2.18093 24.2773C2.19483 24.2768 2.30881 24.2241 2.3694 24.2302C2.43019 24.2361 2.52248 24.2698 2.61649 24.2507C2.66057 24.2417 2.68732 24.2007 2.73487 24.1983C2.76831 24.1967 2.80848 24.2332 2.85082 24.2347C2.89315 24.2362 2.98473 24.2063 3.00151 24.2058C3.06208 24.2038 2.99526 24.2294 3.03669 24.2307C3.23667 24.2366 3.46903 24.2503 3.66619 24.2331C3.69043 24.231 3.65689 24.2007 3.66011 24.1997C3.82467 24.1626 3.73684 24.202 3.78127 24.2291C3.82432 24.2553 4.1393 24.241 4.14162 24.1884C4.1513 24.2542 4.22132 24.204 4.23951 24.202C4.31028 24.1946 4.2964 24.2515 4.36501 24.2339C4.39018 24.2275 4.34116 24.189 4.36822 24.1901C4.4351 24.1929 4.49529 24.2548 4.58431 24.2609C4.60581 24.2625 4.61279 24.2349 4.65101 24.2359C4.68928 24.2368 4.84966 24.2705 4.77565 24.2124C4.87292 24.259 4.8925 24.2334 5.00563 24.2347C5.03429 24.2351 5.07119 24.2795 5.13218 24.2657C5.1528 24.261 5.15219 24.2183 5.18324 24.2179C5.25424 24.217 5.32113 24.2613 5.41123 24.263C5.57974 24.2664 5.75911 24.2353 5.93478 24.2464C5.98252 24.2494 5.97061 24.2924 6.04004 24.2932C6.05025 24.2932 6.13388 24.256 6.18187 24.2595C6.21075 24.2616 6.3604 24.2878 6.39058 24.2899C6.44049 24.2932 6.4494 24.2517 6.47674 24.2598C6.55578 24.2832 6.49237 24.3445 6.58747 24.2607C6.61874 24.3071 6.67433 24.3025 6.69213 24.3596C6.72448 24.297 6.76644 24.3572 6.82919 24.3362C6.89194 24.3152 6.94339 24.1939 6.9586 24.3244C6.98791 24.3086 7.1128 24.2815 7.13386 24.2795C7.19594 24.2739 7.16275 24.31 7.2096 24.3051C7.21785 24.3043 7.20921 24.2796 7.26214 24.2821C7.29689 24.2837 7.55145 24.2852 7.56665 24.2886C7.74008 24.3273 7.47214 24.3131 7.43463 24.3398C7.42802 24.3328 7.42146 24.3257 7.4144 24.3188C7.33776 24.3072 7.38139 24.3629 7.41613 24.3759C7.45088 24.3888 7.5158 24.364 7.54468 24.3823C7.55907 24.3915 7.55015 24.4584 7.50663 24.4503C7.5532 24.4709 7.48961 24.4926 7.50802 24.512C7.52827 24.5332 7.73751 24.5397 7.73862 24.5029C7.69954 24.5016 7.6509 24.5029 7.61138 24.5014C7.5597 24.4373 7.71668 24.2186 7.86064 24.306C7.96507 24.3692 7.79292 24.4195 8.04 24.3664C8.002 24.3638 7.96986 24.3579 7.93534 24.3552C7.93166 24.3072 7.98767 24.36 8.01654 24.3447C8.03041 24.3372 7.94493 24.3032 8.01915 24.2919C8.08298 24.3606 8.1321 24.2915 8.23915 24.2907C8.2094 24.3029 8.17961 24.3151 8.14986 24.3274C8.33074 24.3772 7.91061 24.3936 8.26234 24.4215C8.22001 24.4237 8.1779 24.4231 8.13536 24.4265C8.15598 24.4517 8.12298 24.5257 8.14144 24.5413C8.18985 24.5823 8.26148 24.5576 8.32053 24.5612C8.34637 24.5627 8.33034 24.5827 8.33251 24.5828C8.3679 24.585 8.36009 24.5557 8.39114 24.5539C8.43021 24.5515 8.54307 24.58 8.56137 24.5767C8.60871 24.5685 8.52988 24.5107 8.53445 24.5064C8.56463 24.4784 8.62628 24.5016 8.62304 24.465C8.4747 24.4902 8.04723 24.4578 8.43396 24.3973C8.32734 24.3382 8.35813 24.2566 8.51143 24.2502C8.63824 24.2448 8.55642 24.2775 8.62243 24.3134C8.63096 24.3179 8.80081 24.3351 8.80951 24.3097C8.8027 24.3682 8.85797 24.42 8.82088 24.4804C8.81546 24.4892 8.74575 24.4857 8.77008 24.5343C8.78223 24.5586 8.81713 24.6117 8.81151 24.6427C8.82583 24.6211 8.84082 24.5969 8.85537 24.5744C8.95981 24.5681 8.97465 24.5913 9.03176 24.6316C9.02916 24.6148 8.97639 24.5442 9.05652 24.5656C9.06063 24.5669 9.06418 24.5923 9.10489 24.6048C9.18718 24.63 9.20436 24.6378 9.1412 24.7122C9.31161 24.6698 9.34833 24.7527 9.52309 24.7285C9.48834 24.6328 9.4269 24.6565 9.26687 24.675C9.25992 24.6522 9.25666 24.6297 9.2495 24.6067C9.4625 24.6583 9.35725 24.653 9.47792 24.6068C9.50746 24.5955 9.66492 24.6076 9.61237 24.5432C9.59997 24.5281 9.50214 24.5298 9.51336 24.5059C9.51553 24.5014 9.63445 24.4898 9.64494 24.496C9.77653 24.5722 9.54138 24.6253 9.90376 24.5975C9.91374 24.5967 9.91725 24.5688 9.93676 24.565C9.97346 24.5577 9.97392 24.59 10.0067 24.5825C10.0395 24.5751 10.0849 24.5317 10.1342 24.5718C10.2243 24.6448 10.0117 24.6868 9.91705 24.6481C9.87862 24.7435 10.555 24.7456 10.5969 24.7375C10.7799 24.7019 10.4754 24.7224 10.4597 24.6959C10.4532 24.6847 10.4564 24.5428 10.3794 24.6349C10.3566 24.6622 10.4519 24.6982 10.395 24.7132C10.3381 24.7283 10.3606 24.6865 10.3565 24.6836C10.3424 24.6736 10.2819 24.6891 10.274 24.6831C10.1533 24.5932 10.1643 24.4573 10.3244 24.658C10.3941 24.6127 10.2341 24.5403 10.3207 24.5095C10.426 24.4721 10.5029 24.5368 10.5162 24.5398C10.6748 24.5743 10.4919 24.4798 10.6857 24.51C10.7936 24.5268 10.5242 24.5729 10.7706 24.5667C10.9769 24.5614 10.8655 24.5285 10.8805 24.4538C10.884 24.4363 10.9971 24.4148 10.8432 24.4225C10.8388 24.442 10.8306 24.4677 10.8208 24.4856C10.7831 24.4714 10.7201 24.3739 10.7001 24.3705C10.6022 24.3543 10.6069 24.4049 10.5492 24.3453C10.5904 24.4105 10.5233 24.3712 10.4981 24.385C10.4046 24.4357 10.5272 24.4546 10.3173 24.3894C10.3446 24.4199 10.3694 24.4499 10.3959 24.4804C10.3707 24.4814 10.3455 24.4825 10.3203 24.4835C10.2827 24.4162 10.149 24.4248 10.2701 24.3571C10.1244 24.3378 10.0655 24.3525 10.0336 24.4049C10.0275 24.4149 10.0057 24.4189 9.97993 24.4198C9.9848 24.4345 9.99102 24.48 9.98697 24.4856C9.95071 24.5347 9.8945 24.4499 9.91366 24.4176C9.89567 24.416 9.88143 24.4142 9.8764 24.4134C9.84453 24.4084 9.90701 24.3791 9.88118 24.3691C9.87266 24.3658 9.78286 24.3722 9.78112 24.3603C9.7703 24.2841 9.91808 24.3391 9.62132 24.2948C9.61415 24.3642 9.75199 24.3489 9.71659 24.4226C9.67859 24.5018 9.60108 24.3956 9.58414 24.4928C9.57785 24.4768 9.57507 24.4635 9.56964 24.4453C9.44958 24.4876 9.44799 24.4067 9.41131 24.3888C9.34008 24.3539 9.01263 24.3592 9.30665 24.4293C9.26365 24.4363 9.21976 24.4395 9.17698 24.4457C9.16721 24.3006 9.19326 24.3584 8.98721 24.3362C8.94183 24.3313 8.92705 24.2675 8.88255 24.3433C8.8886 24.2689 8.75438 24.3139 8.74185 24.3048C8.66151 24.2462 8.95981 24.1645 8.99806 24.2959C9.04842 24.2447 9.04824 24.3124 9.10446 24.3034C9.18567 24.2905 9.19695 24.2773 9.29336 24.3272C9.38825 24.2569 8.92187 24.2963 9.2046 24.203C9.48741 24.1097 11.1341 24.0576 11.5183 24.0436C12.2142 24.0183 12.5801 24.0017 13.2053 24.0059C13.2669 24.0063 13.7325 23.9995 13.6357 24.0808C13.6218 24.0925 13.4216 24.1234 13.5933 24.1872C13.5584 24.1495 13.6594 24.1251 13.6679 24.1211C13.8622 24.0311 13.7497 24.009 14.0557 24.0081ZM14.9627 24.7331C14.5633 24.7145 14.8567 24.7689 14.7738 24.8916C14.825 24.8919 14.8761 24.8923 14.9273 24.8926C14.9138 24.8849 14.9006 24.8772 14.8871 24.8695C14.887 24.8695 14.887 24.8695 14.8869 24.8695C14.9121 24.824 14.9375 24.7785 14.9627 24.7331ZM21.4904 24.8152C21.4748 24.8314 21.4594 24.8476 21.4425 24.8634C21.3898 24.8584 21.3372 24.8534 21.2845 24.8484C21.2908 24.8374 21.2968 24.8264 21.3031 24.8154C21.3656 24.8159 21.4278 24.8164 21.4904 24.8152ZM9.8612 24.6659C9.78651 24.621 9.79325 24.7011 9.69401 24.6646C9.70617 24.7237 9.71968 24.7816 9.73249 24.8401C9.80802 24.8314 9.82519 24.8089 9.90724 24.8233C9.89768 24.8043 9.88791 24.7852 9.87857 24.7661C9.86491 24.7702 9.85038 24.7748 9.83714 24.7784C9.81609 24.7252 9.9472 24.7173 9.86146 24.6657C9.86138 24.6658 9.86129 24.6658 9.8612 24.6659ZM9.09577 24.6897C9.0556 24.682 8.89645 24.653 8.87473 24.6775C8.80112 24.7606 9.25014 24.7079 8.9192 24.7817C8.92072 24.7934 8.9192 24.8048 8.9192 24.8163C8.97957 24.8204 9.03975 24.8239 9.10055 24.8272C9.09729 24.7812 9.09946 24.7358 9.09577 24.6897ZM13.5184 24.7382C13.4566 24.7318 13.1623 24.7709 13.2583 24.8234C13.2865 24.8388 13.4179 24.7636 13.4678 24.7669C13.5002 24.769 13.4639 24.8102 13.5278 24.7951C13.5249 24.7769 13.5232 24.7567 13.5182 24.7383C13.5183 24.7383 13.5183 24.7382 13.5184 24.7382ZM13.6342 24.4981C13.5703 24.5055 13.5056 24.5148 13.4413 24.5226C13.4883 24.5696 13.5805 24.5394 13.586 24.6056C13.5684 24.6106 13.551 24.6156 13.5334 24.6206C13.52 24.6061 13.5067 24.5916 13.4935 24.5772C13.4383 24.6131 13.4717 24.6309 13.369 24.6206C13.4311 24.7205 13.4426 24.7742 13.6185 24.6731C13.5853 24.7273 13.6166 24.904 13.7141 24.7777C13.7323 24.7543 13.6561 24.7386 13.6553 24.7349C13.6435 24.6885 13.6858 24.6589 13.6732 24.615C13.6676 24.5952 13.6211 24.5955 13.6142 24.568C13.611 24.5545 13.6552 24.5162 13.6342 24.4981ZM13.7614 24.7335C13.7416 24.7616 13.8092 24.8283 13.8678 24.8148C13.9592 24.7938 13.815 24.7303 13.7614 24.7335ZM21.4907 24.8151C21.4906 24.8152 21.4905 24.8152 21.4904 24.8152C21.4905 24.8151 21.4905 24.8151 21.4906 24.815C21.4906 24.8151 21.4907 24.8151 21.4907 24.8151ZM9.30292 24.7222C9.25559 24.7461 9.18553 24.7426 9.1907 24.7806C9.16769 24.7731 9.14441 24.7658 9.12139 24.7583C9.12161 24.7697 9.12205 24.7812 9.12226 24.7925C9.19152 24.7996 9.26058 24.8068 9.32984 24.814C9.32115 24.7834 9.31312 24.7528 9.30292 24.7222ZM8.54834 24.6956C8.46128 24.6917 8.53427 24.7434 8.51516 24.7684C8.49605 24.7934 8.4185 24.7731 8.42762 24.8089C8.47886 24.8103 8.53231 24.8117 8.58421 24.813C8.57053 24.774 8.56098 24.7343 8.54817 24.6956C8.54823 24.6956 8.54828 24.6956 8.54834 24.6956ZM16.5924 24.7738C16.5333 24.7626 16.5574 24.7231 16.4408 24.7693C16.4409 24.7693 16.441 24.7693 16.4411 24.7693C16.552 24.8016 16.6949 24.8304 16.8173 24.7992C16.7424 24.7575 16.6853 24.7913 16.5924 24.7738ZM10.0677 24.7823C10.0927 24.751 9.97654 24.7249 9.95092 24.7539C9.90946 24.8009 10.0297 24.8297 10.0677 24.7823ZM18.9778 24.4969C19.0676 24.4007 18.8974 24.2927 18.7191 24.3393C18.7037 24.3434 18.8188 24.374 18.7847 24.3928C18.7812 24.3946 18.7181 24.3923 18.7024 24.4057C18.6868 24.4191 18.7032 24.4503 18.6776 24.4633C18.6326 24.4862 18.531 24.4439 18.4974 24.4738C18.4929 24.4779 18.556 24.5195 18.5599 24.5211C18.6246 24.5463 18.687 24.4918 18.697 24.4915C18.7484 24.4896 18.7406 24.5323 18.7537 24.5423C18.7782 24.5612 18.8214 24.5423 18.8245 24.5437C18.9026 24.5812 18.7241 24.5704 18.7 24.5858C18.6351 24.6274 18.6952 24.666 18.5395 24.6894C18.5247 24.6916 18.3477 24.6891 18.5708 24.7369C18.1329 24.8365 18.7908 24.7936 18.8622 24.7716C18.8952 24.7615 18.8453 24.7208 18.8653 24.7025C18.9109 24.6606 18.9886 24.6532 18.9817 24.5942C18.9667 24.4701 18.8646 24.5514 18.7942 24.5305C18.8016 24.5036 18.8044 24.4773 18.8181 24.451C18.7971 24.4864 18.9712 24.5042 18.9778 24.4972C18.9778 24.4971 18.9778 24.497 18.9778 24.4969ZM17.8692 24.6387C17.7708 24.6013 17.7778 24.6796 17.6877 24.6348C17.6082 24.7051 17.7649 24.7004 17.7832 24.7044C17.8666 24.7221 17.8646 24.7986 17.9499 24.775C17.9206 24.7298 17.8967 24.6841 17.8692 24.6387ZM18.7248 24.671C18.659 24.7106 18.7767 24.71 18.7815 24.7176C18.8335 24.798 18.4809 24.7824 18.7248 24.671ZM13.1352 24.5806C13.1018 24.5779 13.123 24.6159 13.0935 24.6271C13.064 24.6384 12.963 24.6059 12.9656 24.6295C12.9682 24.6532 13.1531 24.7146 12.9675 24.7279C12.9738 24.7412 12.9716 24.7511 12.9747 24.7631C13.0257 24.7635 13.0772 24.7641 13.1282 24.7644C13.1002 24.7262 13.0715 24.6859 13.0446 24.6489C13.0733 24.6185 13.0894 24.6576 13.0909 24.6576C13.0909 24.6575 13.0909 24.6575 13.0909 24.6574C13.1443 24.6544 13.2103 24.5866 13.1352 24.5806ZM15.7667 24.6998C15.7767 24.6047 15.6979 24.7109 15.6656 24.7227C15.6332 24.7344 15.5887 24.6992 15.6054 24.7401C15.6578 24.7684 15.7656 24.7104 15.7667 24.6997C15.7667 24.6997 15.7667 24.6998 15.7667 24.6998ZM17.3348 24.6389C17.2523 24.662 17.2654 24.6867 17.1645 24.6585C17.1684 24.6815 17.1724 24.7049 17.1763 24.7276C17.2564 24.728 17.2507 24.6613 17.3435 24.6881C17.3586 24.6926 17.3261 24.7459 17.3947 24.7287C17.3747 24.7003 17.3545 24.6687 17.3348 24.6389ZM16.9261 24.7241C17.0208 24.7206 17.0959 24.5346 16.9215 24.6185C16.8957 24.631 16.8549 24.7268 16.9261 24.7241ZM14.0085 24.5759C13.8474 24.5705 14.0304 24.6005 14.0723 24.6291C13.6974 24.652 14.1147 24.6213 14.1521 24.7163C14.1979 24.6893 14.2836 24.6274 14.1884 24.6108C14.1486 24.6039 14.1631 24.6322 14.1607 24.6321C14.0876 24.6251 14.0964 24.5788 14.0085 24.5759ZM18.0401 24.6341C18.034 24.6355 18.0435 24.6676 18.0242 24.674C18.0049 24.6804 17.9611 24.6579 17.9567 24.6776C17.9524 24.6975 18.0402 24.7128 18.0672 24.6984C18.0941 24.6838 18.095 24.6218 18.0401 24.6341ZM17.4221 24.555C17.3416 24.5781 17.4732 24.6964 17.4907 24.6958C17.6444 24.6896 17.4175 24.5925 17.4221 24.555ZM14.3825 24.375C14.1884 24.4351 14.3304 24.5395 14.452 24.602C14.468 24.5893 14.4845 24.5766 14.5003 24.564C14.4274 24.6412 14.2995 24.7175 14.584 24.6502C14.4283 24.6321 14.5587 24.6113 14.5597 24.607C14.5768 24.4651 14.3462 24.531 14.3827 24.375C14.3826 24.375 14.3825 24.375 14.3825 24.375ZM18.3018 24.6679C18.3863 24.6675 18.6059 24.643 18.5035 24.5811C18.4361 24.6101 18.3691 24.639 18.3018 24.6679ZM11.2043 24.3833C11.1352 24.348 11.0716 24.3486 10.9865 24.3509C11.0631 24.4024 11.0127 24.4083 10.9869 24.4209C10.9477 24.4398 11.0427 24.4383 11.0429 24.4417C11.0412 24.4906 10.9806 24.4982 11.1185 24.497C11.0844 24.5141 11.0508 24.5312 11.0167 24.5481C11.1218 24.5503 11.1465 24.5822 11.2131 24.6212C11.1484 24.526 11.2336 24.5856 11.3109 24.5382C11.3495 24.5145 11.2394 24.4014 11.204 24.3833C11.2041 24.3833 11.2042 24.3833 11.2043 24.3833ZM14.1819 24.3559C14.1619 24.3731 14.1436 24.3963 14.1243 24.4159C14.1032 24.4177 14.0821 24.4194 14.061 24.4212C14.0584 24.4061 14.0563 24.3902 14.0532 24.3756C14.0255 24.3712 14.0363 24.3923 14.028 24.3943C14.028 24.3942 14.028 24.3941 14.028 24.3941C13.9097 24.422 13.8613 24.4189 13.7686 24.372C13.7686 24.4185 13.7686 24.4649 13.7686 24.5114C13.7894 24.5069 13.8105 24.5026 13.8313 24.4983C13.8424 24.4734 13.8535 24.4484 13.8646 24.4234C13.8887 24.4372 13.9126 24.4509 13.9367 24.4646C13.956 24.4556 13.9792 24.4462 13.9959 24.4375C14.0921 24.5673 13.8735 24.4791 13.8715 24.533C13.8702 24.5676 14.0904 24.5661 14.1221 24.5422C14.1267 24.5387 14.0791 24.442 14.1596 24.4924C14.1722 24.5003 14.1766 24.7095 14.2635 24.5401C14.2759 24.5161 14.2326 24.3862 14.1819 24.3559ZM13.3825 24.2885C13.5062 24.4223 13.0494 24.2808 13.2465 24.3909C13.1903 24.4524 13.2007 24.4516 13.2574 24.5061C13.2624 24.511 13.2232 24.5279 13.2266 24.5301C13.2795 24.5601 13.3434 24.5442 13.3438 24.5989C13.3581 24.596 13.3716 24.5934 13.3859 24.5905C13.3263 24.5389 13.4212 24.5043 13.4578 24.4608C13.4746 24.4411 13.4361 24.435 13.4502 24.4177C13.4554 24.4115 13.5091 24.424 13.5113 24.406C13.5158 24.3651 13.4821 24.31 13.425 24.2799C13.425 24.2798 13.425 24.2798 13.425 24.2797C13.4107 24.2824 13.3968 24.2857 13.3825 24.2885ZM16.0278 24.3996C16.0489 24.4736 16.1333 24.4947 15.9711 24.5309C15.9791 24.5455 15.9874 24.5599 15.9954 24.5745C16.0228 24.5732 16.0493 24.5719 16.0771 24.5708C16.1604 24.3529 16.3126 24.5988 16.2152 24.4442C16.2045 24.4274 16.1396 24.4462 16.2037 24.4006C16.2036 24.4006 16.2035 24.4005 16.2034 24.4005C16.114 24.4145 16.1027 24.4407 16.0278 24.3996ZM15.4291 24.4512C15.2228 24.6068 15.7142 24.538 15.6321 24.4967C15.6247 24.493 15.4131 24.5264 15.4291 24.4512ZM17.0845 24.3158C16.992 24.3131 16.9858 24.397 16.9952 24.4273C17.0045 24.4576 17.0686 24.4269 17.0768 24.4317C17.1037 24.4475 17.0466 24.4579 17.0816 24.4795C17.0932 24.4865 17.2543 24.5164 17.2616 24.5128C17.3026 24.4927 17.2427 24.4234 17.2544 24.4155C17.2926 24.3895 17.3445 24.4255 17.3556 24.3887C17.3795 24.3101 17.2828 24.3926 17.2664 24.3939C17.2171 24.3977 17.2214 24.3534 17.1845 24.3446C17.1476 24.3357 17.1235 24.3509 17.091 24.3477C17.0802 24.3467 17.0891 24.316 17.0845 24.3158ZM16.7787 24.4931C16.8752 24.4295 16.6401 24.3604 16.6122 24.3753C16.5301 24.4195 16.7324 24.5234 16.7787 24.4931ZM13.6924 24.4904C13.7807 24.4443 13.5749 24.407 13.516 24.4256C13.527 24.4447 13.662 24.5062 13.6924 24.4904ZM14.4363 24.3753C14.3551 24.3896 14.4628 24.4934 14.5306 24.4918C14.5703 24.4236 14.5329 24.4371 14.4886 24.4343C14.4444 24.4315 14.4997 24.3641 14.4363 24.3753ZM18.0876 24.3916C18.0701 24.3905 17.7877 24.4469 17.9499 24.4704C17.9623 24.4721 18.16 24.4622 18.175 24.4517C18.2051 24.4305 18.1328 24.3947 18.0876 24.3916ZM14.8259 24.2745C14.7829 24.3335 14.7406 24.3327 14.7801 24.402C14.7801 24.402 14.7802 24.402 14.7803 24.402C14.6715 24.4232 14.6667 24.2815 14.6432 24.2845C14.5612 24.2951 14.6389 24.396 14.5875 24.4292C14.7071 24.398 14.6728 24.466 14.7638 24.4704C14.7842 24.4713 14.8659 24.4307 14.8778 24.4054C14.8897 24.38 14.848 24.3041 14.8259 24.2745ZM18.4865 24.3769C18.3912 24.3543 18.3039 24.4499 18.4361 24.4651C18.5006 24.4726 18.5447 24.3907 18.4865 24.3769ZM8.95829 24.353C8.97283 24.3781 8.98782 24.403 9.00345 24.4279C8.96829 24.4339 8.93309 24.4401 8.89792 24.4463C8.92572 24.4384 8.95355 24.4306 8.98156 24.4228C8.91555 24.414 8.88537 24.3684 8.95811 24.353C8.95817 24.353 8.95823 24.353 8.95829 24.353ZM6.60815 24.3339C6.57861 24.3097 6.52043 24.3845 6.52781 24.3903C6.58338 24.4338 6.64913 24.3674 6.60815 24.3339ZM13.5618 24.2633C13.452 24.2528 13.5275 24.3744 13.5948 24.3827C13.5536 24.3595 13.6241 24.2692 13.5618 24.2633ZM7.43463 24.3398C7.44449 24.3503 7.45442 24.3607 7.46547 24.3712C7.43074 24.3566 7.42472 24.3469 7.43463 24.3398ZM18.0427 24.2843C18.0259 24.2749 17.902 24.2672 17.8852 24.2788C17.8505 24.303 17.9472 24.3702 18.0041 24.3495C18.0103 24.3473 18.0594 24.2936 18.0424 24.2843C18.0425 24.2843 18.0426 24.2843 18.0427 24.2843ZM8.80977 24.3064C8.80996 24.3076 8.80986 24.3087 8.80951 24.3097C8.80963 24.3086 8.8096 24.3075 8.80977 24.3064ZM4.14067 24.1829C4.14134 24.1848 4.1417 24.1866 4.14162 24.1884C4.14136 24.1867 4.14084 24.1848 4.14067 24.1829ZM17.1684 24.1811C17.1272 24.0652 17.0321 24.1268 17.1072 24.1841C17.1114 24.1871 17.1584 24.1808 17.1684 24.1811Z" fill="black"/>
<path d="M20.0081 10.8713C20.0055 10.1433 19.9901 9.34634 20.0102 8.61545C20.0126 8.52572 20.0462 8.53185 20.0506 8.50668C20.0629 8.43786 20.0232 8.39642 20.0261 8.34626C20.0401 8.10241 20.0458 7.87431 20.0586 7.63508C20.0716 7.38866 20.176 7.50522 20.2014 7.4196C20.2512 7.2523 20.1151 7.3946 20.0846 7.32884C20.0927 7.13706 20.1075 6.94356 20.1224 6.75143C20.1351 6.79834 20.1475 6.84525 20.1593 6.89267C20.1621 6.80893 20.1831 6.68908 20.2187 6.82931C20.2285 6.79831 20.24 6.76938 20.2495 6.73753C20.2 6.7288 20.196 6.58053 20.1666 6.56698C20.1372 6.55345 20.1439 6.63681 20.1414 6.63629C20.1048 6.63077 20.1548 6.28882 20.1589 6.26416C20.1698 6.19897 20.2312 6.25613 20.2273 6.20067C20.2205 6.10528 20.0955 6.16883 20.2617 6.03971C20.2077 5.98834 20.2357 5.98386 20.2395 5.91881C20.2399 5.91025 20.2087 5.9169 20.2078 5.91313C20.1846 5.81468 20.2428 5.89035 20.2459 5.88984C20.2994 5.8809 20.2757 5.77525 20.2808 5.75299C20.3447 5.4737 20.388 5.26905 20.4028 4.97434C20.4059 4.91063 20.3842 4.7166 20.3933 4.65495C20.4023 4.59415 20.4409 4.62677 20.4594 4.59495C20.3666 4.54394 20.3564 4.49529 20.4175 4.38077C20.3499 4.33813 20.4044 4.34361 20.3909 4.26193C20.3797 4.19394 20.2985 4.07545 20.3677 4.00062C20.3614 4.08642 20.3946 4.07753 20.4147 4.17412C20.4213 4.20627 20.4228 4.54154 20.4919 4.51659C20.5279 4.50358 20.4948 4.39246 20.5015 4.38816C20.5402 4.36316 20.5878 4.42518 20.5711 4.48015C20.5633 4.46645 20.5554 4.44995 20.5476 4.43522C20.4992 4.55869 20.6851 4.47378 20.5226 4.56762C20.5027 4.57923 20.4819 4.57472 20.4607 4.59385C20.4695 4.59779 20.4912 4.57438 20.4951 4.59454C20.499 4.6151 20.4578 4.65413 20.4925 4.65995C20.543 4.66865 20.5231 4.58348 20.5261 4.57707C20.5258 4.577 20.5255 4.57693 20.5252 4.57687C20.552 4.5202 20.5551 4.63854 20.5598 4.6442C20.5913 4.6808 20.6156 4.65584 20.6416 4.71077C20.6564 4.74211 20.6476 4.82194 20.6524 4.85139C20.6573 4.88066 20.6812 4.83512 20.6864 4.85482C20.6915 4.87451 20.6733 4.89903 20.6793 4.92215C20.6819 4.93205 20.7086 4.93153 20.7095 4.93633C20.7198 4.98768 20.6643 4.954 20.6677 5.00057C20.6699 5.03075 20.7216 5.13203 20.737 5.06222C20.7424 5.09578 20.7463 5.1285 20.7505 5.16188C20.7584 5.14082 20.7638 5.11907 20.7732 5.09852C20.7605 5.16134 20.8061 5.18977 20.8095 5.22914C20.8129 5.26853 20.7581 5.30384 20.7848 5.34716C20.8416 5.43963 20.8154 5.21065 20.8255 5.18222C20.8295 5.17114 20.8724 5.21369 20.8736 5.22024C20.879 5.24934 20.8483 5.28376 20.8497 5.3062C20.8548 5.38651 20.8953 5.43569 20.9035 5.51223C20.9312 5.77287 20.9537 6.0962 20.9626 6.34314C20.9659 6.4351 20.9204 6.49043 20.9217 6.5317C20.9247 6.62826 20.9643 6.64009 20.9665 6.72431C20.9697 6.84966 20.9351 7.02626 20.9276 7.13089C20.9225 7.20333 20.9609 7.26891 20.9618 7.28775C20.9756 7.54959 20.9747 7.86812 20.9752 8.08509C20.9754 8.18714 20.9323 8.2356 20.9336 8.25667C20.9389 8.34725 20.9758 8.32297 20.9721 8.3964C20.9701 8.43607 20.9347 8.44349 20.9333 8.4488C20.9216 8.49555 20.9679 8.50486 20.9694 8.54133C20.9781 8.7511 20.9479 8.95316 20.9434 9.16087C20.9431 9.17594 20.9226 9.1746 20.9237 9.18436C20.9287 9.22628 20.9609 9.20679 20.9633 9.2506C20.9683 9.3417 20.963 9.43525 20.9589 9.53184C20.9585 9.5414 20.9322 9.5457 20.9322 9.56759C20.9322 9.58951 20.9571 9.60613 20.9557 9.64054C20.9521 9.73044 20.9223 9.81916 20.9206 9.91438C20.9204 9.93013 20.9521 9.94965 20.9517 9.97328C20.9507 10.0474 20.9219 10.1572 20.9209 10.2208C20.9176 10.4304 20.9356 10.6237 20.9359 10.8212C20.9359 10.8676 20.9065 10.9087 20.9058 10.9328C20.9043 10.9872 20.932 10.9462 20.9322 11.0013C20.9329 11.4517 20.9202 11.9038 20.9224 12.3595C20.9233 12.5385 20.952 12.7563 20.9441 12.9292C20.9407 13.0012 20.9023 13.0142 20.9019 13.0651C20.9015 13.1558 20.9507 13.1722 20.9556 13.2679C20.9594 13.3443 20.9103 13.4318 20.9134 13.5113C20.9164 13.5908 20.9641 13.6274 20.9698 13.7187C20.9745 13.7939 20.9528 13.8988 20.9563 13.9807C20.9885 14.7308 21.0081 15.4693 20.9708 16.224C20.9576 16.4903 20.9645 16.7858 20.9176 17.061C20.9131 17.0868 20.8671 17.0473 20.8767 17.1301C20.882 17.1747 20.9217 17.2368 20.9237 17.3397C20.9353 17.9516 20.8504 18.6043 20.8672 19.2264C20.8925 20.1584 21.2204 21.1242 20.7406 21.934C20.7171 21.9737 20.6016 21.9522 20.5688 21.9284C20.5923 21.9063 20.6201 21.8859 20.6466 21.8628C20.5023 21.8337 20.5399 21.8388 20.5528 21.7309C20.5609 21.6645 20.4992 21.7176 20.4817 21.6822C20.459 21.6363 20.3878 21.4208 20.4833 21.4622C20.4667 21.4489 20.4509 21.4365 20.4347 21.4235C20.4202 21.2675 20.3963 21.116 20.3689 20.9634C20.3641 20.937 20.3341 20.9358 20.3293 20.9086C20.3162 20.8355 20.3359 20.7774 20.3329 20.7021C20.3313 20.6611 20.2966 20.6555 20.2989 20.6019C20.3011 20.5483 20.3478 20.5495 20.297 20.4764C20.2383 20.524 20.2809 20.3116 20.2773 20.2361C20.2768 20.2251 20.2241 20.1353 20.2302 20.0875C20.2361 20.0395 20.2698 19.9667 20.2507 19.8926C20.2417 19.8578 20.2007 19.8367 20.1983 19.7992C20.1967 19.7729 20.2332 19.7412 20.2347 19.7078C20.2362 19.6744 20.2063 19.6022 20.2058 19.589C20.2038 19.5412 20.2294 19.5939 20.2307 19.5612C20.2366 19.4035 20.2503 19.2203 20.2331 19.0648C20.231 19.0457 20.2007 19.0721 20.1997 19.0696C20.1626 18.9398 20.202 19.0091 20.2291 18.974C20.2553 18.9401 20.241 18.6917 20.1884 18.6898C20.2542 18.6822 20.204 18.627 20.202 18.6126C20.1946 18.5568 20.2515 18.5678 20.2339 18.5137C20.2275 18.4938 20.189 18.5325 20.1901 18.5111C20.1929 18.4584 20.2548 18.4109 20.2609 18.3407C20.2625 18.3238 20.2349 18.3183 20.2359 18.2881C20.2368 18.2579 20.2705 18.1315 20.2124 18.1898C20.259 18.1131 20.2334 18.0977 20.2347 18.0085C20.2351 17.9859 20.2795 17.9568 20.2657 17.9087C20.261 17.8924 20.2183 17.8929 20.2179 17.8684C20.217 17.8124 20.2613 17.7596 20.263 17.6886C20.2664 17.5557 20.2353 17.4142 20.2464 17.2757C20.2494 17.238 20.2924 17.2474 20.2932 17.1927C20.2932 17.1846 20.256 17.1187 20.2595 17.0808C20.2616 17.0581 20.2878 16.94 20.2899 16.9162C20.2932 16.8769 20.2517 16.8699 20.2598 16.8483C20.2832 16.786 20.3445 16.836 20.2607 16.761C20.3071 16.7363 20.3025 16.6925 20.3596 16.6784C20.297 16.6529 20.3572 16.6198 20.3362 16.5703C20.3152 16.5208 20.1939 16.4803 20.3244 16.4683C20.3086 16.4452 20.2815 16.3467 20.2795 16.3301C20.2739 16.2811 20.31 16.3073 20.3051 16.2703C20.3043 16.2638 20.2796 16.2706 20.2821 16.2289C20.2837 16.2015 20.2852 16.0007 20.2886 15.9888C20.3273 15.852 20.3131 16.0633 20.3398 16.0929C20.3328 16.0981 20.3257 16.1033 20.3188 16.1088C20.3072 16.1693 20.3629 16.1349 20.3759 16.1075C20.3888 16.0801 20.364 16.0289 20.3823 16.0061C20.3915 15.9947 20.4584 16.0018 20.4503 16.0361C20.4709 15.9994 20.4926 16.0495 20.512 16.035C20.5332 16.019 20.5397 15.854 20.5029 15.8531C20.5016 15.884 20.5029 15.9223 20.5014 15.9535C20.4373 15.9942 20.2186 15.8704 20.306 15.7569C20.3692 15.6745 20.4195 15.8103 20.3664 15.6155C20.3638 15.6454 20.3579 15.6708 20.3552 15.698C20.3072 15.7009 20.36 15.6567 20.3447 15.634C20.3372 15.623 20.3032 15.6904 20.2919 15.6319C20.3606 15.5816 20.2915 15.5428 20.2907 15.4584C20.3029 15.4819 20.3151 15.5053 20.3274 15.5288C20.3772 15.3862 20.3936 15.7175 20.4215 15.4401C20.4237 15.4735 20.4231 15.5067 20.4265 15.5403C20.4517 15.524 20.5257 15.55 20.5413 15.5355C20.5823 15.4973 20.5576 15.4408 20.5612 15.3942C20.5627 15.3738 20.5827 15.3865 20.5828 15.3848C20.585 15.3569 20.5557 15.363 20.5539 15.3385C20.5515 15.3077 20.58 15.2187 20.5767 15.2043C20.5685 15.167 20.5107 15.2291 20.5064 15.2255C20.4784 15.2017 20.5016 15.1531 20.465 15.1557C20.4902 15.2726 20.4578 15.6097 20.3973 15.3048C20.3382 15.3888 20.2566 15.3646 20.2502 15.2437C20.2448 15.1437 20.2775 15.2082 20.3134 15.1561C20.3179 15.1494 20.3351 15.0155 20.3097 15.0086C20.3682 15.014 20.42 14.9704 20.4804 14.9996C20.4892 15.0039 20.4857 15.0589 20.5343 15.0397C20.5586 15.0301 20.6117 15.0026 20.6427 15.007C20.6211 14.9957 20.5969 14.9839 20.5744 14.9724C20.5681 14.8901 20.5913 14.8784 20.6316 14.8333C20.6148 14.8354 20.5442 14.877 20.5656 14.8138C20.5669 14.8106 20.5923 14.8078 20.6048 14.7756C20.63 14.7108 20.6378 14.6972 20.7122 14.747C20.6698 14.6126 20.7527 14.5837 20.7285 14.4458C20.6328 14.4732 20.6565 14.5217 20.675 14.6479C20.6522 14.6534 20.6297 14.656 20.6067 14.6616C20.6583 14.4936 20.653 14.5766 20.6068 14.4815C20.5955 14.4582 20.6076 14.334 20.5432 14.3754C20.5281 14.3852 20.5298 14.4624 20.5059 14.4535C20.5014 14.4518 20.4898 14.358 20.496 14.3497C20.5722 14.246 20.6253 14.4314 20.5975 14.1456C20.5967 14.1378 20.5688 14.135 20.565 14.1196C20.5577 14.0907 20.59 14.0903 20.5825 14.0645C20.5751 14.0386 20.5317 14.0028 20.5718 13.9639C20.6448 13.8928 20.6868 14.0605 20.6481 14.1352C20.7435 14.1655 20.7456 13.632 20.7375 13.599C20.7019 13.4546 20.7224 13.6948 20.6959 13.7072C20.6847 13.7123 20.5428 13.7098 20.6349 13.7706C20.6622 13.7885 20.6982 13.7134 20.7132 13.7582C20.7283 13.8031 20.6865 13.7853 20.6836 13.7886C20.6736 13.7997 20.6891 13.8474 20.6831 13.8536C20.5932 13.9489 20.4573 13.9401 20.658 13.8139C20.6127 13.7589 20.5403 13.8851 20.5095 13.8168C20.4721 13.7337 20.5368 13.6731 20.5398 13.6627C20.5743 13.5375 20.4798 13.6818 20.51 13.529C20.5268 13.4439 20.5729 13.6563 20.5667 13.462C20.5614 13.2993 20.5285 13.3872 20.4538 13.3753C20.4363 13.3726 20.4148 13.2834 20.4225 13.4048C20.442 13.4082 20.4677 13.4147 20.4856 13.4224C20.4714 13.4522 20.3739 13.5018 20.3705 13.5176C20.3543 13.5948 20.4049 13.5911 20.3453 13.6366C20.4105 13.6041 20.3712 13.6571 20.385 13.6769C20.4357 13.7507 20.4546 13.654 20.3894 13.8195C20.4199 13.798 20.4499 13.7784 20.4804 13.7575C20.4814 13.7774 20.4825 13.7973 20.4835 13.8171C20.4162 13.8468 20.4248 13.9523 20.3571 13.8567C20.3378 13.9716 20.3525 14.0181 20.4049 14.0432C20.4149 14.048 20.4189 14.0653 20.4198 14.0856C20.4345 14.0817 20.48 14.0768 20.4856 14.08C20.5347 14.1086 20.4499 14.1529 20.4176 14.1378C20.416 14.152 20.4142 14.1632 20.4134 14.1672C20.4084 14.1923 20.3791 14.1431 20.3691 14.1634C20.3658 14.1702 20.3722 14.241 20.3603 14.2423C20.2841 14.2509 20.3391 14.1343 20.2948 14.3684C20.3642 14.374 20.3489 14.2653 20.4226 14.2932C20.5018 14.3232 20.3956 14.3843 20.4928 14.3977C20.4768 14.4027 20.4635 14.4049 20.4453 14.4091C20.4876 14.5038 20.4067 14.5051 20.3888 14.534C20.3539 14.5902 20.3592 14.8484 20.4293 14.6165C20.4363 14.6504 20.4395 14.6851 20.4457 14.7188C20.3006 14.7265 20.3584 14.706 20.3362 14.8685C20.3313 14.9042 20.2675 14.9159 20.3433 14.951C20.2689 14.9462 20.3139 15.0521 20.3048 15.062C20.2462 15.1253 20.1645 14.8901 20.2959 14.8599C20.2447 14.8202 20.3124 14.8203 20.3034 14.776C20.2905 14.7119 20.2773 14.703 20.3272 14.627C20.2569 14.5522 20.2963 14.92 20.203 14.697C20.1097 14.474 20.0576 13.1753 20.0436 12.8724C20.0183 12.3235 20.0017 12.035 20.0059 11.5419C20.0063 11.4933 19.9995 11.1262 20.0808 11.2025C20.0925 11.2134 20.1234 11.3714 20.1872 11.2359C20.1495 11.2635 20.1251 11.1838 20.1211 11.1771C20.0311 11.0239 20.009 11.1126 20.0081 10.8713ZM20.7331 10.156C20.7145 10.4709 20.7689 10.2396 20.8916 10.305C20.8919 10.2646 20.8923 10.2243 20.8926 10.1839C20.8849 10.1945 20.8772 10.205 20.8695 10.2156C20.8695 10.2157 20.8695 10.2157 20.8695 10.2158C20.824 10.1959 20.7785 10.1759 20.7331 10.156ZM20.8152 5.00804C20.8314 5.02032 20.8476 5.03247 20.8634 5.04578C20.8584 5.08739 20.8534 5.12883 20.8484 5.17044C20.8374 5.16548 20.8264 5.16068 20.8154 5.15571C20.8159 5.1065 20.8164 5.05743 20.8152 5.00804ZM20.6659 14.1792C20.621 14.2381 20.7011 14.2328 20.6646 14.311C20.7237 14.3015 20.7816 14.2908 20.8401 14.2807C20.8314 14.2211 20.8089 14.2076 20.8233 14.1429C20.8043 14.1504 20.7852 14.1581 20.7661 14.1655C20.7702 14.1763 20.7748 14.1877 20.7784 14.1982C20.7252 14.2148 20.7173 14.1114 20.6657 14.179C20.6658 14.1791 20.6658 14.1791 20.6659 14.1792ZM20.6897 14.7828C20.682 14.8145 20.653 14.94 20.6775 14.9572C20.7606 15.0152 20.7079 14.6611 20.7817 14.9221C20.7934 14.9209 20.8048 14.9221 20.8163 14.9221C20.8204 14.8745 20.8239 14.827 20.8272 14.7791C20.7812 14.7816 20.7358 14.7799 20.6897 14.7828ZM20.7382 11.295C20.7318 11.3437 20.7709 11.5758 20.8234 11.5002C20.8388 11.4779 20.7636 11.3743 20.7669 11.3349C20.769 11.3094 20.8102 11.338 20.7951 11.2876C20.7769 11.2898 20.7567 11.2912 20.7383 11.2952C20.7383 11.2951 20.7382 11.2951 20.7382 11.295ZM20.4981 11.2037C20.5055 11.2541 20.5148 11.3051 20.5226 11.3558C20.5696 11.3188 20.5394 11.246 20.6056 11.2417C20.6106 11.2556 20.6156 11.2693 20.6206 11.2832C20.6061 11.2938 20.5916 11.3042 20.5772 11.3147C20.6131 11.3582 20.6309 11.3318 20.6206 11.4128C20.7205 11.3639 20.7742 11.3548 20.6731 11.216C20.7273 11.2423 20.904 11.2176 20.7777 11.1407C20.7543 11.1263 20.7386 11.1864 20.7349 11.1871C20.6885 11.1963 20.6589 11.163 20.615 11.1729C20.5952 11.1774 20.5955 11.214 20.568 11.2195C20.5545 11.222 20.5162 11.1872 20.4981 11.2037ZM20.7335 11.1034C20.7616 11.119 20.8283 11.0657 20.8148 11.0195C20.7938 10.9474 20.7303 11.0611 20.7335 11.1034ZM20.8151 5.00777C20.8152 5.00786 20.8152 5.00795 20.8152 5.00804C20.8151 5.008 20.8151 5.00795 20.815 5.0079C20.8151 5.00786 20.8151 5.00781 20.8151 5.00777ZM20.7222 14.6195C20.7461 14.6568 20.7426 14.7121 20.7806 14.708C20.7731 14.7261 20.7658 14.7445 20.7583 14.7626C20.7697 14.7625 20.7812 14.7621 20.7925 14.7619C20.7996 14.7073 20.8068 14.6529 20.814 14.5982C20.7834 14.6051 20.7528 14.6114 20.7222 14.6195ZM20.6956 15.2146C20.6917 15.2832 20.7434 15.2257 20.7684 15.2407C20.7934 15.2558 20.7731 15.317 20.8089 15.3098C20.8103 15.2694 20.8117 15.2272 20.813 15.1863C20.774 15.1971 20.7343 15.2046 20.6956 15.2147C20.6956 15.2147 20.6956 15.2146 20.6956 15.2146ZM20.7738 8.87079C20.7626 8.91736 20.7231 8.89836 20.7693 8.99032C20.7693 8.99025 20.7693 8.99018 20.7693 8.99011C20.8016 8.90261 20.8304 8.78997 20.7992 8.69339C20.7575 8.75246 20.7913 8.79751 20.7738 8.87079ZM20.7823 14.0163C20.751 13.9966 20.7249 14.0882 20.7539 14.1084C20.8009 14.1411 20.8297 14.0463 20.7823 14.0163ZM20.4969 6.98959C20.4007 6.91874 20.2927 7.05299 20.3393 7.19357C20.3434 7.20573 20.374 7.11497 20.3928 7.14185C20.3946 7.14457 20.3923 7.19439 20.4057 7.20672C20.4191 7.21905 20.4503 7.2061 20.4633 7.22631C20.4862 7.26176 20.4439 7.3419 20.4738 7.36843C20.4779 7.37193 20.5195 7.32223 20.5211 7.31912C20.5463 7.26809 20.4918 7.21892 20.4915 7.21103C20.4896 7.17045 20.5323 7.17658 20.5423 7.16631C20.5612 7.14695 20.5423 7.11288 20.5437 7.11048C20.5812 7.04889 20.5704 7.18963 20.5858 7.20864C20.6274 7.25983 20.666 7.21243 20.6894 7.33521C20.6916 7.34687 20.6891 7.48644 20.7369 7.31056C20.8365 7.6559 20.7936 7.13703 20.7716 7.08069C20.7615 7.05471 20.7208 7.09404 20.7025 7.07829C20.6606 7.04233 20.6532 6.98103 20.5942 6.98651C20.4701 6.99833 20.5514 7.07884 20.5305 7.13432C20.5036 7.1285 20.4773 7.12627 20.451 7.11548C20.4864 7.13209 20.5042 6.99472 20.4972 6.98959C20.4971 6.98959 20.497 6.98959 20.4969 6.98959ZM20.6387 7.86385C20.6013 7.94143 20.6796 7.93594 20.6348 8.00701C20.7051 8.06968 20.7004 7.94606 20.7044 7.93166C20.7221 7.86591 20.7986 7.86743 20.775 7.80015C20.7298 7.82327 20.6841 7.84211 20.6387 7.86385ZM20.671 7.18911C20.7106 7.241 20.71 7.14815 20.7176 7.14439C20.798 7.10339 20.7824 7.38139 20.671 7.18911ZM20.5806 11.5972C20.5779 11.6236 20.6159 11.6069 20.6271 11.6301C20.6384 11.6534 20.6059 11.733 20.6295 11.731C20.6532 11.7289 20.7146 11.5831 20.7279 11.7295C20.7412 11.7245 20.7511 11.7262 20.7631 11.7238C20.7635 11.6836 20.7641 11.6429 20.7644 11.6027C20.7262 11.6248 20.6859 11.6474 20.6489 11.6687C20.6185 11.6461 20.6576 11.6334 20.6576 11.6322C20.6575 11.6322 20.6575 11.6322 20.6574 11.6322C20.6544 11.59 20.5866 11.538 20.5806 11.5972ZM20.6998 9.5219C20.6047 9.51403 20.7109 9.57618 20.7227 9.6017C20.7344 9.62721 20.6992 9.66227 20.7401 9.6491C20.7684 9.60783 20.7104 9.52276 20.6997 9.5219C20.6997 9.5219 20.6998 9.5219 20.6998 9.5219ZM20.6389 8.2853C20.662 8.35033 20.6867 8.34 20.6585 8.41955C20.6815 8.41647 20.7049 8.41339 20.7276 8.4103C20.728 8.34712 20.6613 8.35156 20.6881 8.27845C20.6926 8.26647 20.7459 8.29213 20.7287 8.23804C20.7003 8.25378 20.6687 8.26973 20.6389 8.2853ZM20.7241 8.60757C20.7206 8.53291 20.5346 8.47369 20.6185 8.6112C20.631 8.63158 20.7268 8.66372 20.7241 8.60757ZM20.5759 10.9085C20.5705 11.0355 20.6005 10.8912 20.6291 10.8582C20.652 11.1538 20.6213 10.8248 20.7163 10.7953C20.6893 10.7592 20.6274 10.6915 20.6108 10.7667C20.6039 10.798 20.6322 10.7866 20.6321 10.7884C20.6251 10.8461 20.5788 10.8392 20.5759 10.9085ZM20.6341 7.72906C20.6355 7.73385 20.6676 7.72635 20.674 7.74159C20.6804 7.75685 20.6579 7.79139 20.6776 7.79481C20.6975 7.79822 20.7128 7.72894 20.6984 7.70769C20.6838 7.68645 20.6218 7.68574 20.6341 7.72906ZM20.555 8.21647C20.5781 8.27992 20.6964 8.17616 20.6958 8.16235C20.6896 8.04111 20.5925 8.22006 20.555 8.21647ZM20.375 10.6136C20.4351 10.7667 20.5395 10.6547 20.602 10.5588C20.5893 10.5461 20.5766 10.5331 20.564 10.5206C20.6412 10.5782 20.7175 10.679 20.6502 10.4547C20.6321 10.5775 20.6113 10.4746 20.607 10.4738C20.4651 10.4603 20.531 10.6422 20.375 10.6134C20.375 10.6135 20.375 10.6135 20.375 10.6136ZM20.6679 7.52268C20.6675 7.45605 20.643 7.28282 20.5811 7.36364C20.6101 7.41671 20.639 7.46961 20.6679 7.52268ZM20.3833 13.12C20.348 13.1745 20.3486 13.2246 20.3509 13.2918C20.4024 13.2313 20.4083 13.2711 20.4209 13.2914C20.4398 13.3223 20.4383 13.2475 20.4417 13.2473C20.4906 13.2486 20.4982 13.2964 20.497 13.1877C20.5141 13.2145 20.5312 13.2411 20.5481 13.2679C20.5503 13.1851 20.5822 13.1656 20.6212 13.113C20.526 13.164 20.5856 13.0968 20.5382 13.0359C20.5145 13.0055 20.4014 13.0923 20.3833 13.1202C20.3833 13.1201 20.3833 13.1201 20.3833 13.12ZM20.3559 10.7718C20.3731 10.7875 20.3963 10.802 20.4159 10.8172C20.4177 10.8338 20.4194 10.8505 20.4212 10.8671C20.4061 10.8691 20.3902 10.8708 20.3756 10.8732C20.3712 10.8951 20.3923 10.8866 20.3943 10.8931C20.3942 10.8931 20.3941 10.8931 20.3941 10.8931C20.422 10.9864 20.4189 11.0246 20.372 11.0977C20.4185 11.0977 20.4649 11.0977 20.5114 11.0977C20.5069 11.0813 20.5026 11.0647 20.4983 11.0482C20.4734 11.0395 20.4484 11.0307 20.4234 11.022C20.4372 11.003 20.4509 10.9842 20.4646 10.9652C20.4556 10.9499 20.4462 10.9316 20.4375 10.9184C20.5673 10.8426 20.4791 11.015 20.533 11.0165C20.5676 11.0175 20.5661 10.8439 20.5422 10.8189C20.5387 10.8153 20.442 10.8528 20.4924 10.7893C20.5003 10.7794 20.7095 10.7759 20.5401 10.7074C20.5161 10.6976 20.3862 10.7317 20.3559 10.7718ZM20.2885 11.4022C20.4223 11.3046 20.2808 11.6649 20.3909 11.5094C20.4524 11.5538 20.4516 11.5455 20.5061 11.5008C20.511 11.4969 20.5279 11.5278 20.5301 11.5252C20.5601 11.4834 20.5442 11.433 20.5989 11.4327C20.596 11.4214 20.5934 11.4108 20.5905 11.3995C20.5389 11.4465 20.5043 11.3717 20.4608 11.3428C20.4411 11.3296 20.435 11.3599 20.4177 11.3488C20.4115 11.3447 20.424 11.3024 20.406 11.3006C20.3651 11.297 20.31 11.3236 20.2799 11.3687C20.2798 11.3687 20.2798 11.3687 20.2797 11.3687C20.2824 11.3799 20.2857 11.3909 20.2885 11.4022ZM20.3996 9.31601C20.4736 9.2994 20.4947 9.23281 20.5309 9.36074C20.5455 9.3544 20.5599 9.34789 20.5745 9.34156C20.5732 9.31998 20.5719 9.29909 20.5708 9.27717C20.3529 9.21141 20.5988 9.09139 20.4442 9.16827C20.4274 9.17666 20.4462 9.22783 20.4006 9.17731C20.4006 9.17738 20.4005 9.17745 20.4005 9.17751C20.4145 9.24805 20.4407 9.25693 20.3996 9.31601ZM20.4512 9.78814C20.6068 9.95083 20.538 9.56334 20.4967 9.62807C20.493 9.6339 20.5264 9.80081 20.4512 9.78814ZM20.3158 8.4827C20.3131 8.55564 20.397 8.56047 20.4273 8.55312C20.4576 8.54575 20.4269 8.49525 20.4317 8.48873C20.4475 8.4675 20.4579 8.51253 20.4795 8.48496C20.4865 8.47583 20.5164 8.3488 20.5128 8.34297C20.4927 8.31065 20.4234 8.35791 20.4155 8.34866C20.3895 8.31852 20.4255 8.2776 20.3887 8.26886C20.3101 8.25003 20.3926 8.32632 20.3939 8.33921C20.3977 8.37808 20.3534 8.37468 20.3446 8.4038C20.3357 8.43289 20.3509 8.4519 20.3477 8.47757C20.3467 8.48611 20.316 8.479 20.3158 8.4827ZM20.4931 8.72387C20.4295 8.6477 20.3604 8.83317 20.3753 8.85518C20.4195 8.91991 20.5234 8.76035 20.4931 8.72387ZM20.4904 11.1578C20.4443 11.0882 20.407 11.2505 20.4256 11.2969C20.4447 11.2883 20.5062 11.1818 20.4904 11.1578ZM20.3753 10.5711C20.3896 10.6352 20.4934 10.5502 20.4918 10.4968C20.4236 10.4655 20.4371 10.4949 20.4343 10.5299C20.4315 10.5648 20.3641 10.5211 20.3753 10.5711ZM20.3916 7.69159C20.3905 7.70541 20.4469 7.92812 20.4704 7.80015C20.4721 7.79039 20.4622 7.6345 20.4517 7.62269C20.4305 7.59891 20.3947 7.65598 20.3916 7.69159ZM20.2745 10.2639C20.3335 10.2978 20.3327 10.3312 20.402 10.3C20.402 10.3 20.402 10.2999 20.402 10.2999C20.4232 10.3857 20.2815 10.3895 20.2845 10.4079C20.2951 10.4726 20.396 10.4113 20.4292 10.4519C20.398 10.3576 20.466 10.3846 20.4704 10.3129C20.4713 10.2968 20.4307 10.2324 20.4054 10.2229C20.38 10.2135 20.3041 10.2464 20.2745 10.2639ZM20.3769 7.37699C20.3543 7.45216 20.4499 7.52099 20.4651 7.41672C20.4726 7.36586 20.3907 7.3311 20.3769 7.37699ZM20.353 14.8913C20.3781 14.8798 20.403 14.868 20.4279 14.8556C20.4339 14.8834 20.4401 14.9111 20.4463 14.9389C20.4384 14.9169 20.4306 14.895 20.4228 14.8729C20.414 14.925 20.3684 14.9488 20.353 14.8914C20.353 14.8914 20.353 14.8913 20.353 14.8913ZM20.3339 16.7447C20.3097 16.7679 20.3845 16.8138 20.3903 16.808C20.4338 16.7642 20.3674 16.7123 20.3339 16.7447ZM20.2633 11.2608C20.2528 11.3474 20.3744 11.2878 20.3827 11.2347C20.3595 11.2672 20.2692 11.2116 20.2633 11.2608ZM20.3398 16.0929C20.3503 16.0851 20.3607 16.0773 20.3712 16.0685C20.3566 16.0959 20.3469 16.1007 20.3398 16.0929ZM20.2843 7.727C20.2749 7.74022 20.2672 7.83798 20.2788 7.85118C20.303 7.87858 20.3702 7.80235 20.3495 7.75748C20.3473 7.75251 20.2936 7.71385 20.2843 7.72721C20.2843 7.72714 20.2843 7.72707 20.2843 7.727ZM20.3064 15.0084C20.3076 15.0082 20.3087 15.0083 20.3097 15.0086C20.3086 15.0085 20.3075 15.0085 20.3064 15.0084ZM20.1829 18.6906C20.1848 18.6901 20.1866 18.6898 20.1884 18.6898C20.1867 18.69 20.1848 18.6905 20.1829 18.6906ZM20.1811 8.41647C20.0652 8.44901 20.1268 8.52401 20.1841 8.46476C20.1871 8.46144 20.1808 8.42436 20.1811 8.41647Z" fill="black"/>
<path d="M13.7362 21.0081C14.4413 21.0055 15.2132 20.9901 15.9211 21.0102C16.008 21.0126 16.0021 21.0462 16.0265 21.0506C16.0931 21.0629 16.1332 21.0232 16.1818 21.0261C16.418 21.0401 16.6389 21.0458 16.8706 21.0586C17.1093 21.0716 16.9964 21.176 17.0794 21.2014C17.2414 21.2512 17.1036 21.1151 17.1673 21.0846C17.353 21.0927 17.5404 21.1075 17.7265 21.1224C17.6811 21.1351 17.6356 21.1475 17.5897 21.1593C17.6708 21.1621 17.7869 21.1831 17.6511 21.2187C17.6811 21.2285 17.7091 21.24 17.74 21.2495C17.7484 21.2 17.892 21.196 17.9052 21.1666C17.9183 21.1372 17.8375 21.1439 17.838 21.1414C17.8434 21.1048 18.1746 21.1548 18.1985 21.1589C18.2616 21.1698 18.2062 21.2312 18.26 21.2273C18.3523 21.2205 18.2908 21.0955 18.4159 21.2617C18.4656 21.2077 18.4699 21.2357 18.5329 21.2395C18.5412 21.2399 18.5348 21.2087 18.5385 21.2078C18.6338 21.1846 18.5605 21.2428 18.561 21.2459C18.5697 21.2994 18.672 21.2757 18.6936 21.2808C18.9641 21.3447 19.1623 21.388 19.4477 21.4028C19.5094 21.4059 19.6974 21.3842 19.7571 21.3933C19.816 21.4023 19.7844 21.4409 19.8152 21.4594C19.8646 21.3666 19.9117 21.3564 20.0226 21.4175C20.0639 21.3499 20.0586 21.4044 20.1377 21.3909C20.2036 21.3797 20.3183 21.2985 20.3908 21.3677C20.3077 21.3614 20.3163 21.3946 20.2228 21.4147C20.1916 21.4213 19.8669 21.4228 19.8911 21.4919C19.9037 21.5279 20.0113 21.4948 20.0155 21.5015C20.0397 21.5402 19.9796 21.5878 19.9264 21.5711C19.9396 21.5633 19.9556 21.5554 19.9699 21.5476C19.8503 21.4992 19.9325 21.6851 19.8417 21.5226C19.8304 21.5027 19.8348 21.4819 19.8162 21.4607C19.8124 21.4695 19.8351 21.4912 19.8156 21.4951C19.7957 21.499 19.7579 21.4578 19.7522 21.4925C19.7438 21.543 19.8263 21.5231 19.8325 21.5261C19.8326 21.5258 19.8326 21.5255 19.8327 21.5252C19.8876 21.552 19.773 21.5551 19.7675 21.5598C19.732 21.5913 19.7562 21.6156 19.703 21.6416C19.6726 21.6564 19.5953 21.6476 19.5668 21.6524C19.5385 21.6573 19.5826 21.6812 19.5635 21.6864C19.5444 21.6915 19.5207 21.6733 19.4983 21.6793C19.4887 21.6819 19.4892 21.7086 19.4845 21.7095C19.4348 21.7198 19.4674 21.6643 19.4223 21.6677C19.3931 21.6699 19.295 21.7216 19.3626 21.737C19.3301 21.7424 19.2984 21.7463 19.2661 21.7505C19.2865 21.7584 19.3075 21.7638 19.3274 21.7732C19.2666 21.7605 19.2391 21.8061 19.2009 21.8095C19.1628 21.8129 19.1286 21.7581 19.0866 21.7848C18.9971 21.8416 19.2188 21.8154 19.2464 21.8255C19.2571 21.8295 19.2159 21.8724 19.2096 21.8736C19.1814 21.879 19.148 21.8483 19.1263 21.8497C19.0485 21.8548 19.0009 21.8953 18.9267 21.9035C18.6743 21.9312 18.3611 21.9537 18.122 21.9626C18.0329 21.9659 17.9793 21.9204 17.9393 21.9217C17.8458 21.9247 17.8344 21.9643 17.7528 21.9665C17.6314 21.9697 17.4603 21.9351 17.359 21.9276C17.2888 21.9225 17.2253 21.9609 17.2071 21.9618C16.9535 21.9756 16.6449 21.9747 16.4348 21.9752C16.336 21.9754 16.289 21.9323 16.2686 21.9336C16.1809 21.9389 16.2044 21.9758 16.1333 21.9721C16.0948 21.9701 16.0877 21.9347 16.0825 21.9333C16.0372 21.9216 16.0282 21.9679 15.9929 21.9694C15.7897 21.9781 15.594 21.9479 15.3928 21.9434C15.3782 21.9431 15.3795 21.9226 15.3701 21.9237C15.3295 21.9287 15.3484 21.9609 15.3059 21.9633C15.2177 21.9683 15.1271 21.963 15.0335 21.9589C15.0243 21.9585 15.0201 21.9322 14.9989 21.9322C14.9777 21.9322 14.9616 21.9571 14.9283 21.9557C14.8412 21.9521 14.7552 21.9223 14.663 21.9206C14.6478 21.9204 14.6289 21.9521 14.606 21.9517C14.5342 21.9507 14.4278 21.9219 14.3663 21.9209C14.1633 21.9176 13.976 21.9356 13.7847 21.9359C13.7398 21.9359 13.7 21.9065 13.6766 21.9058C13.6239 21.9043 13.6637 21.932 13.6103 21.9322C13.174 21.9329 12.7362 21.9202 12.2948 21.9224C12.1215 21.9233 11.9105 21.952 11.743 21.9441C11.6733 21.9407 11.6607 21.9023 11.6114 21.9019C11.5235 21.9015 11.5076 21.9507 11.4149 21.9556C11.3409 21.9594 11.2562 21.9103 11.1792 21.9134C11.1022 21.9164 11.0667 21.9641 10.9783 21.9698C10.9055 21.9745 10.8038 21.9528 10.7246 21.9563C9.9981 21.9885 9.28273 22.0081 8.55178 21.9708C8.29386 21.9576 8.0077 21.9645 7.74116 21.9176C7.71613 21.9131 7.75442 21.8671 7.67416 21.8767C7.63103 21.882 7.57083 21.9217 7.47115 21.9237C6.87852 21.9353 6.24638 21.8504 5.6438 21.8672C4.74117 21.8925 3.80571 22.2204 3.02135 21.7406C2.98287 21.7171 3.00373 21.6016 3.02679 21.5688C3.04818 21.5923 3.06795 21.6201 3.09034 21.6466C3.11853 21.5023 3.11356 21.5399 3.21805 21.5528C3.28237 21.5609 3.23099 21.4992 3.26528 21.4817C3.30973 21.459 3.51844 21.3878 3.4783 21.4833C3.49124 21.4667 3.50318 21.4509 3.51578 21.4347C3.66688 21.4202 3.81368 21.3963 3.96146 21.3689C3.98699 21.3641 3.98817 21.3341 4.01453 21.3293C4.08535 21.3162 4.14158 21.3359 4.21455 21.3329C4.25419 21.3313 4.25969 21.2966 4.31161 21.2989C4.36349 21.3011 4.36235 21.3478 4.43314 21.297C4.38703 21.2383 4.59272 21.2809 4.66587 21.2773C4.67648 21.2768 4.76355 21.2241 4.80983 21.2302C4.85626 21.2361 4.92676 21.2698 4.99857 21.2507C5.03224 21.2417 5.05267 21.2007 5.08899 21.1983C5.11453 21.1967 5.14521 21.2332 5.17755 21.2347C5.20988 21.2362 5.27984 21.2063 5.29265 21.2058C5.33892 21.2038 5.28788 21.2294 5.31952 21.2307C5.47228 21.2366 5.64976 21.2503 5.80036 21.2331C5.81888 21.231 5.79326 21.2007 5.79572 21.1997C5.92141 21.1626 5.85432 21.202 5.88826 21.2291C5.92114 21.2553 6.16174 21.241 6.16351 21.1884C6.1709 21.2542 6.22438 21.204 6.23828 21.202C6.29234 21.1946 6.28173 21.2515 6.33414 21.2339C6.35337 21.2275 6.31593 21.189 6.33659 21.1901C6.38768 21.1929 6.43365 21.2548 6.50165 21.2609C6.51807 21.2625 6.52341 21.2349 6.5526 21.2359C6.58182 21.2368 6.70433 21.2705 6.6478 21.2124C6.7221 21.259 6.73706 21.2334 6.82347 21.2347C6.84536 21.2351 6.87354 21.2795 6.92013 21.2657C6.93588 21.261 6.93542 21.2183 6.95913 21.2179C7.01336 21.217 7.06445 21.2613 7.13328 21.263C7.26199 21.2664 7.399 21.2353 7.53318 21.2464C7.56965 21.2494 7.56055 21.2924 7.61359 21.2932C7.62138 21.2932 7.68526 21.256 7.72192 21.2595C7.74398 21.2616 7.85828 21.2878 7.88134 21.2899C7.91946 21.2932 7.92627 21.2517 7.94715 21.2598C8.00752 21.2832 7.95909 21.3445 8.03173 21.2607C8.05562 21.3071 8.09807 21.3025 8.11167 21.3596C8.13638 21.297 8.16843 21.3572 8.21636 21.3362C8.26429 21.3152 8.3036 21.1939 8.31521 21.3244C8.3376 21.3086 8.43299 21.2815 8.44908 21.2795C8.4965 21.2739 8.47114 21.31 8.50693 21.3051C8.51323 21.3043 8.50663 21.2796 8.54707 21.2821C8.57361 21.2837 8.76805 21.2852 8.77966 21.2886C8.91213 21.3273 8.70747 21.3131 8.67882 21.3398C8.67376 21.3328 8.66876 21.3257 8.66336 21.3188C8.60482 21.3072 8.63815 21.3629 8.66469 21.3759C8.69123 21.3888 8.74082 21.364 8.76287 21.3823C8.77387 21.3915 8.76705 21.4584 8.73382 21.4503C8.76938 21.4709 8.72081 21.4926 8.73488 21.512C8.75034 21.5332 8.91016 21.5397 8.91101 21.5029C8.88116 21.5016 8.84401 21.5029 8.81382 21.5014C8.77435 21.4373 8.89425 21.2186 9.00422 21.306C9.08399 21.3692 8.95249 21.4195 9.14122 21.3664C9.11219 21.3638 9.08764 21.3579 9.06127 21.3552C9.05847 21.3072 9.10125 21.36 9.1233 21.3447C9.1339 21.3372 9.0686 21.3032 9.12529 21.2919C9.17405 21.3606 9.21157 21.2915 9.29333 21.2907C9.27061 21.3029 9.24786 21.3151 9.22514 21.3274C9.3633 21.3772 9.04239 21.3936 9.31105 21.4215C9.27872 21.4237 9.24655 21.4231 9.21406 21.4265C9.22981 21.4517 9.2046 21.5257 9.2187 21.5413C9.25568 21.5823 9.31039 21.5576 9.3555 21.5612C9.37523 21.5627 9.36299 21.5827 9.36465 21.5828C9.39168 21.585 9.38571 21.5557 9.40943 21.5539C9.43928 21.5515 9.52548 21.58 9.53946 21.5767C9.57562 21.5685 9.51541 21.5107 9.51889 21.5064C9.54195 21.4784 9.58903 21.5016 9.58656 21.465C9.47326 21.4902 9.14675 21.4578 9.44214 21.3973C9.3607 21.3382 9.38422 21.2566 9.50131 21.2502C9.59818 21.2448 9.53567 21.2775 9.5861 21.3134C9.59261 21.3179 9.72235 21.3351 9.72899 21.3097C9.7238 21.3682 9.76602 21.42 9.73769 21.4804C9.73354 21.4892 9.6803 21.4857 9.69888 21.5343C9.70816 21.5586 9.73482 21.6117 9.73052 21.6427C9.74147 21.6211 9.75291 21.5969 9.76402 21.5744C9.8438 21.5681 9.85514 21.5913 9.89876 21.6316C9.89677 21.6148 9.85646 21.5442 9.91767 21.5656C9.92081 21.5669 9.92352 21.5923 9.95462 21.6048C10.0175 21.63 10.0306 21.6378 9.98235 21.7122C10.1125 21.6698 10.1406 21.7527 10.2741 21.7285C10.2475 21.6328 10.2006 21.6565 10.0783 21.675C10.073 21.6522 10.0706 21.6297 10.0651 21.6067C10.2278 21.6583 10.1474 21.653 10.2396 21.6068C10.2621 21.5955 10.3824 21.6076 10.3422 21.5432C10.3328 21.5281 10.2581 21.5298 10.2666 21.5059C10.2683 21.5014 10.3591 21.4898 10.3671 21.496C10.4676 21.5722 10.288 21.6253 10.5648 21.5975C10.5724 21.5967 10.5751 21.5688 10.59 21.565C10.6181 21.5577 10.6184 21.59 10.6434 21.5825C10.6685 21.5751 10.7032 21.5317 10.7408 21.5718C10.8097 21.6448 10.6473 21.6868 10.575 21.6481C10.5456 21.7435 11.0623 21.7456 11.0943 21.7375C11.2341 21.7019 11.0015 21.7224 10.9895 21.6959C10.9845 21.6847 10.987 21.5428 10.9281 21.6349C10.9107 21.6622 10.9835 21.6982 10.94 21.7132C10.8966 21.7283 10.9138 21.6865 10.9107 21.6836C10.8998 21.6736 10.8536 21.6891 10.8476 21.6831C10.7554 21.5932 10.7639 21.4573 10.8861 21.658C10.9394 21.6127 10.8171 21.5403 10.8833 21.5095C10.9638 21.4721 11.0225 21.5368 11.0326 21.5398C11.1538 21.5743 11.014 21.4798 11.1621 21.51C11.2445 21.5268 11.0387 21.5729 11.227 21.5667C11.3845 21.5614 11.2994 21.5285 11.3109 21.4538C11.3136 21.4363 11.3999 21.4148 11.2824 21.4225C11.279 21.442 11.2728 21.4677 11.2653 21.4856C11.2365 21.4714 11.1884 21.3739 11.1731 21.3705C11.0983 21.3543 11.1019 21.4049 11.0578 21.3453C11.0893 21.4105 11.038 21.3712 11.0188 21.385C10.9474 21.4357 11.041 21.4546 10.8807 21.3894C10.9016 21.4199 10.9205 21.4499 10.9407 21.4804C10.9215 21.4814 10.9022 21.4825 10.883 21.4835C10.8543 21.4162 10.7521 21.4248 10.8446 21.3571C10.7334 21.3378 10.6884 21.3525 10.664 21.4049C10.6594 21.4149 10.6426 21.4189 10.623 21.4198C10.6267 21.4345 10.6315 21.48 10.6284 21.4856C10.6007 21.5347 10.5577 21.4499 10.5724 21.4176C10.5586 21.416 10.5478 21.4142 10.5439 21.4134C10.5196 21.4084 10.5673 21.3791 10.5476 21.3691C10.5411 21.3658 10.4725 21.3722 10.4711 21.3603C10.4629 21.2841 10.5758 21.3391 10.3491 21.2948C10.3436 21.3642 10.4489 21.3489 10.4219 21.4226C10.3928 21.5018 10.3336 21.3956 10.3207 21.4928C10.3159 21.4768 10.3138 21.4635 10.3096 21.4453C10.2179 21.4876 10.2167 21.4067 10.1887 21.3888C10.1343 21.3539 9.88415 21.3592 10.1087 21.4293C10.0759 21.4363 10.0424 21.4395 10.0097 21.4457C10.0022 21.3006 10.0221 21.3584 9.86473 21.3362C9.83007 21.3313 9.81878 21.2675 9.78479 21.3433C9.78941 21.2689 9.68688 21.3139 9.67732 21.3048C9.61595 21.2462 9.8438 21.1645 9.87302 21.2959C9.91148 21.2447 9.91135 21.3124 9.95429 21.3034C10.0163 21.2905 10.0249 21.2773 10.0986 21.3272C10.1711 21.2569 9.81482 21.2963 10.0308 21.203C10.2468 21.1097 11.5046 21.0576 11.798 21.0436C12.3296 21.0183 12.6091 21.0017 13.0866 21.0059C13.1337 21.0063 13.4893 20.9995 13.4154 21.0808C13.4048 21.0925 13.2519 21.1234 13.383 21.1872C13.3564 21.1495 13.4335 21.1251 13.44 21.1211C13.5884 21.0311 13.5025 21.009 13.7362 21.0081ZM14.429 21.7331C14.124 21.7145 14.348 21.7689 14.2847 21.8916C14.3238 21.8919 14.3628 21.8923 14.402 21.8926C14.3917 21.8849 14.3815 21.8772 14.3713 21.8695C14.3712 21.8695 14.3712 21.8695 14.3711 21.8695C14.3904 21.824 14.4097 21.7785 14.429 21.7331ZM19.4151 21.8152C19.4032 21.8314 19.3914 21.8476 19.3785 21.8634C19.3382 21.8584 19.2981 21.8534 19.2578 21.8484C19.2626 21.8374 19.2672 21.8264 19.272 21.8154C19.3197 21.8159 19.3672 21.8164 19.4151 21.8152ZM10.5323 21.6659C10.4753 21.621 10.4804 21.7011 10.4046 21.6646C10.4139 21.7237 10.4242 21.7816 10.434 21.8401C10.4917 21.8314 10.5048 21.8089 10.5675 21.8233C10.5602 21.8043 10.5527 21.7852 10.5456 21.7661C10.5351 21.7702 10.524 21.7748 10.5139 21.7784C10.4979 21.7252 10.598 21.7173 10.5325 21.6657C10.5324 21.6658 10.5324 21.6658 10.5323 21.6659ZM9.94765 21.6897C9.91697 21.682 9.7954 21.653 9.77882 21.6775C9.72259 21.7606 10.0656 21.7079 9.81278 21.7817C9.81394 21.7934 9.81278 21.8048 9.81278 21.8163C9.85889 21.8204 9.90486 21.8239 9.9513 21.8272C9.94882 21.7812 9.95047 21.7358 9.94765 21.6897ZM13.3258 21.7382C13.2786 21.7318 13.0538 21.7709 13.1271 21.8234C13.1487 21.8388 13.249 21.7636 13.2872 21.7669C13.3119 21.769 13.2842 21.8102 13.333 21.7951C13.3308 21.7769 13.3295 21.7567 13.3257 21.7383C13.3257 21.7383 13.3257 21.7382 13.3258 21.7382ZM13.4142 21.4981C13.3655 21.5055 13.316 21.5148 13.2669 21.5226C13.3028 21.5696 13.3733 21.5394 13.3774 21.6056C13.364 21.6106 13.3507 21.6156 13.3373 21.6206C13.327 21.6061 13.3169 21.5916 13.3068 21.5772C13.2646 21.6131 13.2901 21.6309 13.2117 21.6206C13.2591 21.7205 13.2679 21.7742 13.4023 21.6731C13.3769 21.7273 13.4008 21.904 13.4753 21.7777C13.4892 21.7543 13.431 21.7386 13.4303 21.7349C13.4214 21.6885 13.4537 21.6589 13.4441 21.615C13.4398 21.5952 13.4043 21.5955 13.399 21.568C13.3965 21.5545 13.4303 21.5162 13.4142 21.4981ZM13.5114 21.7335C13.4963 21.7616 13.5479 21.8283 13.5927 21.8148C13.6625 21.7938 13.5524 21.7303 13.5114 21.7335ZM19.4153 21.8151C19.4153 21.8152 19.4152 21.8152 19.4151 21.8152C19.4151 21.8151 19.4152 21.8151 19.4152 21.815C19.4153 21.8151 19.4153 21.8151 19.4153 21.8151ZM10.1059 21.7222C10.0697 21.7461 10.0162 21.7426 10.0202 21.7806C10.0026 21.7731 9.98481 21.7658 9.96722 21.7583C9.96739 21.7697 9.96772 21.7812 9.96789 21.7925C10.0208 21.7996 10.0735 21.8068 10.1264 21.814C10.1198 21.7834 10.1137 21.7528 10.1059 21.7222ZM9.52951 21.6956C9.46301 21.6917 9.51876 21.7434 9.50417 21.7684C9.48957 21.7934 9.43033 21.7731 9.43729 21.8089C9.47644 21.8103 9.51726 21.8117 9.55691 21.813C9.54646 21.774 9.53916 21.7343 9.52938 21.6956C9.52942 21.6956 9.52946 21.6956 9.52951 21.6956ZM15.6738 21.7738C15.6287 21.7626 15.6471 21.7231 15.558 21.7693C15.5581 21.7693 15.5582 21.7693 15.5582 21.7693C15.643 21.8016 15.7521 21.8304 15.8456 21.7992C15.7884 21.7575 15.7448 21.7913 15.6738 21.7738ZM10.6901 21.7823C10.7091 21.751 10.6204 21.7249 10.6008 21.7539C10.5692 21.8009 10.661 21.8297 10.6901 21.7823ZM17.4958 21.4969C17.5645 21.4007 17.4344 21.2927 17.2983 21.3393C17.2865 21.3434 17.3744 21.374 17.3484 21.3928C17.3457 21.3946 17.2975 21.3923 17.2855 21.4057C17.2736 21.4191 17.2861 21.4503 17.2666 21.4633C17.2322 21.4862 17.1546 21.4439 17.1289 21.4738C17.1255 21.4779 17.1737 21.5195 17.1767 21.5211C17.2261 21.5463 17.2737 21.4918 17.2814 21.4915C17.3207 21.4896 17.3147 21.5323 17.3247 21.5423C17.3434 21.5612 17.3764 21.5423 17.3787 21.5437C17.4384 21.5812 17.3021 21.5704 17.2837 21.5858C17.2341 21.6274 17.28 21.666 17.1611 21.6894C17.1498 21.6916 17.0146 21.6891 17.185 21.7369C16.8505 21.8365 17.353 21.7936 17.4076 21.7716C17.4328 21.7615 17.3947 21.7208 17.4099 21.7025C17.4448 21.6606 17.5041 21.6532 17.4988 21.5942C17.4874 21.4701 17.4094 21.5514 17.3557 21.5305C17.3613 21.5036 17.3635 21.4773 17.3739 21.451C17.3578 21.4864 17.4909 21.5042 17.4958 21.4972C17.4958 21.4971 17.4958 21.497 17.4958 21.4969ZM16.6491 21.6387C16.5739 21.6013 16.5792 21.6796 16.5104 21.6348C16.4497 21.7051 16.5694 21.7004 16.5834 21.7044C16.6471 21.7221 16.6456 21.7986 16.7108 21.775C16.6884 21.7298 16.6701 21.6841 16.6491 21.6387ZM17.3026 21.671C17.2523 21.7106 17.3423 21.71 17.3459 21.7176C17.3856 21.798 17.1164 21.7824 17.3026 21.671ZM13.0331 21.5806C13.0076 21.5779 13.0238 21.6159 13.0013 21.6271C12.9787 21.6384 12.9016 21.6059 12.9035 21.6295C12.9055 21.6532 13.0468 21.7146 12.905 21.7279C12.9098 21.7412 12.9082 21.7511 12.9105 21.7631C12.9495 21.7635 12.9888 21.7641 13.0278 21.7644C13.0064 21.7262 12.9845 21.6859 12.9639 21.6489C12.9858 21.6185 12.9981 21.6576 12.9993 21.6576C12.9993 21.6575 12.9993 21.6575 12.9993 21.6574C13.0401 21.6544 13.0904 21.5866 13.0331 21.5806ZM15.0432 21.6998C15.0508 21.6047 14.9906 21.7109 14.9659 21.7227C14.9412 21.7344 14.9072 21.6992 14.92 21.7401C14.9599 21.7684 15.0423 21.7104 15.0432 21.6997C15.0432 21.6997 15.0432 21.6998 15.0432 21.6998ZM16.2409 21.6389C16.1779 21.662 16.1879 21.6867 16.1108 21.6585C16.1138 21.6815 16.1168 21.7049 16.1198 21.7276C16.181 21.728 16.1767 21.6613 16.2475 21.6881C16.2591 21.6926 16.2343 21.7459 16.2866 21.7287C16.2714 21.7003 16.256 21.6687 16.2409 21.6389ZM15.9287 21.7241C16.0011 21.7206 16.0584 21.5346 15.9252 21.6185C15.9055 21.631 15.8744 21.7268 15.9287 21.7241ZM13.7002 21.5759C13.5771 21.5705 13.7169 21.6005 13.7489 21.6291C13.4625 21.652 13.7812 21.6213 13.8098 21.7163C13.8448 21.6893 13.9103 21.6274 13.8375 21.6108C13.8072 21.6039 13.8183 21.6322 13.8164 21.6321C13.7606 21.6251 13.7673 21.5788 13.7002 21.5759ZM16.7796 21.6341C16.775 21.6355 16.7822 21.6676 16.7675 21.674C16.7527 21.6804 16.7193 21.6579 16.7159 21.6776C16.7126 21.6975 16.7797 21.7128 16.8003 21.6984C16.8209 21.6838 16.8216 21.6218 16.7796 21.6341ZM16.3075 21.555C16.2461 21.5781 16.3466 21.6964 16.36 21.6958C16.4774 21.6896 16.3041 21.5925 16.3075 21.555ZM13.9858 21.375C13.8375 21.4351 13.946 21.5395 14.0389 21.602C14.0512 21.5893 14.0637 21.5766 14.0758 21.564C14.0201 21.6412 13.9224 21.7175 14.1397 21.6502C14.0208 21.6321 14.1204 21.6113 14.1212 21.607C14.1343 21.4651 13.9581 21.531 13.9859 21.375C13.9859 21.375 13.9859 21.375 13.9858 21.375ZM16.9795 21.6679C17.0441 21.6675 17.2118 21.643 17.1336 21.5811C17.0821 21.6101 17.0309 21.639 16.9795 21.6679ZM11.5582 21.3833C11.5055 21.348 11.4568 21.3486 11.3918 21.3509C11.4504 21.4024 11.4119 21.4083 11.3922 21.4209C11.3622 21.4398 11.4347 21.4383 11.4349 21.4417C11.4336 21.4906 11.3874 21.4982 11.4927 21.497C11.4666 21.5141 11.4409 21.5312 11.4149 21.5481C11.4952 21.5503 11.5141 21.5822 11.565 21.6212C11.5156 21.526 11.5806 21.5856 11.6397 21.5382C11.6691 21.5145 11.585 21.4014 11.558 21.3833C11.5581 21.3833 11.5581 21.3833 11.5582 21.3833ZM13.8326 21.3559C13.8173 21.3731 13.8033 21.3963 13.7886 21.4159C13.7725 21.4177 13.7564 21.4194 13.7403 21.4212C13.7383 21.4061 13.7366 21.3902 13.7343 21.3756C13.7131 21.3712 13.7214 21.3923 13.7151 21.3943C13.7151 21.3942 13.7151 21.3941 13.7151 21.3941C13.6247 21.422 13.5877 21.4189 13.5169 21.372C13.5169 21.4185 13.5169 21.4649 13.5169 21.5114C13.5328 21.5069 13.5489 21.5026 13.5648 21.4983C13.5733 21.4734 13.5818 21.4484 13.5902 21.4234C13.6086 21.4372 13.6269 21.4509 13.6453 21.4646C13.66 21.4556 13.6778 21.4462 13.6905 21.4375C13.764 21.5673 13.597 21.4791 13.5955 21.533C13.5945 21.5676 13.7627 21.5661 13.7869 21.5422C13.7904 21.5387 13.7541 21.442 13.8156 21.4924C13.8252 21.5003 13.8286 21.7095 13.8949 21.5401C13.9044 21.5161 13.8714 21.3862 13.8326 21.3559ZM13.222 21.2885C13.3165 21.4223 12.9676 21.2808 13.1181 21.3909C13.0752 21.4524 13.0832 21.4516 13.1264 21.5061C13.1302 21.511 13.1003 21.5279 13.1029 21.5301C13.1434 21.5601 13.1921 21.5442 13.1924 21.5989C13.2034 21.596 13.2137 21.5934 13.2246 21.5905C13.179 21.5389 13.2515 21.5043 13.2796 21.4608C13.2923 21.4411 13.263 21.435 13.2737 21.4177C13.2777 21.4115 13.3187 21.424 13.3204 21.406C13.3238 21.3651 13.2981 21.31 13.2545 21.2799C13.2545 21.2798 13.2545 21.2798 13.2545 21.2797C13.2435 21.2824 13.2329 21.2857 13.222 21.2885ZM15.2426 21.3996C15.2587 21.4736 15.3232 21.4947 15.1993 21.5309C15.2054 21.5455 15.2117 21.5599 15.2178 21.5745C15.2387 21.5732 15.259 21.5719 15.2802 21.5708C15.3439 21.3529 15.4601 21.5988 15.3857 21.4442C15.3775 21.4274 15.328 21.4462 15.3769 21.4006C15.3768 21.4006 15.3768 21.4005 15.3767 21.4005C15.3084 21.4145 15.2998 21.4407 15.2426 21.3996ZM14.7853 21.4512C14.6277 21.6068 15.003 21.538 14.9403 21.4967C14.9347 21.493 14.773 21.5264 14.7853 21.4512ZM16.0497 21.3158C15.979 21.3131 15.9744 21.397 15.9815 21.4273C15.9886 21.4576 16.0375 21.4269 16.0438 21.4317C16.0644 21.4475 16.0208 21.4579 16.0475 21.4795C16.0563 21.4865 16.1794 21.5164 16.185 21.5128C16.2163 21.4927 16.1706 21.4234 16.1795 21.4155C16.2087 21.3895 16.2483 21.4255 16.2568 21.3887C16.275 21.3101 16.2011 21.3926 16.1887 21.3939C16.151 21.3977 16.1543 21.3534 16.1261 21.3446C16.0979 21.3357 16.0795 21.3509 16.0547 21.3477C16.0464 21.3467 16.0533 21.316 16.0497 21.3158ZM15.8161 21.4931C15.8899 21.4295 15.7102 21.3604 15.6889 21.3753C15.6262 21.4195 15.7808 21.5234 15.8161 21.4931ZM13.4587 21.4904C13.5262 21.4443 13.3689 21.407 13.324 21.4256C13.3323 21.4447 13.4355 21.5062 13.4587 21.4904ZM14.0269 21.3753C13.9649 21.3896 14.0472 21.4934 14.0989 21.4918C14.1293 21.4236 14.1007 21.4371 14.0669 21.4343C14.0331 21.4315 14.0753 21.3641 14.0269 21.3753ZM16.8159 21.3916C16.8025 21.3905 16.5868 21.4469 16.7108 21.4704C16.7202 21.4721 16.8712 21.4622 16.8827 21.4517C16.9057 21.4305 16.8504 21.3947 16.8159 21.3916ZM14.3245 21.2745C14.2916 21.3335 14.2593 21.3327 14.2895 21.402C14.2896 21.402 14.2896 21.402 14.2897 21.402C14.2066 21.4232 14.2029 21.2815 14.185 21.2845C14.1223 21.2951 14.1817 21.396 14.1424 21.4292C14.2338 21.398 14.2076 21.466 14.2771 21.4704C14.2926 21.4713 14.355 21.4307 14.3642 21.4054C14.3733 21.38 14.3414 21.3041 14.3245 21.2745ZM17.1206 21.3769C17.0478 21.3543 16.9811 21.4499 17.0821 21.4651C17.1314 21.4726 17.1651 21.3907 17.1206 21.3769ZM9.84264 21.353C9.85375 21.3781 9.86519 21.403 9.87713 21.4279C9.85027 21.4339 9.82339 21.4401 9.79653 21.4463C9.81776 21.4384 9.83902 21.4306 9.86042 21.4228C9.80999 21.414 9.78694 21.3684 9.8425 21.353C9.84255 21.353 9.84259 21.353 9.84264 21.353ZM8.04752 21.3339C8.02496 21.3097 7.98052 21.3845 7.98616 21.3903C8.02861 21.4338 8.07883 21.3674 8.04752 21.3339ZM13.359 21.2633C13.2751 21.2528 13.3328 21.3744 13.3842 21.3827C13.3527 21.3595 13.4066 21.2692 13.359 21.2633ZM8.67882 21.3398C8.68635 21.3503 8.69394 21.3607 8.70237 21.3712C8.67584 21.3566 8.67125 21.3469 8.67882 21.3398ZM16.7816 21.2843C16.7688 21.2749 16.6741 21.2672 16.6613 21.2788C16.6348 21.303 16.7086 21.3702 16.7521 21.3495C16.7569 21.3473 16.7944 21.2936 16.7814 21.2843C16.7815 21.2843 16.7816 21.2843 16.7816 21.2843ZM9.72919 21.3064C9.72934 21.3076 9.72926 21.3087 9.72899 21.3097C9.72909 21.3086 9.72906 21.3075 9.72919 21.3064ZM6.16278 21.1829C6.1633 21.1848 6.16357 21.1866 6.16351 21.1884C6.16331 21.1867 6.16291 21.1848 6.16278 21.1829ZM16.1138 21.1811C16.0823 21.0652 16.0097 21.1268 16.0671 21.1841C16.0703 21.1871 16.1062 21.1808 16.1138 21.1811Z" fill="black"/>
</svg>
