<svg width="100" height="27" viewBox="0 0 100 27" fill="none" xmlns="http://www.w3.org/2000/svg">
<mask id="mask0_860_16" style="mask-type:luminance" maskUnits="userSpaceOnUse" x="0" y="0" width="100" height="27">
<path d="M89.3676 26.8391C90.4137 24.6183 94.4642 22.8662 99.6268 22.3974V4.53603C94.5166 4.07173 90.4934 2.35027 89.398 0.160912H10.3944C9.3137 2.31971 5.38485 4.02364 0.374207 4.51535V22.4172C5.43516 22.9148 9.39337 24.6484 10.4238 26.8391H89.3676ZM10.2697 27C10.1806 27 10.103 26.9726 10.0863 26.9348C9.12083 24.7563 5.1815 23.0285 0.148843 22.5606C0.0618386 22.5525 0 22.5202 0 22.4828V4.45063C0 4.41333 0.0597421 4.38007 0.148843 4.37288C5.13013 3.90858 9.04326 2.21138 10.059 0.0651697C10.0747 0.0269649 10.1523 -9.85658e-07 10.2414 -9.85658e-07H89.55C89.637 -9.85658e-07 89.7156 0.0269649 89.7334 0.0651697C90.7607 2.24149 94.7661 3.95577 99.8501 4.3913C99.9381 4.39849 100 4.43175 100 4.47041V22.4622C100 22.5017 99.9381 22.5341 99.8501 22.5417C94.7168 22.9809 90.6821 24.7261 89.7051 26.9348C89.6873 26.9726 89.6108 27 89.5206 27H10.2697Z" fill="white"/>
</mask>
<g mask="url(#mask0_860_16)">
<path d="M89.3676 26.8391C90.4137 24.6183 94.4642 22.8662 99.6268 22.3974V4.53603C94.5166 4.07173 90.4934 2.35027 89.398 0.160912H10.3944C9.3137 2.31971 5.38485 4.02364 0.374207 4.51535V22.4172C5.43516 22.9148 9.39337 24.6484 10.4238 26.8391H89.3676ZM10.2697 27C10.1806 27 10.103 26.9726 10.0863 26.9348C9.12083 24.7563 5.1815 23.0285 0.148843 22.5606C0.0618386 22.5525 0 22.5202 0 22.4828V4.45063C0 4.41333 0.0597421 4.38007 0.148843 4.37288C5.13013 3.90858 9.04326 2.21138 10.059 0.0651697C10.0747 0.0269649 10.1523 -9.85658e-07 10.2414 -9.85658e-07H89.55C89.637 -9.85658e-07 89.7156 0.0269649 89.7334 0.0651697C90.7607 2.24149 94.7661 3.95577 99.8501 4.3913C99.9381 4.39849 100 4.43175 100 4.47041V22.4622C100 22.5017 99.9381 22.5341 99.8501 22.5417C94.7168 22.9809 90.6821 24.7261 89.7051 26.9348C89.6873 26.9726 89.6108 27 89.5206 27H10.2697Z" fill="#D5A962"/>
</g>
</svg>
