<svg xmlns="http://www.w3.org/2000/svg" width="100%" viewBox="0 0 1920 1080" fill="none" class="galaxy_bg-svg">
            <g clip-path="url(#clip0_1399_117618)">
              <path d="M833.5 1L551 1347.5" stroke="currentColor" stroke-width="0.4"></path>
              <path d="M916 1L833.5 1346" stroke="currentColor" stroke-width="0.4"></path>
              <path d="M986.5 1L1113 1346" stroke="currentColor" stroke-width="0.4"></path>
              <path d="M1082 1L1433 1346.5" stroke="currentColor" stroke-width="0.4"></path>
              <path d="M1159.5 1L1797.5 1346.5" stroke="currentColor" stroke-width="0.4"></path>
              <path d="M1260.5 1L1919.5 953.5" stroke="currentColor" stroke-width="0.4"></path>
              <path d="M1364.5 1L1919 573" stroke="currentColor" stroke-width="0.4"></path>
              <path d="M1513.5 1L1919.5 292" stroke="currentColor" stroke-width="0.4"></path>
              <path d="M1727 1L1919.5 101" stroke="currentColor" stroke-width="0.4"></path>
              <path d="M745.5 1L239 1344.5" stroke="currentColor" stroke-width="0.4"></path>
              <path d="M646.5 1L-108.5 1346" stroke="currentColor" stroke-width="0.4"></path>
              <path d="M544.5 1L-133 839.5" stroke="currentColor" stroke-width="0.4"></path>
              <path d="M423 1L-132.5 536" stroke="currentColor" stroke-width="0.4"></path>
              <path d="M283 1L-132.5 301" stroke="currentColor" stroke-width="0.4"></path>
              <path d="M90.9999 1L-132.5 117.5" stroke="currentColor" stroke-width="0.4"></path>
              <path d="M416.5 1C558.5 64 917 278.5 1439 1" stroke="currentColor" stroke-width="0.4"></path>
              <path d="M133.5 0C365.5 149.5 929.5 611 1766.5 1.5" stroke="currentColor" stroke-width="0.645086"></path>
              <path d="M-132.5 44C216.5 454.5 1059.5 839 1920 175" stroke="currentColor" stroke-width="0.645086"></path>
              <path d="M-132.5 411C323 756 1049.5 953 1919.5 490.5" stroke="currentColor" stroke-width="0.645086"></path>
              <path d="M-132.5 698C174 901.5 993 1225 1920 752" stroke="currentColor" stroke-width="0.645086"></path>
              <path d="M-132.5 1055C268 1256 946 1509 1920 1092" stroke="currentColor" stroke-width="0.645086"></path>
            </g>
          </svg>